<?xml version="1.0" standalone="no"?>
<!DOCTYPE svg PUBLIC "-//W3C//DTD SVG 20010904//EN"
 "http://www.w3.org/TR/2001/REC-SVG-20010904/DTD/svg10.dtd">
<svg version="1.0" xmlns="http://www.w3.org/2000/svg"
 width="640.000000pt" height="444.000000pt" viewBox="0 0 640.000000 444.000000"
 preserveAspectRatio="xMidYMid meet">

<g transform="translate(0.000000,444.000000) scale(0.100000,-0.100000)"
fill="#000000" stroke="none">
<path d="M0 2220 l0 -2220 3200 0 3200 0 0 2220 0 2220 -3200 0 -3200 0 0
-2220z m2920 2187 c24 -17 44 -23 65 -20 17 3 60 6 98 6 37 1 67 5 67 10 0 12
55 8 68 -5 9 -9 16 -7 32 7 14 12 39 19 78 21 51 3 61 0 88 -25 23 -22 34 -27
48 -19 12 7 25 5 44 -9 15 -10 53 -25 84 -34 l57 -16 3 26 c3 22 7 26 33 23
16 -2 36 -9 44 -15 7 -6 40 -12 73 -12 45 -1 63 -5 73 -18 7 -9 19 -17 26 -17
8 0 25 -7 37 -16 12 -8 37 -17 54 -19 17 -3 33 -7 36 -10 3 -2 10 3 17 11 10
15 14 15 44 -1 19 -9 58 -37 88 -61 39 -32 63 -44 87 -44 19 0 49 -11 72 -26
32 -22 43 -25 65 -17 27 10 79 -7 79 -27 0 -5 12 -15 27 -22 15 -7 30 -24 33
-38 4 -17 8 -21 14 -12 10 16 26 6 26 -18 0 -23 20 -37 30 -20 11 17 68 3 80
-20 6 -10 10 -31 10 -47 0 -22 15 -43 63 -91 34 -34 66 -62 72 -62 5 0 10 -14
11 -32 1 -17 8 -36 15 -42 23 -18 59 -101 59 -137 0 -19 7 -69 15 -112 20
-104 19 -173 -4 -285 -14 -67 -17 -101 -10 -125 11 -40 12 -144 1 -151 -16 -9
-78 14 -120 44 -41 29 -42 29 -52 9 -16 -30 -5 -49 29 -49 29 0 45 -18 33 -37
-6 -8 -45 -10 -94 -4 -5 1 -8 7 -8 15 0 8 -13 16 -30 18 -20 3 -30 0 -30 -9 0
-18 -16 -17 -24 2 -3 9 -12 12 -23 9 -16 -5 -16 -4 1 10 11 9 23 16 28 16 4 0
8 7 8 16 0 10 -5 14 -15 10 -9 -3 -23 -1 -33 4 -28 15 -111 40 -136 40 -13 0
-45 12 -72 26 -38 20 -52 24 -66 15 -10 -6 -26 -7 -39 -3 l-22 9 22 15 c14 10
19 21 15 32 -8 21 -17 20 -32 -4 -7 -11 -21 -20 -32 -20 -11 0 -20 -4 -20 -10
0 -5 -8 -10 -17 -10 -9 0 -31 -14 -48 -31 -37 -38 -85 -48 -85 -18 0 10 -4 19
-9 19 -5 0 -11 11 -13 24 -5 26 20 56 47 56 8 0 15 6 15 14 0 17 -40 13 -51
-5 -5 -9 -12 -8 -24 4 -18 19 -20 18 50 35 22 6 66 17 98 26 31 9 61 15 65 15
4 -1 23 -1 42 0 55 2 21 23 -46 28 -34 2 -72 12 -91 24 -33 21 -54 20 -200 -7
-27 -5 -33 -3 -33 11 0 15 -3 15 -15 5 -13 -11 -14 -10 -10 3 4 10 -1 18 -17
23 -13 4 -25 6 -27 5 -2 -2 -7 3 -11 9 -8 14 -80 -27 -80 -46 0 -23 -33 -75
-62 -98 -28 -21 -30 -27 -21 -52 7 -22 6 -41 -7 -78 -16 -49 -17 -50 -76 -63
-53 -12 -60 -12 -71 4 -7 9 -13 23 -13 30 0 9 -14 13 -43 13 -24 0 -64 6 -88
13 -24 8 -50 12 -58 9 -7 -2 -17 1 -21 8 -6 9 -11 7 -20 -9 -11 -22 -12 -22
-25 -4 -17 21 -19 37 -5 28 22 -13 8 11 -16 29 -20 14 -28 16 -34 6 -10 -15
-74 3 -105 30 -11 10 -30 21 -42 24 -19 6 -22 3 -25 -26 l-3 -33 -65 0 c-36 0
-78 -6 -93 -13 -16 -7 -32 -12 -37 -12 -5 0 -12 -9 -15 -20 -3 -11 -11 -20
-16 -20 -5 0 -9 -9 -9 -20 0 -11 -6 -20 -12 -20 -22 1 -51 29 -45 44 3 8 -1
20 -9 27 -13 10 -17 10 -25 -2 -7 -11 -9 -11 -9 4 0 21 -16 22 -24 1 -9 -24
-60 -14 -64 12 -2 12 -14 26 -28 32 -14 7 -24 20 -24 32 0 17 -7 20 -45 20
-30 0 -47 -5 -51 -14 -4 -11 -12 -7 -33 15 -32 33 -68 41 -53 12 5 -10 7 -24
5 -31 -3 -7 1 -10 11 -6 9 4 18 0 22 -9 6 -16 59 -17 83 -3 6 4 14 0 17 -8 3
-9 12 -16 20 -16 10 0 14 -12 14 -37 0 -30 -5 -40 -25 -49 -19 -9 -28 -9 -45
3 -14 10 -39 14 -77 11 -56 -3 -57 -3 -84 37 -16 22 -28 50 -29 61 0 29 -23
36 -55 20 -24 -13 -65 -11 -65 2 0 3 15 28 34 56 35 52 54 120 37 130 -12 8
-87 -68 -103 -104 -7 -16 -15 -27 -19 -24 -4 2 -15 -9 -25 -24 -9 -15 -26 -33
-36 -40 -10 -7 -18 -21 -18 -31 0 -21 -51 -36 -61 -19 -4 5 -9 3 -12 -6 -9
-24 -47 -20 -47 4 0 11 -7 23 -15 26 -8 4 -15 12 -15 19 0 8 -5 17 -12 21 -8
5 -9 2 -5 -9 5 -14 0 -17 -23 -17 -19 0 -30 5 -30 14 0 8 -9 18 -20 21 -15 5
-19 12 -15 26 5 13 2 19 -10 19 -8 0 -27 7 -41 16 -13 9 -27 14 -31 10 -3 -3
-12 -1 -19 5 -17 14 -34 3 -34 -22 0 -11 5 -17 10 -14 12 8 13 -7 2 -20 -5 -6
-6 -21 -1 -35 4 -14 7 -19 8 -12 1 7 5 11 9 8 5 -3 19 4 32 16 19 18 60 33 60
22 0 -16 -16 -34 -30 -34 -9 0 -25 -9 -34 -19 -17 -18 -17 -20 1 -39 47 -53
52 -62 28 -62 -8 0 -15 6 -15 13 0 8 -3 9 -8 1 -4 -6 -19 -14 -34 -17 -15 -4
-33 -14 -41 -22 -16 -16 -194 -27 -203 -13 -3 5 0 8 5 8 18 0 12 24 -8 37 -16
10 -20 9 -25 -10 -3 -11 0 -28 7 -36 10 -12 9 -14 -7 -8 -13 5 -17 3 -13 -7 4
-10 -2 -13 -29 -9 -23 3 -39 -1 -50 -12 -15 -15 -18 -15 -34 0 -14 13 -23 14
-39 6 -22 -12 -25 -9 -35 31 -6 26 -5 27 41 30 36 2 49 7 51 20 3 15 -2 17
-27 12 -20 -4 -31 -2 -31 5 0 6 11 11 25 11 29 0 29 1 14 34 -10 20 -15 23
-30 16 -10 -6 -20 -6 -23 -1 -9 13 -46 1 -46 -15 0 -11 -7 -13 -28 -8 -23 6
-25 5 -15 -8 7 -8 10 -18 6 -22 -4 -3 2 -12 12 -20 20 -15 11 -41 -11 -32 -8
3 -14 1 -14 -4 0 -6 -9 -10 -19 -10 -14 0 -18 -5 -14 -20 4 -14 14 -20 34 -20
16 0 29 -5 29 -11 0 -5 -4 -7 -10 -4 -10 6 -14 -6 -11 -37 3 -23 -13 -30 -81
-36 -48 -4 -60 -2 -56 9 2 7 15 16 29 19 69 17 -128 21 -209 4 -13 -2 -20 -9
-17 -14 11 -19 -8 -10 -26 12 -11 11 -19 30 -20 42 0 18 -3 17 -13 -8 -11 -23
-14 -25 -19 -11 -4 9 -7 31 -7 48 0 51 -13 61 -40 32 -13 -14 -29 -25 -37 -25
-7 0 -13 -7 -13 -16 0 -29 21 -54 45 -54 40 0 29 -16 -20 -30 -25 -7 -45 -18
-45 -24 0 -6 -20 -20 -45 -32 -39 -18 -45 -19 -46 -5 0 10 -2 12 -6 4 -2 -7
-11 -13 -18 -13 -15 0 -37 -84 -28 -107 3 -7 0 -13 -6 -13 -6 0 -11 -13 -11
-30 0 -16 3 -30 6 -30 15 0 33 37 34 67 0 17 4 35 10 38 6 4 10 -17 10 -54 0
-68 -1 -67 92 -62 42 3 49 -5 16 -18 -19 -7 -14 -12 42 -40 35 -18 100 -44
144 -58 131 -41 180 -30 461 107 33 16 79 32 102 35 24 4 45 11 49 16 7 12 34
12 34 -1 0 -5 -9 -10 -19 -10 -11 0 -26 -7 -35 -15 -8 -9 -19 -14 -23 -13 -14
4 -63 -48 -63 -67 0 -10 -3 -15 -7 -12 -3 4 -13 1 -22 -7 -18 -16 -214 -123
-347 -189 -150 -75 -364 -159 -389 -153 -13 3 -32 22 -44 41 -24 41 -66 62
-87 44 -17 -14 -18 -36 -1 -42 7 -4 6 -6 -4 -6 -27 -1 -40 -51 -14 -51 18 0
18 1 4 -39 -6 -17 -17 -31 -25 -31 -21 0 -17 -21 6 -27 26 -7 25 -13 -5 -42
-26 -24 -32 -46 -16 -55 5 -3 12 -26 16 -51 5 -36 10 -45 23 -43 12 3 16 13
15 32 -1 17 2 26 10 23 14 -4 77 75 77 98 0 9 20 38 45 64 25 26 45 53 45 60
0 14 17 15 25 1 4 -6 15 -8 26 -5 11 4 19 2 19 -4 0 -6 -4 -11 -10 -11 -5 0
-10 -4 -10 -9 0 -4 11 -6 25 -4 22 5 24 3 16 -23 -4 -16 -5 -39 -2 -51 5 -19
8 -20 25 -7 17 12 18 14 3 14 -9 0 -17 4 -17 10 0 5 6 7 14 4 9 -3 20 4 27 18
7 13 19 28 28 35 14 11 14 13 -3 26 -23 17 -13 37 19 37 13 0 39 9 57 19 34
20 88 26 88 10 0 -5 11 -19 25 -31 26 -22 34 -51 12 -43 -8 3 -12 -5 -13 -24
-1 -23 4 -30 23 -34 22 -4 24 -2 18 20 -10 41 28 72 40 33 3 -11 14 -20 23
-20 9 0 25 -14 34 -31 10 -17 22 -27 28 -24 5 3 10 -3 10 -14 0 -12 7 -21 15
-21 20 0 19 -5 -6 -39 -14 -19 -27 -27 -40 -24 -10 3 -26 -2 -34 -11 -23 -23
-29 -20 -51 19 -12 22 -28 36 -46 40 -15 4 -28 11 -28 17 0 5 -7 16 -15 24
-13 14 -15 13 -15 -5 0 -12 -6 -21 -15 -21 -8 0 -15 -4 -15 -10 0 -5 7 -10 15
-10 8 0 15 -9 15 -20 0 -11 -5 -20 -10 -20 -20 0 -70 44 -70 61 0 10 -6 20
-12 22 -19 8 11 27 42 27 18 0 31 9 43 29 25 42 22 51 -13 41 -17 -5 -39 -7
-49 -5 -28 5 -43 -10 -47 -46 -2 -18 -10 -37 -17 -42 -9 -7 -9 -10 1 -14 16
-6 15 -52 -2 -72 -16 -19 -36 -90 -43 -150 -4 -32 -10 -45 -24 -48 -10 -3 -19
-9 -19 -13 0 -5 -7 -16 -17 -25 -13 -13 -14 -18 -3 -25 7 -4 10 -15 7 -25 -4
-9 -11 -14 -16 -10 -6 3 -6 -7 -1 -27 6 -17 8 -33 6 -35 -6 -6 -76 104 -76
120 0 9 -5 19 -12 23 -8 5 -9 0 -5 -16 4 -16 0 -28 -14 -39 -17 -13 -19 -21
-10 -43 8 -23 7 -27 -12 -32 -17 -4 -19 -8 -9 -18 6 -6 12 -20 12 -30 0 -20
-28 -20 -54 1 -8 7 -20 10 -26 6 -13 -8 -10 -75 4 -75 5 0 -4 -12 -19 -26
l-28 -26 42 -39 c45 -42 64 -49 55 -21 -5 14 -4 15 5 2 6 -8 11 -22 11 -31 0
-21 35 -52 52 -47 16 6 37 -20 38 -46 0 -12 -5 -16 -15 -12 -16 6 -19 -2 -7
-20 14 -21 41 -24 52 -4 20 37 12 75 -22 100 -17 13 -38 23 -45 23 -7 0 -13 2
-13 4 0 8 26 49 35 55 5 4 6 10 2 14 -3 4 -13 1 -22 -6 -12 -10 -16 -9 -22 5
-4 11 0 22 10 30 10 7 17 17 17 22 0 6 7 16 15 23 19 16 19 30 1 30 -9 0 -12
8 -9 24 4 17 -2 28 -18 40 -13 8 -20 19 -16 22 4 4 15 1 24 -7 15 -11 15 -10
-1 9 -26 31 -8 50 22 24 22 -19 32 -59 12 -47 -14 9 -13 -18 2 -33 7 -7 17 -8
30 -1 23 12 24 -3 2 -26 -9 -8 -14 -22 -11 -30 3 -7 1 -16 -6 -18 -8 -3 -4
-11 11 -22 12 -9 22 -27 22 -40 0 -13 5 -27 11 -30 6 -4 8 -14 5 -22 -3 -8 0
-20 7 -27 10 -11 15 -11 27 3 25 27 80 62 80 51 0 -15 113 -12 135 4 11 8 34
11 60 9 29 -4 44 -1 54 11 7 9 21 16 30 16 13 0 13 2 2 9 -10 7 -11 13 -2 30
15 28 74 28 119 1 18 -11 40 -20 50 -20 24 1 91 39 72 41 -8 1 -19 3 -25 3
-40 5 -48 56 -12 75 12 7 46 13 74 14 29 2 55 6 59 10 4 4 20 7 35 7 15 0 30
6 32 13 3 7 6 4 6 -6 1 -10 -6 -31 -14 -47 -27 -52 -15 -60 136 -85 20 -3 65
-17 99 -31 34 -14 68 -23 75 -20 12 4 27 101 25 160 0 16 -8 34 -16 41 -9 6
-22 33 -29 60 -12 49 -39 79 -53 60 -11 -16 -78 -13 -74 4 5 22 -7 47 -42 92
-19 23 -32 48 -29 55 3 9 -15 22 -49 38 -50 23 -54 28 -51 53 3 22 -1 31 -24
44 -26 15 -30 14 -65 -5 -41 -23 -49 -51 -21 -71 12 -9 17 -25 16 -55 -1 -23
1 -40 4 -36 3 3 19 -2 34 -11 21 -12 27 -23 23 -36 -3 -10 0 -24 6 -32 8 -10
9 -15 2 -15 -16 0 6 -57 24 -64 19 -7 18 -23 -5 -47 l-19 -20 -14 28 c-23 45
-42 73 -50 73 -4 0 -19 10 -33 22 -27 23 -33 48 -12 48 14 0 17 43 4 56 -4 5
-5 1 -1 -9 8 -22 -8 -22 -36 1 -19 15 -21 22 -11 40 15 28 16 26 -24 67 -30
32 -32 39 -22 57 9 16 9 22 0 25 -7 3 -13 11 -13 19 0 10 -7 13 -25 8 -16 -4
-25 -2 -25 6 0 7 -14 25 -30 40 -35 33 -37 43 -11 69 20 20 33 67 32 117 -1
26 6 34 41 54 27 15 43 19 46 12 5 -16 32 -2 32 17 0 22 19 41 42 41 11 0 25
14 35 35 17 35 36 45 48 24 4 -6 13 -8 21 -5 8 3 20 -3 26 -14 18 -28 48 -26
45 2 -1 17 4 24 21 26 12 2 22 -1 22 -7 0 -7 16 -10 41 -8 22 2 42 0 45 -5 7
-12 42 -10 83 4 40 14 51 25 44 44 -7 18 54 15 69 -3 9 -11 9 -19 0 -34 -23
-36 -10 -69 28 -69 4 0 11 22 15 49 5 36 12 50 25 54 10 3 21 2 24 -1 10 -9 7
-60 -6 -87 -14 -30 -2 -47 16 -22 7 9 20 17 28 17 17 0 50 -44 55 -71 3 -18
-18 -41 -33 -38 -20 5 -64 -22 -65 -38 -3 -39 -16 -73 -30 -73 -4 0 -20 11
-35 25 -34 32 -41 31 -49 -4 -3 -16 -19 -42 -35 -57 -32 -31 -38 -54 -16 -54
23 0 31 -22 13 -35 -10 -7 -17 -19 -17 -27 0 -15 -19 -38 -32 -38 -4 0 -8 7
-8 17 0 9 -3 13 -6 10 -4 -3 -15 -2 -25 4 -17 8 -18 6 -13 -21 4 -19 2 -30 -5
-30 -6 0 -11 4 -11 8 0 4 -9 8 -20 9 -31 3 -24 -13 16 -36 24 -14 44 -19 58
-15 23 8 48 12 84 13 18 1 22 7 22 34 0 20 9 44 20 57 11 13 20 29 20 36 0 7
15 17 33 23 29 10 33 15 29 39 -5 35 33 97 69 114 15 6 33 22 40 34 l14 23 46
-23 c51 -24 50 -40 -4 -63 -15 -7 -32 -24 -37 -38 -6 -15 -20 -27 -37 -31 -37
-9 -53 -22 -53 -45 0 -11 -4 -19 -10 -19 -5 0 -10 -14 -10 -30 0 -18 -6 -33
-15 -36 -12 -5 -13 -10 -4 -20 16 -20 -6 -44 -42 -44 -32 0 -42 -11 -33 -35 6
-14 17 -16 71 -12 47 4 66 2 69 -8 3 -8 23 -13 52 -13 119 0 167 -7 185 -25
11 -11 25 -16 34 -12 9 3 20 1 23 -6 6 -8 20 -8 54 -1 35 7 46 7 46 -3 0 -7
14 -18 31 -26 30 -12 33 -11 53 12 12 13 29 23 39 21 10 -2 17 3 17 12 0 10 9
16 25 16 20 0 25 -5 25 -26 0 -21 -4 -25 -20 -21 -11 3 -20 1 -20 -5 0 -5 -4
-6 -10 -3 -6 3 -7 -1 -4 -9 3 -9 1 -16 -5 -16 -6 0 -11 -4 -11 -10 0 -5 7 -10
15 -10 8 0 15 -4 15 -10 0 -13 34 -12 92 3 58 16 85 37 46 37 -18 0 -27 7 -31
21 -3 12 -12 19 -19 17 -17 -6 -38 16 -38 40 0 11 -6 23 -12 26 -9 4 -6 10 10
22 12 9 22 26 22 38 0 12 13 34 28 49 26 25 31 26 60 15 25 -10 31 -18 30 -38
-4 -59 1 -80 19 -73 14 6 15 1 9 -33 -9 -45 -9 -74 -2 -82 9 -9 56 20 56 35 0
7 9 13 21 13 11 0 28 7 36 16 9 8 24 14 33 11 10 -2 31 6 46 18 25 20 27 25
15 39 -15 18 -9 32 8 21 24 -14 11 -54 -30 -87 -23 -18 -56 -46 -75 -62 -19
-16 -37 -26 -40 -23 -3 3 -19 -6 -36 -21 -26 -24 -28 -28 -13 -39 16 -11 16
-13 -2 -36 -34 -46 -119 -55 -95 -11 9 18 5 19 -54 20 -35 0 -64 -3 -64 -8 0
-4 -5 -8 -11 -8 -15 0 -39 -26 -39 -44 0 -19 35 -44 128 -90 40 -20 81 -45 92
-56 23 -23 30 -14 34 45 1 24 9 52 18 62 9 10 25 37 37 60 12 24 25 43 29 43
5 0 19 -18 31 -41 17 -30 24 -60 26 -112 3 -65 6 -73 31 -91 20 -15 47 -22 89
-23 54 -3 64 0 85 22 19 21 21 25 7 25 -26 0 -20 20 6 21 12 1 28 1 35 0 19
-3 15 18 -19 97 -40 95 -43 151 -10 168 32 16 61 5 86 -34 11 -17 28 -34 39
-38 10 -3 27 -26 38 -50 10 -25 33 -61 50 -80 29 -33 31 -38 25 -99 -4 -38 -2
-67 4 -70 5 -4 1 -14 -10 -23 -33 -30 -49 -142 -20 -142 16 0 4 -106 -14 -124
-21 -21 -23 -33 -3 -17 10 8 16 9 21 1 10 -16 23 -12 21 7 0 10 8 19 19 21 31
6 77 53 65 67 -6 8 2 23 26 48 20 20 39 37 43 37 4 0 18 18 30 40 33 59 58 82
206 185 128 90 196 98 207 25 3 -22 7 -24 33 -20 85 14 151 5 216 -28 73 -38
174 -57 151 -29 -12 14 -10 17 15 22 15 4 34 8 41 11 7 2 21 -5 32 -16 16 -16
19 -33 19 -107 0 -49 3 -96 6 -105 4 -10 -2 -25 -14 -37 -12 -12 -21 -23 -21
-26 0 -2 27 6 60 17 50 18 60 26 60 45 0 29 9 29 57 1 20 -13 66 -30 100 -39
59 -15 63 -14 58 1 -7 23 15 40 62 47 21 3 52 14 68 23 17 10 47 21 68 25 20
4 37 11 37 16 0 4 16 11 35 15 19 3 39 12 46 20 18 22 26 16 21 -16 -6 -39 4
-39 139 6 98 32 109 38 120 67 7 18 13 39 14 48 1 9 10 27 20 40 14 19 16 20
10 4 -4 -11 -8 -32 -9 -46 -1 -14 -9 -33 -18 -43 -25 -24 -22 -36 6 -36 35 0
56 -10 56 -26 0 -8 7 -17 15 -20 19 -8 19 -33 0 -58 -22 -29 -19 -43 20 -83
38 -39 48 -80 18 -68 -35 13 -68 15 -83 5 -13 -9 -12 -12 5 -26 19 -15 19 -15
-10 -13 -38 3 -98 -20 -92 -35 3 -6 10 -69 18 -138 17 -174 -2 -259 -83 -360
-25 -30 -123 -87 -133 -76 -1 2 -5 15 -9 31 -5 20 -3 27 8 27 8 0 17 -8 19
-18 4 -14 6 -14 12 6 4 12 13 22 21 22 7 0 11 6 8 14 -8 20 16 63 26 47 4 -7
6 9 5 34 0 26 5 54 12 63 7 9 12 26 13 37 0 14 -3 16 -8 8 -5 -7 -7 12 -5 42
2 46 -1 55 -17 60 -20 6 -60 -10 -60 -24 0 -5 -29 -6 -65 -3 -42 3 -70 1 -79
-7 -11 -9 -14 -8 -12 6 0 9 -7 19 -16 21 -12 2 -16 -1 -12 -11 6 -18 -12 -32
-21 -17 -4 6 -11 8 -16 5 -5 -4 -9 2 -9 13 0 14 -6 19 -24 17 -14 -2 -27 3
-30 11 -7 17 -24 18 -59 2 -29 -14 -36 -28 -13 -28 14 0 32 -48 21 -58 -3 -3
-5 2 -5 12 0 9 -4 14 -10 11 -5 -3 -10 0 -11 7 0 10 -2 10 -6 -1 -5 -11 -7
-11 -14 0 -7 11 -9 10 -9 -3 0 -9 5 -20 10 -23 6 -3 10 -11 10 -17 0 -7 -6 -6
-15 2 -8 7 -15 19 -15 26 0 8 -4 14 -10 14 -6 0 -6 -9 0 -25 7 -19 6 -23 -5
-18 -8 3 -16 15 -16 27 -1 16 -2 17 -6 4 -2 -10 -9 -18 -14 -18 -5 0 -9 -6 -9
-14 0 -8 -6 -16 -12 -19 -9 -3 -8 -10 6 -26 11 -11 14 -21 8 -21 -6 0 -13 -10
-15 -22 -3 -17 -5 -15 -6 9 0 17 -5 34 -10 37 -4 3 -6 17 -3 31 2 15 0 25 -7
25 -6 0 -11 -9 -11 -19 0 -10 -7 -21 -14 -24 -11 -4 -13 -1 -9 11 6 14 4 15
-9 4 -8 -7 -23 -10 -32 -6 -9 3 -16 1 -16 -5 0 -6 8 -11 18 -12 14 0 14 -2 -3
-8 -11 -5 -23 -7 -27 -4 -5 2 -8 -3 -8 -11 0 -9 -4 -16 -10 -16 -5 0 -7 13 -3
32 4 22 3 29 -6 24 -6 -4 -9 -11 -6 -16 3 -5 0 -21 -6 -37 l-12 -28 -8 25 c-5
17 -7 4 -5 -37 2 -35 0 -63 -4 -63 -12 0 -19 37 -8 48 17 17 -43 64 -73 58
-28 -5 -59 20 -51 43 3 8 0 11 -7 7 -6 -4 -11 -18 -11 -32 0 -13 -4 -24 -10
-24 -5 0 -9 3 -8 8 0 4 -2 15 -6 24 -10 22 -26 14 -26 -13 0 -10 -4 -19 -8
-19 -5 0 -14 -10 -20 -22 -6 -13 -11 -17 -11 -10 -1 7 -5 11 -10 8 -5 -4 -12
7 -16 24 -8 34 -12 36 -51 15 -26 -13 -30 -13 -41 1 -10 13 -14 12 -37 -13
-21 -22 -26 -24 -26 -10 0 9 -7 17 -15 17 -8 0 -15 -4 -15 -10 0 -5 4 -10 10
-10 14 0 0 -29 -20 -40 -14 -8 -16 -5 -12 15 2 15 0 25 -7 25 -6 0 -11 -8 -11
-19 0 -22 -33 -33 -65 -21 -13 5 -25 7 -27 5 -2 -2 -3 10 -2 28 1 18 -1 22 -3
10 -4 -19 -8 -21 -29 -13 -13 5 -24 6 -25 2 0 -4 -4 2 -9 13 -8 18 -9 18 -9
-5 -1 -20 -3 -22 -11 -10 -9 13 -11 13 -19 0 -5 -8 -7 -18 -5 -22 3 -4 0 -8
-6 -8 -6 0 -9 -8 -6 -18 4 -10 -1 -27 -10 -38 -14 -18 -15 -18 -4 4 10 19 8
27 -7 45 -18 20 -17 20 2 13 15 -5 17 -4 8 5 -18 18 -35 2 -22 -22 5 -11 8
-25 5 -32 -2 -7 -5 -4 -5 5 -1 11 -6 15 -16 12 -11 -5 -13 -2 -9 10 3 9 2 16
-4 16 -6 0 -12 -5 -14 -12 -3 -8 -12 -5 -27 9 -13 12 -21 25 -18 30 3 5 -3 14
-14 21 -23 15 -23 12 -5 -24 20 -37 10 -50 -15 -22 l-20 23 13 -22 c10 -18 10
-25 0 -35 -9 -9 -12 -9 -12 1 0 7 -4 10 -9 6 -5 -3 -13 0 -17 6 -9 15 -24 -9
-24 -39 0 -14 -4 -21 -11 -16 -6 4 -8 20 -4 40 7 39 -1 45 -15 11 -8 -21 -9
-20 -10 8 -1 17 -4 24 -7 18 -2 -7 -9 -13 -14 -13 -6 0 -7 4 -4 10 3 5 0 7 -8
4 -8 -3 -14 -13 -13 -22 0 -9 -4 -16 -11 -15 -6 1 -14 -4 -17 -12 -7 -18 -2
-19 23 -3 19 12 51 5 51 -10 0 -5 -12 -9 -27 -8 -21 1 -29 -5 -34 -24 -7 -25
-7 -25 -8 -2 -1 15 -9 26 -21 29 -16 4 -18 8 -9 19 9 11 9 14 0 14 -7 0 -9 5
-5 11 4 7 -1 10 -12 7 -14 -2 -19 -11 -17 -35 1 -20 -4 -34 -14 -37 -11 -4
-13 -2 -9 9 3 9 0 15 -10 15 -8 0 -12 5 -9 10 3 6 1 10 -4 10 -6 0 -11 -7 -11
-15 0 -10 -6 -12 -17 -8 -15 6 -16 4 -6 -9 19 -22 4 -29 -23 -11 -22 14 -24
14 -24 0 0 -9 -5 -19 -12 -23 -7 -5 -9 0 -6 14 4 13 0 26 -9 34 -14 11 -15 10
-10 -12 4 -14 4 -19 1 -12 -8 17 -24 15 -24 -3 0 -8 5 -15 11 -15 15 0 7 -43
-9 -46 -7 -1 -8 0 -2 3 12 6 13 30 1 38 -5 3 -17 -2 -25 -11 -9 -8 -16 -12
-16 -7 0 11 -20 -20 -20 -32 0 -5 4 -3 10 5 5 8 12 11 17 7 4 -5 3 -11 -3 -15
-6 -4 -14 -14 -17 -22 -4 -12 -6 -11 -6 3 -1 21 -21 23 -21 2 0 -8 -2 -15 -4
-15 -2 0 -13 -3 -23 -7 -16 -5 -16 -3 3 18 13 14 21 37 21 57 0 18 -4 28 -8
21 -4 -6 -11 -9 -17 -5 -11 6 -22 -16 -22 -42 1 -15 3 -14 15 2 8 11 17 17 20
14 3 -3 -1 -13 -10 -22 -18 -18 -53 -16 -65 3 -5 9 -10 10 -14 2 -4 -6 -2 -11
4 -11 6 0 9 -4 5 -9 -3 -5 0 -13 6 -16 11 -8 -33 -35 -57 -35 -8 0 -14 -7 -14
-16 0 -8 -4 -13 -9 -10 -5 3 -8 14 -6 24 1 9 0 11 -2 5 -3 -7 -9 -13 -14 -13
-6 0 -17 -6 -25 -14 -11 -12 -12 -20 -2 -41 9 -19 9 -28 0 -37 -9 -9 -12 -9
-12 0 0 7 -4 12 -9 12 -4 0 -6 -12 -3 -26 5 -28 -10 -44 -42 -44 -19 0 -19 0
-1 14 17 12 18 15 3 30 -23 23 -28 20 -28 -14 0 -16 -4 -30 -10 -30 -15 0 -8
53 9 66 12 9 11 12 -3 17 -9 4 -14 3 -11 -2 3 -5 1 -12 -5 -16 -5 -3 -10 -19
-10 -34 0 -20 -6 -30 -20 -34 -11 -3 -18 -1 -15 3 3 5 1 11 -4 14 -5 4 -12 2
-16 -4 -3 -5 -16 -10 -28 -10 -20 1 -20 2 -5 13 12 10 14 17 6 31 -5 9 -7 24
-4 32 5 12 2 12 -15 4 -16 -9 -18 -14 -9 -25 18 -21 3 -55 -23 -52 -12 1 -25
7 -29 12 -5 6 -8 5 -8 -2 0 -8 -13 -13 -32 -12 l-33 1 28 11 c31 12 31 30 -1
35 -11 2 -23 11 -26 20 -3 9 -4 5 -2 -10 4 -38 -15 -64 -40 -53 -10 5 -26 9
-34 9 -8 1 -17 14 -21 31 l-6 30 -11 -27 c-14 -34 -22 -38 -77 -43 -42 -3 -44
-2 -35 16 6 11 7 19 2 19 -6 0 -12 -9 -15 -19 -4 -17 -12 -19 -68 -14 -45 4
-71 12 -88 27 -22 19 -24 19 -17 2 6 -18 2 -19 -96 -13 -107 6 -479 52 -701
86 -133 21 -239 50 -395 109 -156 59 -243 151 -273 292 l-11 51 -24 -24 c-22
-23 -64 -42 -64 -30 0 2 16 36 35 74 37 74 41 101 24 162 -8 32 -14 37 -39 37
-15 0 -35 3 -43 6 -11 4 -17 -5 -22 -38 -11 -64 -43 -144 -72 -178 l-25 -30
-34 30 c-19 16 -40 30 -47 30 -7 0 -28 13 -46 28 -30 25 -34 34 -35 82 -2 47
-6 56 -31 74 -59 42 -83 73 -98 126 -26 94 -28 153 -7 187 23 38 25 56 16 115
-5 29 -4 60 3 81 11 33 10 38 -25 84 -47 62 -60 91 -47 104 14 14 104 -49 122
-86 39 -82 71 -125 93 -125 22 0 22 11 -1 126 -25 132 -2 710 32 784 12 28 26
39 66 54 28 10 54 22 57 28 4 5 -5 31 -19 57 -15 26 -38 85 -53 131 -22 71
-25 95 -20 150 19 187 20 224 2 217 -12 -5 -16 0 -16 18 0 35 18 75 33 75 32
0 117 143 117 195 0 15 10 31 26 42 47 32 94 88 94 111 0 43 58 132 85 132 7
0 20 9 30 20 23 26 35 25 35 -1 0 -11 4 -18 9 -15 4 3 6 25 4 49 -6 61 16 86
85 94 36 4 52 2 52 -6 0 -22 30 -11 36 14 7 30 31 45 71 45 22 0 33 8 48 36
21 39 78 94 98 94 7 0 21 -10 31 -21 l18 -21 11 22 c13 25 23 31 76 51 18 7
45 22 60 34 33 27 101 48 164 49 40 1 50 5 60 25 19 39 42 48 66 27 17 -15 25
-16 55 -6 20 6 36 16 36 21 0 6 17 17 38 26 20 8 41 22 45 30 6 10 22 13 49
12 30 -3 42 1 50 14 7 14 17 16 42 11 28 -5 34 -2 39 16 4 16 11 20 25 16 11
-4 24 0 31 8 20 24 69 30 95 12 13 -8 33 -12 45 -9 12 3 21 1 21 -6 0 -17 67
-13 95 5 15 10 34 14 49 10 18 -4 32 2 61 29 20 19 41 32 47 29 5 -4 21 -1 34
6 19 10 32 11 63 2 21 -7 68 -12 104 -12 36 0 68 -4 72 -9 3 -5 48 -9 100 -9
l94 1 -6 29 c-7 34 2 35 47 5z m898 -1171 c-7 -8 -15 -12 -17 -11 -5 6 10 25
20 25 5 0 4 -6 -3 -14z m86 -103 c5 -11 1 -22 -11 -30 -10 -7 -22 -16 -28 -20
-17 -13 -68 -12 -88 2 -17 12 -17 14 10 32 52 37 107 44 117 16z m93 -56 c-7
-5 -3 -6 11 -2 12 3 22 2 22 -3 0 -17 -28 -21 -47 -7 -10 9 -13 14 -5 15 6 0
12 8 12 18 0 14 2 15 10 2 6 -9 5 -17 -3 -23z m-2277 3 c0 -5 -5 -10 -11 -10
-5 0 -7 5 -4 10 3 6 8 10 11 10 2 0 4 -4 4 -10z m2261 -42 c5 -10 6 -18 1 -18
-5 0 -14 11 -20 25 -22 49 -11 44 19 -7z m-104 5 c4 -10 -37 -26 -45 -18 -3 3
1 12 8 20 14 17 31 16 37 -2z m-2052 -23 c3 -5 -1 -10 -9 -10 -9 0 -16 5 -16
10 0 6 4 10 9 10 6 0 13 -4 16 -10z m1266 -56 c-4 -18 -15 -30 -28 -32 -19 -3
-20 -1 -9 33 6 20 16 33 23 31 7 -3 10 1 7 12 -5 15 -4 15 5 1 6 -9 7 -28 2
-45z m-986 26 c3 -5 1 -10 -4 -10 -6 0 -11 5 -11 10 0 6 2 10 4 10 3 0 8 -4
11 -10z m2461 -136 c-3 -8 -1 -14 4 -14 5 0 7 -6 4 -13 -6 -15 85 -43 191 -58
33 -5 94 -18 135 -30 73 -20 158 -35 132 -23 -17 8 -42 70 -42 103 0 15 -5 32
-12 39 -9 9 -9 12 0 12 15 0 61 -50 62 -66 0 -6 9 -19 19 -28 27 -25 35 -63
17 -82 -13 -12 -23 -13 -57 -4 -94 26 -179 38 -179 26 0 -7 -3 -6 -9 2 -4 7
-12 12 -17 11 -5 -1 -16 0 -24 3 -41 15 -132 39 -192 49 -63 12 -83 22 -58 31
6 2 11 17 13 35 1 17 6 29 10 26 5 -3 6 -11 3 -19z m-3368 0 c-9 -9 -21 -13
-27 -9 -16 10 -3 25 22 25 20 0 20 -1 5 -16z m-238 -25 c0 -5 -7 -9 -15 -9
-15 0 -20 12 -9 23 8 8 24 -1 24 -14z m-365 -68 c-3 -6 -11 -11 -17 -11 -6 0
-6 6 2 15 14 17 26 13 15 -4z m-116 -43 c-9 -17 -14 -19 -17 -8 -3 7 0 16 7
18 6 2 11 11 12 20 0 10 3 12 5 5 3 -7 0 -22 -7 -35z m161 14 c0 -5 -9 -17
-20 -27 -16 -14 -20 -15 -20 -4 0 16 19 39 32 39 4 0 8 -4 8 -8z m-124 -49
c-11 -11 -19 6 -11 24 8 17 8 17 12 0 3 -10 2 -21 -1 -24z m3113 -18 c38 -8
109 -32 158 -54 97 -43 140 -57 223 -72 30 -5 78 -14 105 -19 152 -27 240 -32
357 -18 115 13 134 13 332 -11 95 -12 102 -14 91 -30 -11 -19 -117 -13 -152 9
l-32 19 -47 -44 c-66 -61 -116 -78 -436 -145 -73 -16 -108 -27 -108 -37 0 -9
-17 -13 -61 -13 -66 0 -181 -23 -241 -48 -45 -18 -189 -12 -278 13 -72 19 -70
20 -70 -15 0 -23 -5 -30 -19 -30 -11 0 -22 4 -25 9 -8 13 -89 -7 -102 -24 -10
-13 -84 -22 -84 -10 0 2 5 15 12 29 13 29 28 36 97 41 81 6 94 24 36 52 -19 9
-35 20 -35 23 0 8 -89 23 -137 23 -30 0 -32 2 -18 17 22 24 18 33 -10 28 -13
-3 -22 -1 -19 4 6 10 -24 23 -33 14 -3 -3 0 -12 7 -21 10 -12 10 -18 0 -29
-14 -18 -41 -10 -33 10 3 9 -1 14 -11 14 -9 0 -20 -8 -23 -17 -4 -10 -11 -21
-17 -25 -8 -5 -7 -14 2 -28 18 -30 12 -129 -11 -168 -24 -42 -53 -58 -61 -35
-5 12 -9 14 -18 5 -7 -7 -20 -12 -29 -12 -20 0 -69 -54 -69 -76 0 -8 -6 -14
-12 -13 -18 3 -51 -12 -63 -29 -8 -10 -14 -6 -28 22 -9 20 -22 36 -28 36 -7 0
-9 11 -6 30 4 16 2 32 -3 35 -6 3 -10 -2 -10 -13 0 -22 -9 -34 -22 -26 -5 3
-4 12 3 20 9 11 8 18 -1 29 -11 13 -11 20 0 40 10 18 11 31 3 48 -8 17 -7 28
2 40 7 10 15 35 19 56 4 28 12 41 33 50 24 11 25 14 11 22 -9 5 -30 11 -47 13
-17 2 -37 9 -45 15 -12 10 -44 6 -56 -8 -5 -6 -33 -23 -92 -55 -21 -11 -40
-28 -44 -39 -5 -15 -12 -17 -45 -12 -32 6 -39 4 -39 -10 0 -12 -6 -15 -19 -10
-14 4 -23 0 -31 -16 -11 -20 -10 -40 3 -96 6 -25 -2 -30 -20 -12 -17 17 -45
-79 -30 -103 9 -13 9 -23 1 -35 -18 -29 -34 -26 -40 6 -4 16 -12 32 -20 35
-20 8 -19 76 1 76 19 0 43 42 26 48 -6 2 -11 10 -11 18 0 9 -4 13 -9 10 -5 -3
-7 -14 -4 -25 2 -10 -3 -25 -11 -34 -9 -8 -16 -31 -16 -49 0 -39 -13 -63 -29
-53 -9 5 -8 13 4 32 9 13 14 30 11 36 -2 7 -8 2 -11 -10 -4 -13 -12 -20 -18
-16 -5 3 -16 -2 -24 -13 -12 -16 -15 -17 -23 -4 -8 13 -10 12 -10 -2 0 -10 5
-18 10 -18 6 0 10 -7 10 -16 0 -12 -3 -14 -12 -6 -20 16 -80 23 -75 9 2 -7 12
-12 23 -12 10 0 20 -8 22 -18 3 -15 -1 -17 -30 -11 -18 3 -40 6 -48 6 -8 1
-20 5 -26 10 -6 4 -19 6 -28 2 -10 -4 -18 0 -22 10 -8 21 4 35 15 17 6 -9 13
-6 29 13 l20 26 10 -30 c6 -16 13 -30 15 -30 2 0 3 21 3 48 -1 38 2 46 15 44
13 -2 18 9 23 43 4 25 4 50 1 56 -4 6 2 13 14 16 21 5 30 23 11 23 -5 0 -10 7
-10 16 0 8 5 12 10 9 6 -3 10 -1 10 4 0 6 7 19 16 30 22 25 54 16 54 -16 0
-13 -4 -21 -10 -18 -5 3 -10 -3 -10 -15 0 -14 4 -19 13 -15 6 4 4 0 -5 -8 -10
-8 -18 -21 -18 -29 0 -8 -11 -21 -25 -28 -14 -7 -25 -23 -26 -34 0 -21 -1 -21
-9 -1 -7 16 -9 13 -9 -15 1 -19 3 -29 6 -22 2 6 9 10 14 6 5 -3 9 6 9 19 0 30
26 43 39 19 9 -15 10 -15 11 4 0 11 4 24 9 30 16 16 42 107 43 146 0 21 4 35
9 32 5 -3 12 2 15 10 3 9 14 16 24 16 10 0 21 7 24 16 3 8 10 13 15 9 5 -3 12
-1 16 5 11 17 46 -12 39 -33 -4 -14 -2 -18 12 -15 9 1 22 17 27 33 5 17 16 37
24 47 13 14 12 17 -4 27 -10 6 -12 11 -5 11 6 0 12 11 12 24 0 13 6 27 13 30
6 3 2 3 -9 1 -17 -4 -23 0 -26 20 -6 27 1 32 21 13 10 -11 15 -10 24 2 7 9 20
14 30 12 9 -2 17 1 17 7 0 15 63 -14 78 -37 12 -18 10 -19 -13 -16 -15 1 -32
10 -39 20 -12 16 -13 15 -19 -6 -3 -12 -10 -19 -16 -15 -7 3 -11 -2 -11 -14 0
-13 -7 -21 -17 -22 -15 0 -15 -2 2 -9 15 -6 24 -3 35 11 15 18 18 19 51 5 36
-15 36 -15 63 17 24 29 34 33 83 35 30 1 64 7 75 13 11 6 33 8 49 5 31 -6 37
2 17 22 -22 22 1 25 79 11 43 -8 116 -14 163 -13 75 0 102 6 235 52 201 68
214 70 324 47z m-2162 -31 c-3 -3 -12 -4 -19 -1 -8 3 -5 6 6 6 11 1 17 -2 13
-5z m3721 -2 c14 -10 -4 -82 -45 -175 -25 -56 -26 -58 -7 -72 10 -7 29 -11 40
-9 23 6 84 -20 84 -35 0 -5 13 -11 29 -14 20 -4 37 -20 57 -51 16 -25 34 -43
41 -41 18 6 21 -28 4 -48 -15 -18 -14 -21 12 -41 15 -12 27 -28 27 -36 0 -9
-6 -8 -22 7 -13 11 -36 25 -53 31 -28 10 -29 11 -8 17 11 4 23 15 26 26 6 21
-8 35 -18 19 -4 -6 -11 -8 -16 -5 -5 4 -9 1 -9 -5 0 -6 -13 -1 -30 12 -16 12
-30 28 -30 35 0 7 -4 13 -10 13 -16 0 -12 -56 5 -70 16 -13 19 -63 5 -95 -8
-19 -9 -18 -11 5 -3 24 -6 55 -8 74 -1 5 -7 3 -15 -3 -10 -9 -15 -8 -19 3 -3
8 -1 16 4 18 12 4 -18 68 -32 68 -14 0 -10 -43 6 -64 21 -28 19 -36 -10 -36
-22 0 -48 27 -44 47 3 12 -12 46 -29 65 -12 14 -17 15 -28 4 -17 -18 -62 -9
-77 15 -7 11 -16 19 -21 19 -5 0 -2 -8 7 -18 21 -23 21 -39 2 -58 -8 -9 -18
-27 -21 -42 -10 -46 -27 -78 -45 -88 -9 -5 -32 -21 -51 -36 -28 -23 -39 -26
-64 -19 -20 6 -28 13 -27 27 2 17 -10 86 -23 136 -3 9 -11 15 -19 12 -7 -3
-16 -1 -20 5 -3 6 -2 11 3 11 12 0 21 69 10 76 -4 3 -8 1 -8 -5 0 -7 -8 -7
-26 -1 -33 13 -32 14 -29 -15 3 -20 -1 -24 -18 -21 -36 6 -4 66 35 66 10 0 18
6 18 13 0 7 15 19 33 26 23 10 27 15 15 18 -9 2 -16 12 -15 23 1 18 19 17 44
-2 16 -13 26 -60 14 -67 -6 -4 -12 -22 -13 -41 -2 -26 1 -35 12 -35 9 0 14 7
12 19 -2 11 1 15 8 11 12 -8 55 10 78 33 18 16 41 15 48 -3 5 -13 9 -13 35 1
41 21 36 30 -16 29 -41 -1 -45 0 -45 23 0 22 3 24 34 19 34 -5 35 -5 31 24 -3
24 0 29 17 29 12 0 29 -6 37 -14 9 -7 27 -17 40 -21 21 -6 23 -5 19 13 -3 12
4 41 17 65 25 51 39 91 43 125 2 14 12 15 30 4z m-4118 -22 c-11 -21 -36 -26
-60 -10 -12 7 -10 11 10 19 14 5 33 10 43 10 15 1 16 -2 7 -19z m1132 -34 c16
-23 8 -75 -11 -86 -25 -13 -55 -69 -38 -71 7 -1 15 -1 20 0 13 2 7 -15 -13
-37 -22 -23 -40 -29 -40 -12 0 19 -18 10 -24 -12 -6 -23 -7 -23 -21 -4 -19 26
-19 52 1 68 40 32 64 62 64 79 0 11 -3 19 -6 19 -9 0 -34 -28 -34 -37 0 -5
-13 -20 -30 -35 -29 -26 -30 -26 -30 -5 -1 22 -1 22 -15 3 -14 -19 -15 -19
-15 7 0 15 -4 27 -10 27 -17 0 -11 55 8 70 35 29 67 43 102 47 19 2 36 6 38 8
6 6 45 -15 54 -29z m-243 -25 c-26 -33 -39 -38 -39 -17 0 14 51 58 59 51 2 -2
-7 -17 -20 -34z m-122 -25 c-12 -24 -22 -25 -22 -3 0 7 6 15 15 19 8 4 16 7
17 7 0 1 -4 -10 -10 -23z m129 -22 c-3 -9 -6 -20 -6 -25 0 -5 -7 -9 -15 -9
-18 0 -20 36 -2 43 23 10 29 7 23 -9z m394 -15 c0 -5 -4 -9 -8 -9 -5 0 -13 -9
-18 -20 -6 -12 -14 -17 -21 -12 -20 13 6 60 29 54 10 -2 18 -8 18 -13z m-70
-43 c0 -2 -7 -7 -16 -10 -8 -3 -12 -2 -9 4 6 10 25 14 25 6z m-50 -12 c0 -8
-19 -13 -24 -6 -3 5 1 9 9 9 8 0 15 -2 15 -3z m-113 -116 c-3 -8 -6 -5 -6 6
-1 11 2 17 5 13 3 -3 4 -12 1 -19z m1033 -7 c0 -6 -4 -13 -10 -16 -5 -3 -10 1
-10 9 0 9 5 16 10 16 6 0 10 -4 10 -9z m-2040 -24 c0 -29 -7 -37 -26 -30 -14
5 -19 35 -7 46 14 15 33 6 33 -16z m3065 -57 c9 -14 -9 -12 -24 3 -10 10 -11
8 -6 -8 6 -20 6 -20 -9 -1 -8 10 -13 23 -10 28 6 9 39 -6 49 -22z m-3147 -36
c12 -31 20 -60 17 -65 -9 -14 -75 70 -75 95 0 14 7 22 18 23 12 1 24 -14 40
-53z m2990 -26 c6 -23 15 -34 30 -36 23 -4 31 -35 12 -47 -6 -4 -10 -14 -8
-23 4 -24 -10 -42 -27 -36 -8 4 -29 -10 -49 -32 -34 -37 -35 -39 -15 -46 12
-5 23 -16 26 -26 2 -10 14 -19 25 -19 12 -1 26 -7 31 -12 13 -13 11 -69 -3
-86 -12 -14 -71 -37 -102 -40 -18 -2 -58 -41 -58 -57 0 -4 -9 -8 -19 -8 -10 0
-22 -7 -25 -16 -5 -12 -10 -14 -20 -5 -7 6 -15 8 -19 5 -3 -3 -15 0 -27 6 -17
9 -24 9 -30 1 -4 -8 -12 -5 -24 8 -15 17 -15 19 -1 25 9 3 13 2 10 -4 -3 -6 1
-10 9 -10 9 0 16 4 16 9 0 13 -27 21 -47 14 -17 -6 -17 -5 0 14 9 11 17 25 17
31 0 7 5 12 10 12 6 0 10 7 10 16 0 11 -6 14 -20 9 -16 -5 -20 -2 -20 14 0 23
15 28 24 9 3 -7 3 13 0 45 -5 44 -2 68 11 96 17 38 17 39 -8 63 -18 18 -23 32
-20 51 6 31 11 33 28 10 11 -15 14 -13 29 19 17 34 18 35 67 30 41 -4 54 -1
72 16 19 18 37 23 94 31 7 0 16 -14 21 -31z m-3548 -9 c0 -16 -20 -49 -30 -49
-5 0 -4 13 1 30 11 29 29 41 29 19z m190 1 c0 -5 -5 -10 -11 -10 -5 0 -7 5 -4
10 3 6 8 10 11 10 2 0 4 -4 4 -10z m3050 -20 c0 -5 -7 -10 -16 -10 -8 0 -12 5
-9 10 3 6 10 10 16 10 5 0 9 -4 9 -10z m1351 -3 c-1 -12 -15 -9 -19 4 -3 6 1
10 8 8 6 -3 11 -8 11 -12z m95 -34 c-1 -37 0 -38 44 -46 41 -7 47 -12 57 -45
14 -45 9 -52 -14 -23 -13 16 -33 24 -67 27 -27 3 -52 7 -57 9 -16 10 11 115
29 115 5 0 9 -17 8 -37z m-604 -50 c15 -3 29 -12 32 -20 5 -11 2 -13 -11 -8
-10 5 -37 7 -60 7 -29 -1 -43 3 -43 12 0 20 13 28 35 21 11 -4 32 -9 47 -12z
m899 -72 c6 -20 16 -41 21 -48 5 -7 7 -17 3 -23 -10 -16 -47 36 -47 65 0 13
-9 32 -19 41 -10 9 -16 21 -13 26 10 15 42 -21 55 -61z m-3064 37 c-3 -8 -6
-5 -6 6 -1 11 2 17 5 13 3 -3 4 -12 1 -19z m-27 3 c0 -12 -20 -25 -27 -18 -7
7 6 27 18 27 5 0 9 -4 9 -9z m1720 -22 c0 -4 -9 -9 -20 -12 -11 -3 -20 -1 -20
4 0 5 5 9 10 9 6 0 10 8 10 18 0 14 2 15 10 2 5 -8 10 -18 10 -21z m1300 22
c0 -5 9 -11 21 -14 12 -3 18 -10 15 -16 -4 -6 -13 -8 -21 -4 -10 3 -15 -1 -15
-12 0 -11 5 -15 14 -12 16 6 29 -50 14 -59 -5 -3 1 -15 14 -25 21 -19 23 -19
29 -2 6 14 9 11 14 -15 4 -18 12 -35 16 -38 14 -8 11 -74 -3 -71 -8 1 -12 -6
-10 -18 8 -60 6 -99 -6 -103 -10 -3 -13 4 -11 24 5 64 -1 101 -16 101 -8 0
-15 -4 -15 -8 0 -4 -11 -20 -25 -35 l-25 -27 7 34 c3 18 15 42 25 53 20 22 23
42 7 51 -5 4 -8 12 -6 18 2 7 -1 17 -7 23 -46 49 -55 69 -34 76 7 3 8 9 3 18
-14 23 -13 70 2 70 7 0 13 -4 13 -9z m-4205 -31 c3 -5 -1 -10 -10 -10 -9 0
-13 5 -10 10 3 6 8 10 10 10 2 0 7 -4 10 -10z m1180 -10 c3 -5 1 -10 -4 -10
-6 0 -11 5 -11 10 0 6 2 10 4 10 3 0 8 -4 11 -10z m2805 -11 c0 -4 -4 -11 -10
-14 -5 -3 -10 -1 -10 6 0 6 -9 1 -20 -12 l-19 -24 11 31 c8 23 16 30 30 26 10
-2 18 -8 18 -13z m51 -20 l-10 -24 0 26 c-1 14 2 29 6 33 12 12 14 -9 4 -35z
m-2331 11 c0 -23 -4 -24 -33 -8 -21 11 -21 11 -2 19 31 12 35 11 35 -11z
m1190 0 c0 -5 -5 -10 -11 -10 -5 0 -7 5 -4 10 3 6 8 10 11 10 2 0 4 -4 4 -10z
m597 -20 c3 -13 14 -20 29 -20 20 0 24 -5 24 -29 0 -16 7 -34 15 -41 19 -16
19 -30 1 -30 -8 0 -16 10 -18 23 -4 32 -45 36 -50 5 -3 -22 -4 -22 -20 8 -10
17 -14 34 -11 37 3 4 0 13 -7 22 -7 8 -10 22 -6 30 8 22 37 18 43 -5z m615
-21 c23 -46 23 -73 1 -64 -10 4 -25 8 -33 10 -10 1 -15 14 -15 36 -1 69 18 76
47 18z m-3102 21 c0 -5 -10 -10 -22 -10 -19 0 -20 2 -8 10 19 13 30 13 30 0z
m-940 -96 c0 -7 3 -19 6 -27 4 -12 0 -14 -14 -10 -14 3 -21 -1 -25 -16 -6 -24
47 -88 70 -83 18 4 29 -26 14 -41 -16 -16 -14 -27 5 -27 9 0 14 -7 12 -17 -5
-24 -32 -23 -37 2 -4 25 -22 37 -36 25 -7 -6 -25 -5 -46 1 -34 11 -34 11 -34
72 0 48 -3 62 -15 63 -8 0 -23 2 -32 2 -22 2 -24 40 -3 48 8 4 15 12 15 20 0
16 12 18 26 4 12 -12 64 9 64 25 1 14 30 -26 30 -41z m3990 -14 c0 -5 -4 -10
-10 -10 -5 0 -10 5 -10 10 0 6 5 10 10 10 6 0 10 -4 10 -10z m-350 -9 c0 -12
-29 -35 -36 -28 -11 10 5 37 21 37 8 0 15 -4 15 -9z m320 -17 c0 -2 -7 -4 -15
-4 -8 0 -15 4 -15 10 0 5 7 7 15 4 8 -4 15 -8 15 -10z m-840 -13 c0 -13 -29
-35 -37 -28 -7 8 15 37 28 37 5 0 9 -4 9 -9z m725 -11 c3 -5 1 -10 -4 -10 -6
0 -11 5 -11 10 0 6 2 10 4 10 3 0 8 -4 11 -10z m-1380 -10 c3 -5 -1 -10 -9
-10 -9 0 -16 5 -16 10 0 6 4 10 9 10 6 0 13 -4 16 -10z m495 -29 c-12 -23 -27
-26 -50 -11 -13 9 -13 11 0 20 8 5 20 8 27 5 7 -2 15 0 19 6 11 19 16 1 4 -20z
m110 -7 c0 -8 -4 -12 -10 -9 -5 3 -10 13 -10 21 0 8 5 12 10 9 6 -3 10 -13 10
-21z m1050 -49 c15 -18 15 -50 0 -85 -16 -39 -60 -92 -60 -72 0 7 -4 11 -9 8
-5 -4 -17 -3 -26 0 -14 6 -13 8 6 18 12 6 30 33 40 61 16 42 17 55 7 79 -9 23
-9 31 0 34 7 2 12 11 13 20 0 10 5 1 11 -18 5 -19 13 -39 18 -45z m-837 44 c7
-25 -3 -88 -14 -95 -4 -2 -13 5 -19 16 -9 16 -8 25 0 36 10 11 9 15 -3 20 -9
3 -13 12 -10 21 5 12 7 12 14 1 7 -10 9 -9 9 5 0 24 16 21 23 -4z m307 1 c0
-5 -4 -10 -10 -10 -5 0 -10 5 -10 10 0 6 5 10 10 10 6 0 10 -4 10 -10z m190
-6 c0 -8 -5 -12 -10 -9 -6 4 -8 11 -5 16 9 14 15 11 15 -7z m-3966 -56 c-8
-13 -21 -9 -28 8 -9 25 4 37 19 17 7 -10 11 -21 9 -25z m3896 11 c0 -5 -7 -6
-15 -3 -8 4 -15 13 -15 21 0 13 3 13 15 3 8 -7 15 -16 15 -21z m187 1 c8 -23
8 -30 0 -31 -8 0 -8 -2 0 -6 16 -6 -8 -33 -30 -33 -9 0 -18 -6 -20 -12 -4 -10
-6 -10 -6 -1 -1 7 8 21 20 32 16 15 19 26 14 50 -8 40 7 40 22 1z m20 -2 c-3
-7 -5 -2 -5 12 0 14 2 19 5 13 2 -7 2 -19 0 -25z m-4429 -2 c3 -12 -1 -17 -10
-14 -7 3 -15 13 -16 22 -3 12 1 17 10 14 7 -3 15 -13 16 -22z m4482 14 c0 -5
-2 -10 -4 -10 -3 0 -8 5 -11 10 -3 6 -1 10 4 10 6 0 11 -4 11 -10z m-2493 -16
c-3 -3 -12 -4 -19 -1 -8 3 -5 6 6 6 11 1 17 -2 13 -5z m1204 -67 c-8 -8 -16
-6 -28 6 -14 14 -15 20 -3 44 l13 28 14 -34 c10 -24 11 -37 4 -44z m643 57 c9
-24 7 -28 -9 -14 -17 14 -20 30 -6 30 5 0 12 -7 15 -16z m863 -14 c0 -17 -3
-26 -7 -20 -4 6 -11 10 -16 9 -21 -4 -23 2 -7 21 24 27 30 25 30 -10z m-505
-22 c-16 -16 -35 3 -26 26 6 16 8 16 22 2 13 -12 14 -18 4 -28z m-3952 11 c0
-5 -4 -9 -10 -9 -5 0 -10 7 -10 16 0 8 5 12 10 9 6 -3 10 -10 10 -16z m3094
-31 c6 -25 5 -26 -19 -15 -14 7 -25 18 -25 25 0 7 4 11 9 7 5 -3 13 0 16 6 9
13 11 11 19 -23z m786 1 c0 -6 -4 -7 -10 -4 -5 3 -10 11 -10 16 0 6 5 7 10 4
6 -3 10 -11 10 -16z m-4180 -10 c0 -5 -4 -9 -10 -9 -5 0 -10 7 -10 16 0 8 5
12 10 9 6 -3 10 -10 10 -16z m3840 11 c0 -5 -4 -10 -10 -10 -5 0 -10 5 -10 10
0 6 5 10 10 10 6 0 10 -4 10 -10z m508 -20 c5 -13 3 -13 -11 -1 -15 12 -17 11
-17 -8 0 -12 -4 -19 -10 -16 -5 3 -10 15 -10 26 0 15 6 20 22 17 12 -2 24 -10
26 -18z m-85 -14 c-5 -24 -33 -46 -33 -26 0 6 5 10 10 10 6 0 10 9 10 20 0 11
4 20 9 20 4 0 6 -11 4 -24z m-428 -46 c-2 -31 -15 -37 -15 -7 0 15 4 27 8 27
5 0 8 -9 7 -20z m-4031 -20 c29 -11 35 -31 9 -27 -24 3 -43 16 -43 28 0 11 3
11 34 -1z m36 -71 c0 -6 -7 -17 -15 -25 -13 -14 -15 -13 -15 10 0 16 6 26 15
26 8 0 15 -5 15 -11z m4047 5 c-3 -3 -12 -4 -19 -1 -8 3 -5 6 6 6 11 1 17 -2
13 -5z m-3847 -35 c0 -6 -4 -7 -10 -4 -5 3 -10 11 -10 16 0 6 5 7 10 4 6 -3
10 -11 10 -16z m3880 -60 c0 -14 -18 -20 -25 -8 -4 5 -14 8 -22 4 -13 -4 -13
-3 -4 9 12 14 51 11 51 -5z m-3980 -98 c0 -6 -4 -13 -10 -16 -5 -3 -10 1 -10
9 0 9 5 16 10 16 6 0 10 -4 10 -9z m4237 -402 c-1 -10 -5 -15 -9 -13 -4 3 -8
0 -8 -6 0 -7 -5 -6 -14 2 -17 17 -11 34 13 34 12 0 19 -7 18 -17z m-65 -14 c3
-14 1 -25 -3 -25 -5 0 -9 11 -9 25 0 14 2 25 4 25 2 0 6 -11 8 -25z m-122 -51
c0 -8 -4 -12 -10 -9 -5 3 -10 10 -10 16 0 5 5 9 10 9 6 0 10 -7 10 -16z m-100
-54 c0 -5 -4 -10 -10 -10 -5 0 -10 5 -10 10 0 6 5 10 10 10 6 0 10 -4 10 -10z
m-280 -31 c-7 -11 -14 -18 -17 -15 -3 3 0 12 7 21 18 21 23 19 10 -6z m-230 7
c0 -3 -4 -8 -10 -11 -5 -3 -10 -1 -10 4 0 6 5 11 10 11 6 0 10 -2 10 -4z m310
-12 c0 -14 -3 -14 -15 -4 -8 7 -15 14 -15 16 0 2 7 4 15 4 8 0 15 -7 15 -16z
m-554 -41 c-10 -10 -19 5 -10 18 6 11 8 11 12 0 2 -7 1 -15 -2 -18z m-48 -23
c-2 -30 -12 -38 -23 -20 -8 13 4 50 16 50 5 0 8 -13 7 -30z m37 1 c3 -5 1 -12
-5 -16 -5 -3 -10 1 -10 9 0 18 6 21 15 7z m562 -13 c-3 -8 -6 -5 -6 6 -1 11 2
17 5 13 3 -3 4 -12 1 -19z m-767 2 c0 -5 -4 -10 -10 -10 -5 0 -10 5 -10 10 0
6 5 10 10 10 6 0 10 -4 10 -10z m55 0 c3 -5 1 -10 -4 -10 -6 0 -11 5 -11 10 0
6 2 10 4 10 3 0 8 -4 11 -10z m-22 -20 c3 -11 1 -18 -4 -14 -5 3 -9 12 -9 20
0 20 7 17 13 -6z m377 -4 c0 -3 -4 -8 -10 -11 -5 -3 -10 -1 -10 4 0 6 5 11 10
11 6 0 10 -2 10 -4z m-510 -51 c0 -5 -5 -3 -10 5 -5 8 -10 20 -10 25 0 6 5 3
10 -5 5 -8 10 -19 10 -25z m265 25 c3 -6 -1 -7 -9 -4 -18 7 -21 14 -7 14 6 0
13 -4 16 -10z m-515 -14 c0 -3 -4 -8 -10 -11 -5 -3 -10 -1 -10 4 0 6 5 11 10
11 6 0 10 -2 10 -4z m104 -16 c-10 -4 -21 -6 -24 -3 -8 7 24 22 34 16 5 -4 1
-10 -10 -13z m-74 -17 c0 -19 -3 -24 -10 -17 -6 6 -8 18 -4 27 9 24 14 21 14
-10z m184 11 c9 -22 8 -24 -9 -18 -8 4 -15 12 -15 20 0 19 16 18 24 -2z m-287
-16 c-3 -8 -6 -5 -6 6 -1 11 2 17 5 13 3 -3 4 -12 1 -19z m43 12 c0 -5 -2 -10
-4 -10 -3 0 -8 5 -11 10 -3 6 -1 10 4 10 6 0 11 -4 11 -10z m1253 -5 c4 -8 2
-17 -3 -20 -6 -4 -10 3 -10 14 0 25 6 27 13 6z m-469 -10 c3 -8 1 -15 -4 -15
-6 0 -10 7 -10 15 0 8 2 15 4 15 2 0 6 -7 10 -15z m-764 -8 c0 -2 -9 -14 -20
-27 -11 -13 -20 -18 -20 -12 0 6 7 18 16 26 15 15 24 20 24 13z m-60 -17 c23
-14 6 -22 -24 -10 -15 5 -32 8 -37 4 -5 -3 -9 0 -9 5 0 13 50 14 70 1z m780
-6 c0 -8 -4 -12 -10 -9 -5 3 -10 10 -10 16 0 5 5 9 10 9 6 0 10 -7 10 -16z
m-957 -24 c-6 -22 7 -26 24 -9 9 9 14 5 18 -14 9 -36 -5 -58 -18 -26 -5 14
-11 19 -14 12 -9 -26 -20 -12 -21 28 -1 22 2 38 7 35 5 -4 7 -15 4 -26z m338
0 c5 0 9 -4 9 -10 0 -12 -10 -13 -28 -2 -8 6 -10 16 -5 28 7 17 8 17 11 2 2
-10 8 -18 13 -18z m-274 -12 c-3 -8 -6 -5 -6 6 -1 11 2 17 5 13 3 -3 4 -12 1
-19z m-91 -15 c-10 -10 -19 5 -10 18 6 11 8 11 12 0 2 -7 1 -15 -2 -18z m192
-5 c-2 -21 -8 -33 -18 -33 -8 0 -19 -4 -23 -10 -5 -6 -6 -2 -3 8 3 10 6 23 6
29 0 6 8 7 18 4 16 -6 16 -5 -1 8 -14 10 -15 15 -5 19 25 10 29 7 26 -25z
m-250 -28 c-21 -37 -23 -38 -30 -17 -4 15 -6 17 -7 5 -1 -9 -6 -20 -13 -24 -8
-5 -9 -2 -4 11 4 11 2 21 -5 26 -6 4 -9 12 -5 18 5 7 13 7 28 -2 17 -10 22 -9
32 6 22 35 26 16 4 -23z m359 -27 c9 -7 14 -13 11 -13 -4 0 -15 -3 -25 -7 -10
-3 -15 -3 -11 2 10 11 -11 47 -23 40 -5 -4 -7 -11 -4 -16 4 -5 3 -9 -2 -10 -4
0 -18 -2 -30 -3 -27 -3 -28 2 -8 31 9 13 22 20 30 17 10 -4 15 0 15 12 0 14 5
10 15 -11 9 -16 23 -36 32 -42z m90 45 c-3 -8 -6 -5 -6 6 -1 11 2 17 5 13 3
-3 4 -12 1 -19z m-271 -18 c8 0 14 -7 14 -15 0 -17 -16 -20 -25 -5 -4 6 -10 8
-14 5 -5 -2 -6 8 -3 23 4 19 7 22 10 10 2 -10 10 -18 18 -18z m204 20 c0 -5
-5 -10 -11 -10 -5 0 -7 5 -4 10 3 6 8 10 11 10 2 0 4 -4 4 -10z m39 -34 c1 -5
-6 -3 -14 4 -12 10 -15 10 -15 0 0 -8 -3 -11 -6 -8 -3 4 0 17 7 29 12 23 12
23 20 4 4 -11 8 -24 8 -29z m91 24 c0 -5 -4 -10 -10 -10 -5 0 -10 5 -10 10 0
6 5 10 10 10 6 0 10 -4 10 -10z m-471 -50 c0 -9 -4 -8 -9 5 -5 11 -9 27 -9 35
0 9 4 8 9 -5 5 -11 9 -27 9 -35z m751 40 c0 -5 -2 -10 -4 -10 -3 0 -8 5 -11
10 -3 6 -1 10 4 10 6 0 11 -4 11 -10z m53 -5 c-3 -9 -8 -14 -10 -11 -3 3 -2 9
2 15 9 16 15 13 8 -4z m-741 -20 c6 -27 -6 -34 -16 -10 -3 8 -12 12 -21 9 -8
-3 -15 -2 -15 4 0 11 16 20 36 21 7 1 14 -10 16 -24z m628 -10 c0 -8 -2 -15
-4 -15 -2 0 -6 7 -10 15 -3 8 -1 15 4 15 6 0 10 -7 10 -15z m-720 1 c0 -3 -4
-8 -10 -11 -5 -3 -10 -1 -10 4 0 6 5 11 10 11 6 0 10 -2 10 -4z m220 -6 c0 -5
-2 -10 -4 -10 -3 0 -8 5 -11 10 -3 6 -1 10 4 10 6 0 11 -4 11 -10z m-43 -11
c-11 -7 -23 -7 -28 -2 -5 5 3 9 19 11 24 1 25 0 9 -9z m-169 -24 c0 -21 -3
-23 -19 -14 -22 12 -26 31 -4 23 8 -4 15 -1 15 5 0 6 2 11 4 11 2 0 4 -11 4
-25z m557 15 c3 -5 -1 -10 -9 -10 -9 0 -16 5 -16 10 0 6 4 10 9 10 6 0 13 -4
16 -10z m-632 -18 c-6 -4 -13 -16 -15 -27 -5 -19 -5 -19 -13 -1 -6 13 -3 23
10 32 10 8 21 11 24 8 3 -3 0 -8 -6 -12z m121 -14 c7 -5 5 -8 -6 -8 -21 0 -32
16 -22 32 6 9 9 8 12 -2 3 -8 10 -18 16 -22z m141 22 c3 -5 1 -10 -4 -10 -6 0
-11 5 -11 10 0 6 2 10 4 10 3 0 8 -4 11 -10z m45 0 c0 -5 -5 -10 -11 -10 -5 0
-7 5 -4 10 3 6 8 10 11 10 2 0 4 -4 4 -10z m65 0 c-3 -5 -14 -10 -23 -10 -15
0 -15 2 -2 10 20 13 33 13 25 0z m-211 -16 c4 -10 1 -14 -6 -12 -15 5 -23 28
-10 28 5 0 13 -7 16 -16z"/>
<path d="M3315 4370 c3 -5 14 -10 23 -10 15 0 15 2 2 10 -20 13 -33 13 -25 0z"/>
<path d="M3190 4354 c-8 -9 -6 -15 7 -23 14 -9 9 -10 -22 -5 -22 4 -42 8 -44
10 -9 8 -51 -70 -50 -94 l1 -27 7 25 c5 22 11 25 54 25 37 0 47 -3 47 -17 0
-9 -6 -23 -13 -30 -12 -11 -12 -16 0 -26 10 -10 13 -10 13 0 0 9 3 10 8 2 4
-6 18 -10 32 -8 14 1 28 3 33 3 4 1 7 9 7 19 0 14 2 15 10 2 8 -12 11 -12 27
2 12 11 23 14 32 9 11 -7 10 -10 -5 -13 -13 -2 -15 -6 -7 -11 6 -4 19 0 27 9
15 14 16 14 16 0 0 -9 9 -24 19 -33 19 -16 19 -39 0 -28 -5 3 -6 -1 -3 -9 7
-19 24 -21 24 -3 0 8 3 8 9 -2 11 -18 53 -22 63 -7 5 7 8 5 8 -6 0 -9 -4 -20
-10 -23 -5 -3 -10 -15 -10 -26 0 -26 32 -25 50 2 8 12 20 27 26 33 7 7 9 26 6
42 -5 25 -3 27 10 16 13 -10 17 -10 21 2 6 15 25 15 84 1 61 -14 85 -73 34
-85 -34 -8 -39 -29 -6 -22 20 3 24 1 19 -12 -3 -9 -1 -22 5 -30 6 -7 8 -16 5
-19 -4 -4 5 -1 20 6 14 7 24 18 21 25 -7 20 13 14 25 -8 6 -11 16 -17 26 -13
8 3 14 2 13 -3 -1 -5 -1 -16 0 -24 1 -13 2 -13 11 0 7 11 10 4 10 -27 0 -33 4
-43 20 -48 27 -9 40 1 40 31 0 13 5 24 10 24 6 0 10 5 10 11 0 5 -4 7 -10 4
-16 -10 -12 11 5 25 12 10 15 10 15 -3 0 -9 5 -19 11 -23 8 -4 9 0 4 15 -5 15
-2 21 9 21 9 0 16 5 16 12 0 6 3 9 6 5 4 -3 16 8 28 26 12 17 31 33 41 35 48
8 50 14 13 33 -21 11 -38 24 -38 30 0 7 -11 9 -29 6 -16 -3 -31 -3 -35 0 -3 3
-29 14 -57 23 -50 17 -52 17 -71 -2 -20 -20 -20 -20 -49 8 -16 15 -29 36 -29
46 0 24 -37 24 -43 1 -4 -14 -5 -13 -6 3 0 12 -8 24 -16 27 -17 7 -30 -9 -15
-18 19 -12 11 -26 -9 -15 -11 5 -27 7 -35 4 -11 -4 -15 -2 -11 7 4 10 -4 15
-25 16 -41 3 -87 29 -95 53 -3 11 -15 20 -25 20 -10 0 -22 5 -25 10 -4 6 -11
7 -17 4 -6 -4 0 -13 16 -21 15 -8 25 -17 22 -20 -3 -3 -12 0 -20 6 -9 8 -16 8
-20 2 -4 -5 -2 -12 4 -16 5 -3 10 -12 10 -18 0 -7 -4 -6 -10 3 -5 8 -10 11
-10 6 0 -5 -6 -3 -14 3 -11 9 -15 9 -20 -1 -3 -7 -4 -3 -2 10 2 12 0 22 -5 22
-5 0 -9 -6 -9 -13 0 -8 -6 -14 -14 -14 -8 0 -12 7 -9 16 4 11 0 9 -11 -4 l-16
-20 -16 20 c-15 20 -15 20 -36 -5 -19 -23 -20 -23 -14 -4 5 15 2 24 -9 28 -9
3 -15 14 -13 23 4 21 -36 27 -52 7z m70 -101 c0 -20 -24 -11 -28 10 -2 12 1
15 12 11 9 -3 16 -13 16 -21z m-43 -45 c-3 -8 -6 -5 -6 6 -1 11 2 17 5 13 3
-3 4 -12 1 -19z m38 13 c3 -5 1 -12 -5 -16 -5 -3 -10 1 -10 9 0 18 6 21 15 7z
m231 -68 c-7 -7 -26 7 -26 19 0 6 6 6 15 -2 9 -7 13 -15 11 -17z m58 -19 c3
-8 2 -12 -4 -9 -6 3 -10 10 -10 16 0 14 7 11 14 -7z m-22 -46 c-7 -7 -12 -8
-12 -2 0 6 3 14 7 17 3 4 9 5 12 2 2 -3 -1 -11 -7 -17z"/>
<path d="M2555 4349 c-10 -15 -2 -19 23 -12 12 3 19 9 16 14 -7 12 -31 11 -39
-2z"/>
<path d="M2455 4339 c-4 -5 3 -9 14 -9 11 0 23 -4 26 -10 3 -5 1 -10 -4 -10
-16 0 -13 -19 4 -36 13 -14 15 -13 16 3 2 21 -2 57 -6 61 -8 8 -45 9 -50 1z"/>
<path d="M2700 4329 c0 -5 5 -7 10 -4 6 3 10 8 10 11 0 2 -4 4 -10 4 -5 0 -10
-5 -10 -11z"/>
<path d="M2873 4333 c-13 -2 -23 -9 -23 -14 0 -5 -17 -7 -37 -5 -51 6 -83 -3
-83 -23 0 -12 -2 -13 -8 -3 -7 10 -16 9 -45 -3 -34 -14 -41 -13 -38 8 2 11
-17 9 -24 -3 -3 -5 -1 -10 5 -10 7 0 10 -7 7 -14 -6 -16 43 -76 62 -76 10 0
16 40 13 85 -2 16 0 17 8 5 11 -18 79 -22 98 -7 11 9 13 7 10 -9 -2 -13 2 -18
13 -16 9 1 19 -5 23 -13 3 -9 2 -13 -3 -10 -5 3 -12 1 -16 -5 -3 -5 -1 -10 5
-10 6 0 8 -4 5 -10 -3 -5 0 -8 7 -5 8 3 22 -11 35 -35 21 -39 21 -39 1 -37
-18 2 -20 -4 -21 -48 -2 -45 1 -50 21 -53 14 -2 30 4 39 15 8 10 12 13 9 6 -4
-6 -2 -14 4 -18 5 -3 10 -16 10 -29 0 -44 26 -24 28 21 1 24 -2 43 -7 43 -12
0 -31 48 -25 65 3 8 10 13 14 10 5 -3 14 11 21 30 7 19 19 35 25 35 10 0 9 7
-2 28 -15 30 -18 52 -6 52 13 0 7 50 -7 55 -10 4 -12 -2 -9 -25 3 -16 4 -30 2
-30 -1 0 -15 7 -30 15 -27 14 -27 15 -6 15 13 0 22 6 22 15 0 15 -43 18 -97 8z
m12 -23 c3 -5 1 -10 -4 -10 -6 0 -11 5 -11 10 0 6 2 10 4 10 3 0 8 -4 11 -10z
m-15 -34 c0 -3 -4 -8 -10 -11 -5 -3 -10 -1 -10 4 0 6 5 11 10 11 6 0 10 -2 10
-4z m100 -105 c-6 -12 -15 -21 -20 -21 -14 0 -12 7 7 30 21 24 29 19 13 -9z
m-40 -82 c0 -11 -4 -17 -10 -14 -5 3 -10 13 -10 21 0 8 5 14 10 14 6 0 10 -9
10 -21z"/>
<path d="M2325 4309 c-4 -6 -5 -13 -2 -16 7 -7 27 6 27 18 0 12 -17 12 -25 -2z"/>
<path d="M3735 4290 c-8 -13 29 -30 44 -21 7 5 9 11 5 13 -24 13 -44 16 -49 8z"/>
<path d="M2186 4268 c-19 -21 -19 -21 5 -15 13 4 29 7 36 7 7 0 10 7 7 15 -8
20 -25 18 -48 -7z"/>
<path d="M2560 4282 c0 -6 -7 -9 -15 -6 -9 4 -15 0 -15 -9 0 -22 11 -26 38
-12 20 11 21 14 7 25 -10 8 -15 9 -15 2z"/>
<path d="M3110 4241 c0 -23 16 -36 25 -21 3 5 15 10 26 10 11 0 17 5 14 10 -4
6 -10 8 -15 5 -5 -3 -19 -1 -30 5 -17 9 -20 8 -20 -9z"/>
<path d="M2389 4223 c-7 -16 -15 -32 -17 -36 -2 -4 20 -6 50 -4 35 2 52 8 50
16 -1 7 1 10 5 8 5 -3 17 1 28 9 14 11 16 17 7 26 -9 9 -13 7 -18 -5 -8 -21
-24 -22 -24 -2 0 10 -10 15 -33 15 -27 0 -37 -6 -48 -27z"/>
<path d="M2720 4235 c-6 -8 -10 -20 -7 -27 4 -8 6 -7 6 4 1 11 14 21 34 27 30
9 30 9 6 10 -15 1 -32 -6 -39 -14z"/>
<path d="M3030 4234 c0 -8 5 -12 10 -9 6 3 10 10 10 16 0 5 -4 9 -10 9 -5 0
-10 -7 -10 -16z"/>
<path d="M1944 4215 c0 -16 7 -25 18 -25 21 0 32 16 17 26 -8 4 -7 9 2 15 10
6 6 9 -12 9 -22 0 -27 -4 -25 -25z"/>
<path d="M2796 4227 c3 -10 9 -15 12 -12 3 3 0 11 -7 18 -10 9 -11 8 -5 -6z"/>
<path d="M4030 4220 c0 -5 5 -10 11 -10 5 0 7 5 4 10 -3 6 -8 10 -11 10 -2 0
-4 -4 -4 -10z"/>
<path d="M2743 4213 c9 -2 23 -2 30 0 6 3 -1 5 -18 5 -16 0 -22 -2 -12 -5z"/>
<path d="M3041 4184 c0 -11 3 -14 6 -6 3 7 2 16 -1 19 -3 4 -6 -2 -5 -13z"/>
<path d="M3001 4163 c0 -25 1 -26 9 -8 12 27 12 35 0 35 -5 0 -10 -12 -9 -27z"/>
<path d="M4132 4179 c5 -14 63 -33 81 -26 12 4 -11 16 -62 32 -17 5 -22 4 -19
-6z"/>
<path d="M3288 4130 c-9 -17 -24 -30 -33 -30 -8 0 -15 -5 -15 -11 0 -7 9 -9
21 -6 18 5 20 2 16 -21 -5 -25 -4 -25 9 -7 12 16 14 17 14 2 0 -9 5 -17 10
-17 6 0 10 9 10 19 0 11 4 22 9 25 16 11 19 46 4 61 -20 21 -26 19 -45 -15z"/>
<path d="M4145 4128 c4 -12 14 -35 21 -50 8 -15 14 -34 14 -43 0 -8 9 -24 21
-36 11 -11 19 -25 16 -32 -2 -6 -19 4 -38 23 -65 66 -67 67 -84 27 -19 -47
-19 -46 10 -57 26 -10 33 -34 14 -46 -6 -3 3 -14 23 -26 44 -26 128 -115 128
-136 1 -11 6 -8 16 11 15 27 18 29 64 31 14 0 31 5 39 10 11 7 13 5 8 -7 -3
-10 -2 -17 3 -17 6 0 10 7 10 15 0 8 5 15 10 15 6 0 10 -5 10 -12 0 -9 3 -9
12 0 16 16 47 15 54 -1 3 -8 12 -14 20 -14 8 0 13 5 11 11 -3 6 -9 10 -15 9
-6 -2 -9 4 -6 12 5 12 10 12 32 -3 21 -13 24 -13 16 -2 -6 8 -14 28 -18 43 -6
24 -3 30 14 34 11 3 20 8 20 10 0 14 -110 111 -115 103 -4 -6 -11 -8 -16 -5
-5 4 -9 -12 -9 -34 0 -22 5 -43 10 -46 6 -3 10 -13 10 -22 0 -12 -3 -13 -13
-4 -8 6 -16 9 -19 6 -2 -2 -15 13 -29 35 -13 22 -27 40 -31 40 -5 0 -8 4 -8 9
0 21 -48 61 -73 61 -40 0 -57 10 -57 34 0 22 -21 45 -60 66 -20 11 -21 10 -15
-12z"/>
<path d="M2975 4120 c-3 -5 -1 -10 4 -10 6 0 11 5 11 10 0 6 -2 10 -4 10 -3 0
-8 -4 -11 -10z"/>
<path d="M2630 4110 c0 -5 6 -10 14 -10 39 0 24 -49 -22 -75 l-27 -15 40 6
c22 4 45 7 50 8 15 2 25 18 25 42 0 15 -11 27 -34 38 -40 19 -46 20 -46 6z"/>
<path d="M1600 4090 c0 -13 11 -13 30 0 12 8 11 10 -7 10 -13 0 -23 -4 -23
-10z"/>
<path d="M2195 4093 c-43 -11 -40 -24 5 -21 25 2 44 8 43 13 -2 12 -20 15 -48
8z"/>
<path d="M2960 4090 c0 -5 5 -10 10 -10 6 0 10 5 10 10 0 6 -4 10 -10 10 -5 0
-10 -4 -10 -10z"/>
<path d="M2030 4069 c0 -11 4 -18 10 -14 5 3 7 12 3 20 -7 21 -13 19 -13 -6z"/>
<path d="M3618 4014 c-3 -57 2 -64 48 -64 26 0 30 11 14 41 -8 14 -7 19 1 19
6 0 9 6 6 14 -3 8 -1 17 6 20 7 3 2 3 -10 0 -13 -3 -23 -1 -23 4 0 5 -9 12
-19 15 -17 4 -20 -2 -23 -49z"/>
<path d="M2453 4020 c0 -35 3 -37 16 -11 8 14 7 22 -3 30 -10 8 -13 4 -13 -19z"/>
<path d="M4405 4041 c-6 -11 29 -33 39 -24 7 7 -12 33 -25 33 -4 0 -10 -4 -14
-9z"/>
<path d="M3270 4021 c0 -5 5 -13 10 -16 6 -3 10 -2 10 4 0 5 -4 13 -10 16 -5
3 -10 2 -10 -4z"/>
<path d="M1930 4010 c0 -5 4 -10 9 -10 6 0 13 5 16 10 3 6 -1 10 -9 10 -9 0
-16 -4 -16 -10z"/>
<path d="M2110 4009 c0 -5 5 -7 10 -4 6 3 10 8 10 11 0 2 -4 4 -10 4 -5 0 -10
-5 -10 -11z"/>
<path d="M3315 4010 c-3 -5 -1 -10 4 -10 6 0 11 5 11 10 0 6 -2 10 -4 10 -3 0
-8 -4 -11 -10z"/>
<path d="M1200 4000 c0 -5 5 -10 10 -10 6 0 10 5 10 10 0 6 -4 10 -10 10 -5 0
-10 -4 -10 -10z"/>
<path d="M3140 3981 c0 -5 7 -11 14 -14 10 -4 13 -1 9 9 -6 15 -23 19 -23 5z"/>
<path d="M3967 3971 c-3 -13 -1 -19 5 -15 6 4 14 1 18 -6 5 -8 9 -5 13 9 3 13
1 19 -5 15 -6 -4 -14 -1 -18 6 -5 8 -9 5 -13 -9z"/>
<path d="M1085 3969 c-10 -15 3 -25 16 -12 7 7 7 13 1 17 -6 3 -14 1 -17 -5z"/>
<path d="M4596 3924 c-12 -32 44 -88 66 -66 7 7 1 22 -18 46 -32 40 -39 43
-48 20z"/>
<path d="M1870 3905 c0 -15 4 -24 10 -20 6 3 10 12 10 20 0 8 -4 17 -10 20 -6
4 -10 -5 -10 -20z"/>
<path d="M4450 3770 c0 -5 5 -10 10 -10 6 0 10 5 10 10 0 6 -4 10 -10 10 -5 0
-10 -4 -10 -10z"/>
<path d="M4776 3755 c4 -8 11 -15 16 -15 6 0 5 6 -2 15 -7 8 -14 15 -16 15 -2
0 -1 -7 2 -15z"/>
<path d="M4386 3744 c-4 -10 -1 -14 6 -12 15 5 23 28 10 28 -5 0 -13 -7 -16
-16z"/>
<path d="M4552 3700 c0 -14 2 -19 5 -12 2 6 2 18 0 25 -3 6 -5 1 -5 -13z"/>
<path d="M4639 3655 c0 0 -2 -7 -4 -16 -2 -14 1 -14 21 -5 29 13 31 25 4 23
-11 -1 -20 -1 -21 -2z"/>
<path d="M4810 3643 c0 -4 5 -15 10 -23 8 -13 10 -13 10 2 0 9 -4 20 -10 23
-5 3 -10 3 -10 -2z"/>
<path d="M4048 3573 c7 -3 16 -2 19 1 4 3 -2 6 -13 5 -11 0 -14 -3 -6 -6z"/>
<path d="M3570 3510 c0 -9 31 -30 44 -30 16 0 3 18 -19 28 -14 7 -25 8 -25 2z"/>
<path d="M3200 3489 c0 -7 -3 -10 -6 -6 -11 10 -34 -21 -28 -36 8 -21 34 -30
50 -16 7 6 23 9 36 8 13 -2 34 1 47 5 18 6 28 4 37 -9 8 -10 11 -22 8 -26 -3
-5 0 -9 5 -9 6 0 11 4 11 9 0 5 12 12 28 16 15 3 36 13 47 21 16 12 17 18 8
32 -6 9 -17 15 -25 13 -7 -3 -42 -6 -78 -8 -36 -1 -74 -5 -86 -9 -13 -3 -27 1
-38 11 -10 11 -16 12 -16 4z"/>
<path d="M2220 3483 c-14 -2 -72 -13 -130 -25 -58 -11 -119 -21 -135 -22 -41
-3 -62 -15 -44 -27 8 -5 17 -3 22 4 6 9 10 9 13 1 3 -8 21 -7 62 2 31 8 78 12
105 10 53 -5 144 -33 152 -47 19 -30 65 26 65 80 0 30 -1 31 -42 30 -24 -1
-54 -4 -68 -6z"/>
<path d="M4105 3456 c-12 -8 -16 -19 -12 -30 8 -20 26 -17 41 7 16 24 -5 41
-29 23z"/>
<path d="M4650 3456 c0 -26 21 -29 43 -7 l21 21 -32 0 c-21 0 -32 -5 -32 -14z"/>
<path d="M3815 3430 c3 -5 11 -10 16 -10 6 0 7 5 4 10 -3 6 -11 10 -16 10 -6
0 -7 -4 -4 -10z"/>
<path d="M3886 3421 c-4 -5 -2 -12 3 -15 5 -4 12 -2 15 3 4 5 2 12 -3 15 -5 4
-12 2 -15 -3z"/>
<path d="M2790 3403 c-8 -3 -32 -19 -52 -35 -31 -24 -36 -34 -32 -56 5 -23 2
-28 -15 -29 -11 -1 -22 6 -24 15 -4 15 -5 15 -6 -1 0 -10 -7 -17 -13 -15 -7 3
-21 -4 -32 -14 -11 -10 -25 -17 -30 -17 -63 7 -61 -28 4 -75 30 -21 48 -41 44
-48 -4 -6 -1 -9 6 -6 8 2 18 13 24 24 6 10 12 21 14 24 2 2 7 -2 12 -10 5 -9
5 -19 -1 -26 -11 -13 7 -31 18 -20 4 3 16 -1 29 -9 17 -11 23 -11 27 -2 6 16
-12 41 -38 52 -17 7 -18 9 -3 12 9 2 18 14 20 26 2 15 12 23 33 27 56 12 75
31 75 75 0 23 -5 46 -10 51 -7 7 -8 19 -1 37 9 24 8 27 -12 26 -12 0 -29 -3
-37 -6z"/>
<path d="M2920 3355 c0 -15 4 -24 10 -20 6 3 10 12 10 20 0 8 -4 17 -10 20 -6
4 -10 -5 -10 -20z"/>
<path d="M4334 3367 c-3 -9 -10 -14 -15 -11 -13 8 -11 -3 5 -35 21 -40 43 -54
81 -53 57 2 92 26 97 65 3 30 1 33 -19 29 -13 -2 -26 -8 -29 -13 -3 -5 -19 0
-35 12 -25 17 -32 19 -45 8 -13 -10 -17 -10 -24 1 -7 12 -10 11 -16 -3z"/>
<path d="M4660 3373 c0 -5 5 -15 10 -23 8 -12 10 -11 10 8 0 12 -4 22 -10 22
-5 0 -10 -3 -10 -7z"/>
<path d="M2606 3350 c3 -14 11 -32 16 -40 6 -10 7 -7 2 10 -3 14 -11 32 -16
40 -6 10 -7 7 -2 -10z"/>
<path d="M4588 3363 c6 -2 18 -2 25 0 6 3 1 5 -13 5 -14 0 -19 -2 -12 -5z"/>
<path d="M1566 3341 c-4 -5 -24 -12 -46 -16 -22 -4 -42 -11 -46 -16 -3 -5 -15
-9 -28 -9 -12 0 -27 -5 -32 -10 -6 -6 -35 -13 -65 -15 -30 -2 -74 -10 -98 -19
-24 -9 -58 -16 -76 -16 -18 0 -38 -7 -45 -15 -7 -8 -16 -13 -20 -10 -5 3 -11
1 -15 -5 -3 -5 -17 -10 -30 -10 -13 0 -27 -5 -30 -11 -4 -6 -13 -8 -20 -5 -8
3 -19 -2 -25 -10 -7 -8 -20 -14 -29 -14 -10 0 -36 -9 -59 -20 -24 -12 -47 -18
-51 -15 -5 2 -11 -1 -14 -9 -11 -29 51 -27 131 3 92 36 128 39 206 22 65 -14
97 -11 155 17 23 11 51 17 66 15 14 -3 46 2 70 11 42 16 45 21 61 76 11 40 23
61 35 65 11 4 19 11 19 16 0 12 -7 12 -14 0z"/>
<path d="M2885 3339 c-4 -6 -5 -12 -2 -15 2 -3 7 2 10 11 7 17 1 20 -8 4z"/>
<path d="M1675 3259 c-4 -6 -5 -13 -2 -16 7 -7 27 6 27 18 0 12 -17 12 -25 -2z"/>
<path d="M2045 3171 c-3 -5 -1 -12 5 -16 5 -3 10 1 10 9 0 18 -6 21 -15 7z"/>
<path d="M1810 3130 c0 -5 4 -10 9 -10 6 0 13 5 16 10 3 6 -1 10 -9 10 -9 0
-16 -4 -16 -10z"/>
<path d="M4323 3085 c-7 -8 -13 -17 -13 -20 0 -10 29 -5 36 6 10 17 -10 29
-23 14z"/>
<path d="M4505 3060 c-3 -5 -2 -10 4 -10 5 0 13 5 16 10 3 6 2 10 -4 10 -5 0
-13 -4 -16 -10z"/>
<path d="M2740 3040 c0 -5 5 -10 11 -10 5 0 7 5 4 10 -3 6 -8 10 -11 10 -2 0
-4 -4 -4 -10z"/>
<path d="M4585 3020 c-3 -5 -1 -10 4 -10 6 0 11 5 11 10 0 6 -2 10 -4 10 -3 0
-8 -4 -11 -10z"/>
<path d="M830 2999 c0 -15 -39 -49 -57 -49 -19 0 -16 -18 5 -23 15 -4 15 -5
-2 -6 -12 -1 -16 -6 -12 -17 3 -9 6 -19 6 -22 0 -4 5 0 10 8 5 8 10 10 10 5 0
-6 19 -9 45 -7 47 4 59 23 33 51 -10 11 -10 13 0 7 7 -4 12 -1 12 8 0 10 -7
13 -25 10 -23 -4 -25 -2 -19 21 3 14 3 25 0 25 -3 0 -6 -5 -6 -11z"/>
<path d="M855 3000 c3 -5 8 -10 11 -10 2 0 4 5 4 10 0 6 -5 10 -11 10 -5 0 -7
-4 -4 -10z"/>
<path d="M1485 3000 c-8 -13 5 -13 25 0 13 8 13 10 -2 10 -9 0 -20 -4 -23 -10z"/>
<path d="M1031 2985 c-2 -11 -5 -15 -7 -9 -4 10 -122 9 -132 -1 -9 -8 10 -25
21 -18 20 12 49 10 54 -4 3 -7 11 -13 19 -13 8 0 14 -5 14 -11 0 -8 6 -7 17 2
15 12 16 12 10 -3 -3 -10 -2 -18 3 -18 14 0 16 12 9 55 -3 22 -7 31 -8 20z"/>
<path d="M4625 2991 c-6 -11 9 -23 19 -14 9 9 7 23 -3 23 -6 0 -12 -4 -16 -9z"/>
<path d="M1230 2961 c0 -6 5 -13 10 -16 6 -3 10 1 10 9 0 9 -4 16 -10 16 -5 0
-10 -4 -10 -9z"/>
<path d="M543 2878 c-24 -32 -22 -45 8 -44 21 1 29 6 29 19 0 9 0 20 1 25 0
13 -28 13 -38 0z"/>
<path d="M1065 2880 c3 -5 8 -10 11 -10 2 0 4 5 4 10 0 6 -5 10 -11 10 -5 0
-7 -4 -4 -10z"/>
<path d="M1710 2429 c0 -7 -11 -9 -26 -6 -22 4 -25 2 -20 -17 3 -11 0 -36 -6
-54 -10 -26 -10 -37 1 -53 8 -14 10 -35 6 -60 -7 -42 -4 -45 26 -29 20 11 26
54 10 79 -12 18 -3 41 15 41 8 0 14 7 14 16 0 8 4 13 9 10 5 -3 11 4 15 17 9
34 7 40 -9 33 -10 -4 -15 1 -15 14 0 11 -4 20 -10 20 -5 0 -10 -5 -10 -11z"/>
<path d="M1314 2364 c3 -9 6 -25 6 -37 0 -15 3 -18 11 -10 12 12 2 63 -13 63
-6 0 -7 -7 -4 -16z"/>
<path d="M1365 2300 c-4 -16 -11 -30 -16 -30 -5 0 -9 -9 -9 -20 0 -15 -7 -20
-25 -20 -15 0 -25 6 -25 14 0 7 -6 19 -13 25 -11 8 -18 1 -36 -34 -12 -25 -33
-58 -45 -73 -12 -15 -23 -38 -24 -52 -1 -24 2 -26 39 -25 40 0 41 0 35 33 -4
25 -1 35 12 39 9 4 23 15 30 24 7 10 19 16 27 13 8 -4 17 1 21 9 3 8 19 21 35
27 16 7 29 19 29 26 0 8 6 23 13 34 10 17 9 22 -3 30 -26 17 -38 11 -45 -20z"/>
<path d="M1540 2315 c-7 -8 -18 -15 -24 -16 -21 -1 -55 -55 -49 -77 8 -31 33
-27 46 8 8 20 22 33 44 41 39 13 61 44 37 53 -25 10 -41 7 -54 -9z"/>
<path d="M1330 2121 c-39 -33 -39 -32 11 -49 46 -16 83 -16 73 0 -5 8 -2 9 11
4 11 -4 21 -2 26 5 5 9 15 9 38 1 35 -12 52 1 21 18 -11 6 -20 7 -20 3 0 -4
-4 -2 -9 5 -4 7 -28 15 -52 17 -24 2 -45 9 -47 15 -5 15 -14 12 -52 -19z"/>
<path d="M589 2097 c6 -8 9 -17 6 -21 -3 -3 0 -2 6 3 12 10 4 31 -13 31 -7 0
-7 -4 1 -13z"/>
<path d="M1846 2031 c-4 -7 -5 -15 -2 -18 9 -9 19 4 14 18 -4 11 -6 11 -12 0z"/>
<path d="M606 1924 c-3 -9 -6 -24 -6 -34 0 -10 -12 -32 -26 -49 l-26 -31 29 0
c67 0 90 21 58 54 -17 17 -20 42 -5 51 15 9 12 25 -4 25 -8 0 -17 -7 -20 -16z"/>
<path d="M1782 1898 c-13 -13 -16 -14 -54 -18 -13 -1 -17 -4 -10 -7 18 -7 15
-23 -5 -24 -10 0 -4 -5 12 -10 33 -10 75 -4 75 11 0 18 29 10 32 -9 3 -19 4
-19 46 1 23 11 42 23 42 27 0 4 -21 13 -47 19 -27 6 -55 13 -63 17 -9 3 -21 0
-28 -7z"/>
<path d="M497 1873 c-4 -3 -7 -16 -6 -27 0 -19 1 -19 10 3 10 24 8 36 -4 24z"/>
<path d="M2660 1830 c0 -5 4 -10 9 -10 6 0 13 5 16 10 3 6 -1 10 -9 10 -9 0
-16 -4 -16 -10z"/>
<path d="M2063 1806 c-7 -12 -35 -20 -118 -33 -49 -7 -75 -24 -75 -49 l0 -23
63 25 c55 22 67 24 107 13 25 -6 74 -12 110 -14 36 -1 76 -7 90 -13 26 -11
116 -36 160 -46 19 -4 29 0 38 15 12 19 11 20 -6 15 -14 -5 -21 -1 -24 12 -7
24 -99 63 -106 44 -5 -17 -22 -15 -22 3 0 40 -197 86 -217 51z m31 -21 c-4 -8
-8 -15 -10 -15 -2 0 -4 7 -4 15 0 8 4 15 10 15 5 0 7 -7 4 -15z m33 -41 c-3
-3 -12 -4 -19 -1 -8 3 -5 6 6 6 11 1 17 -2 13 -5z"/>
<path d="M480 1779 c-10 -24 -11 -36 -2 -50 7 -11 10 -32 6 -47 -4 -19 -3 -23
4 -13 8 11 11 11 16 0 6 -14 2 11 -10 61 -5 20 -4 22 6 10 8 -12 9 -6 4 25 -9
51 -9 52 -24 14z"/>
<path d="M1622 1784 c4 -21 22 -23 26 -1 2 10 -3 17 -13 17 -10 0 -15 -6 -13
-16z"/>
<path d="M1675 1780 c-3 -5 -1 -10 4 -10 6 0 11 5 11 10 0 6 -2 10 -4 10 -3 0
-8 -4 -11 -10z"/>
<path d="M1783 1750 c0 -40 12 -60 35 -60 13 0 13 3 -2 19 -11 12 -14 21 -7
26 19 11 13 51 -8 51 -15 0 -19 -7 -18 -36z"/>
<path d="M537 1763 c-4 -3 -7 -11 -7 -17 0 -6 5 -4 10 4 7 11 10 11 10 2 0 -7
5 -10 10 -7 6 3 10 10 10 16 0 10 -23 12 -33 2z"/>
<path d="M487 1643 c-4 -3 -7 -11 -7 -17 0 -6 5 -5 12 2 6 6 9 14 7 17 -3 3
-9 2 -12 -2z"/>
<path d="M1360 1513 c0 -18 35 -16 50 2 11 13 9 15 -19 13 -17 -1 -31 -8 -31
-15z"/>
<path d="M2091 1453 c-14 -6 104 -55 213 -89 49 -16 59 -16 66 -4 13 21 -35
68 -80 79 -45 11 -181 21 -199 14z"/>
<path d="M2653 1405 c-35 -15 -159 -125 -141 -125 6 0 20 -8 31 -17 18 -16 20
-16 14 -2 -4 13 2 18 26 22 18 3 36 1 42 -4 5 -6 2 -9 -8 -9 -9 0 -17 -5 -17
-11 0 -5 3 -9 8 -7 51 25 67 38 83 70 22 42 25 98 7 98 -7 -1 -27 -7 -45 -15z"/>
<path d="M3965 1400 c3 -5 11 -10 16 -10 6 0 7 5 4 10 -3 6 -11 10 -16 10 -6
0 -7 -4 -4 -10z"/>
<path d="M3831 1352 l-83 -44 6 -49 c4 -28 2 -57 -4 -68 -19 -37 7 -30 46 11
41 43 135 108 155 108 7 0 28 -18 48 -39 33 -36 38 -38 56 -25 28 21 51 17 95
-15 23 -16 58 -32 80 -36 51 -9 155 4 142 17 -6 6 -8 17 -5 24 3 9 0 12 -9 9
-17 -7 -34 11 -39 39 -2 10 -11 22 -19 26 -8 4 -27 13 -42 20 -15 7 -32 26
-39 41 -9 24 -17 29 -45 29 -36 0 -36 -1 -37 -62 0 -33 -2 -36 -18 -27 -11 5
-19 14 -19 19 0 6 -6 10 -14 10 -7 0 -19 7 -26 15 -7 8 -18 15 -24 15 -8 0 -8
-2 0 -8 14 -9 24 -62 13 -62 -5 0 -9 6 -9 14 0 8 -13 20 -30 28 -16 7 -30 17
-30 21 0 5 -6 7 -12 4 -7 -2 -22 3 -33 12 -19 16 -24 15 -104 -27z"/>
<path d="M3628 1206 c-36 -33 -58 -61 -58 -75 0 -11 -5 -21 -11 -21 -6 0 -35
-22 -65 -49 -50 -46 -110 -71 -134 -56 -20 12 -128 4 -179 -14 l-53 -19 36
-12 c29 -9 40 -9 51 0 9 7 22 9 32 5 29 -13 112 -6 138 11 28 18 57 12 88 -19
14 -14 22 -17 25 -9 2 8 11 4 23 -10 15 -19 18 -20 19 -6 0 14 12 16 102 12
59 -2 104 -8 106 -14 5 -15 22 -12 22 5 0 19 31 35 69 35 27 0 31 -4 31 -26 0
-14 4 -23 9 -20 5 4 12 0 14 -6 3 -7 8 2 12 20 8 36 28 50 48 34 7 -6 40 -9
75 -8 40 2 62 -1 62 -8 0 -6 4 -5 9 3 6 9 23 12 55 10 27 -3 46 0 46 6 0 5 5
3 10 -5 8 -12 13 -13 30 -2 11 7 40 11 65 10 25 0 51 4 57 10 7 7 19 7 36 1
14 -6 51 -9 82 -7 30 1 60 -1 67 -5 6 -4 17 -2 25 5 7 7 36 14 63 15 102 5
115 7 115 12 0 15 -148 74 -185 74 -76 0 -220 -15 -232 -25 -37 -30 -189 -47
-438 -51 l-120 -2 -3 29 c-2 16 -11 30 -21 33 -10 2 -18 15 -19 31 -1 15 -7
29 -12 30 -14 5 -12 35 3 51 10 11 10 14 0 18 -7 3 -13 10 -13 17 0 7 -6 20
-12 29 -12 15 -19 11 -70 -37z m46 -150 c-39 -38 -56 -47 -33 -19 40 50 64 73
67 65 2 -6 -14 -26 -34 -46z"/>
<path d="M4760 1241 c0 -8 53 -32 69 -31 3 1 -5 10 -18 20 -24 21 -51 26 -51
11z"/>
<path d="M3877 1130 c8 -30 33 -39 73 -25 35 12 35 12 11 24 -13 7 -32 10 -44
7 -12 -3 -26 -1 -33 5 -9 8 -11 5 -7 -11z"/>
<path d="M4275 1141 c-22 -4 -55 -15 -73 -24 -31 -17 -32 -18 -16 -42 9 -14
18 -25 20 -25 9 0 50 26 72 45 19 16 50 58 40 54 -2 -1 -21 -5 -43 -8z"/>
<path d="M1500 1130 c0 -29 25 -59 54 -63 17 -3 44 -9 60 -13 l28 -7 -18 23
c-45 56 -64 70 -94 70 -16 0 -30 -4 -30 -10z"/>
<path d="M1736 1079 c7 -12 66 -39 84 -39 20 0 -1 20 -37 35 -42 18 -57 19
-47 4z"/>
<path d="M1355 1070 c3 -5 11 -10 16 -10 6 0 7 5 4 10 -3 6 -11 10 -16 10 -6
0 -7 -4 -4 -10z"/>
<path d="M1860 1030 c8 -5 20 -10 25 -10 6 0 3 5 -5 10 -8 5 -19 10 -25 10 -5
0 -3 -5 5 -10z"/>
<path d="M2660 1014 c-25 -7 -56 -13 -70 -14 l-25 -2 25 -8 c14 -4 45 -8 69
-9 38 -1 43 -3 38 -21 -3 -11 -1 -20 4 -20 5 0 9 6 9 14 0 20 25 27 45 12 19
-13 65 -10 65 5 0 5 -5 9 -11 9 -5 0 -7 6 -3 13 4 6 4 9 0 5 -5 -4 -23 2 -42
13 -39 21 -41 21 -104 3z"/>
<path d="M1935 1010 c3 -5 8 -10 11 -10 2 0 4 5 4 10 0 6 -5 10 -11 10 -5 0
-7 -4 -4 -10z"/>
<path d="M2305 1010 c-49 -3 -85 -8 -80 -12 13 -8 163 -13 170 -6 8 8 55 -3
55 -13 0 -15 30 -10 47 6 8 9 14 18 12 20 -8 7 -117 10 -204 5z"/>
<path d="M2950 976 c0 -9 7 -12 21 -9 16 4 17 8 7 14 -19 13 -28 11 -28 -5z"/>
<path d="M3070 970 c0 -5 9 -9 20 -7 31 5 36 17 7 17 -15 0 -27 -4 -27 -10z"/>
<path d="M4655 880 c3 -5 11 -10 16 -10 6 0 7 5 4 10 -3 6 -11 10 -16 10 -6 0
-7 -4 -4 -10z"/>
<path d="M4157 803 c-4 -3 -7 -11 -7 -17 0 -6 5 -5 12 2 6 6 9 14 7 17 -3 3
-9 2 -12 -2z"/>
<path d="M4220 779 c0 -14 -5 -19 -14 -16 -10 4 -13 1 -9 -9 7 -19 12 -18 34
9 22 27 24 37 4 37 -9 0 -15 -9 -15 -21z"/>
<path d="M4030 776 c0 -9 5 -16 10 -16 6 0 10 4 10 9 0 6 -4 13 -10 16 -5 3
-10 -1 -10 -9z"/>
<path d="M3990 764 c0 -8 5 -12 10 -9 6 3 10 10 10 16 0 5 -4 9 -10 9 -5 0
-10 -7 -10 -16z"/>
<path d="M3605 759 c-4 -6 -5 -12 -2 -15 2 -3 7 2 10 11 7 17 1 20 -8 4z"/>
<path d="M3862 735 c-2 -33 6 -49 26 -52 17 -4 15 24 -2 30 -8 3 -16 16 -19
29 -3 19 -5 17 -5 -7z"/>
<path d="M4321 744 c0 -11 3 -14 6 -6 3 7 2 16 -1 19 -3 4 -6 -2 -5 -13z"/>
<path d="M3795 740 c-3 -5 -1 -10 4 -10 6 0 11 5 11 10 0 6 -2 10 -4 10 -3 0
-8 -4 -11 -10z"/>
<path d="M4170 740 c0 -5 5 -10 10 -10 6 0 10 5 10 10 0 6 -4 10 -10 10 -5 0
-10 -4 -10 -10z"/>
<path d="M3885 729 c-4 -6 0 -9 11 -7 15 2 18 -2 16 -22 -2 -18 0 -22 9 -13 6
6 8 20 4 32 -7 22 -29 28 -40 10z"/>
<path d="M3420 716 c0 -8 4 -17 9 -20 5 -4 7 3 4 14 -6 23 -13 26 -13 6z"/>
<path d="M3511 714 c0 -11 3 -14 6 -6 3 7 2 16 -1 19 -3 4 -6 -2 -5 -13z"/>
<path d="M3637 713 c-11 -10 -8 -20 7 -26 10 -4 12 0 9 14 -6 21 -7 22 -16 12z"/>
<path d="M3000 630 c0 -5 7 -10 16 -10 8 0 12 5 9 10 -3 6 -10 10 -16 10 -5 0
-9 -4 -9 -10z"/>
<path d="M3210 630 c0 -5 5 -10 10 -10 6 0 10 5 10 10 0 6 -4 10 -10 10 -5 0
-10 -4 -10 -10z"/>
<path d="M3111 614 c0 -11 3 -14 6 -6 3 7 2 16 -1 19 -3 4 -6 -2 -5 -13z"/>
<path d="M2861 606 c-7 -8 -8 -17 -3 -20 6 -3 13 1 16 10 9 23 2 28 -13 10z"/>
<path d="M2810 590 c0 -5 7 -10 16 -10 8 0 12 5 9 10 -3 6 -10 10 -16 10 -5 0
-9 -4 -9 -10z"/>
<path d="M3007 593 c-4 -3 -7 -13 -7 -22 1 -13 3 -13 11 2 11 19 8 33 -4 20z"/>
<path d="M3085 589 c-4 -6 -5 -12 -2 -15 2 -3 7 2 10 11 7 17 1 20 -8 4z"/>
<path d="M3115 580 c3 -5 8 -10 11 -10 2 0 4 5 4 10 0 6 -5 10 -11 10 -5 0 -7
-4 -4 -10z"/>
<path d="M2835 550 c3 -5 8 -10 11 -10 2 0 4 5 4 10 0 6 -5 10 -11 10 -5 0 -7
-4 -4 -10z"/>
<path d="M2860 540 c0 -11 4 -20 10 -20 5 0 6 7 3 17 -4 11 -3 14 5 9 7 -4 12
-2 12 3 0 6 -7 11 -15 11 -8 0 -15 -9 -15 -20z"/>
<path d="M2797 535 c-4 -8 -2 -17 3 -20 6 -4 5 -15 -2 -28 -14 -26 -21 -108
-7 -86 6 9 9 10 9 2 0 -20 -18 -24 -34 -7 -9 8 -16 13 -16 9 0 -13 29 -62 44
-74 13 -11 16 -11 16 3 0 9 -6 16 -12 16 -8 1 -6 6 5 14 22 17 22 52 0 65 -14
7 -15 13 -6 33 8 16 12 18 12 7 1 -27 41 -34 41 -7 0 4 -7 8 -15 8 -11 0 -15
11 -15 40 0 40 -13 53 -23 25z"/>
<path d="M2730 509 c-6 -11 -10 -27 -8 -35 2 -8 8 1 14 20 12 40 10 46 -6 15z"/>
<path d="M2913 514 c-16 -16 -17 -40 -3 -49 6 -3 10 1 10 9 0 9 5 16 10 16 12
0 14 27 3 33 -5 3 -14 -1 -20 -9z"/>
<path d="M2861 484 c0 -11 3 -14 6 -6 3 7 2 16 -1 19 -3 4 -6 -2 -5 -13z"/>
<path d="M2679 461 c7 -5 11 -13 8 -18 -3 -5 0 -10 8 -10 10 0 11 5 4 19 -5
10 -15 18 -22 18 -8 0 -8 -3 2 -9z"/>
<path d="M2565 440 c3 -5 8 -10 11 -10 2 0 4 5 4 10 0 6 -5 10 -11 10 -5 0 -7
-4 -4 -10z"/>
<path d="M2650 430 c0 -11 4 -20 9 -20 5 0 7 9 4 20 -3 11 -7 20 -9 20 -2 0
-4 -9 -4 -20z"/>
<path d="M2743 438 c-6 -7 -13 -20 -17 -28 -7 -13 -6 -13 6 0 8 8 20 21 28 28
8 6 9 12 3 12 -6 0 -15 -6 -20 -12z"/>
<path d="M2420 410 c0 -5 5 -10 10 -10 6 0 10 5 10 10 0 6 -4 10 -10 10 -5 0
-10 -4 -10 -10z"/>
<path d="M2585 410 c-3 -5 -1 -10 4 -10 6 0 11 5 11 10 0 6 -2 10 -4 10 -3 0
-8 -4 -11 -10z"/>
<path d="M2680 406 c0 -8 -8 -17 -17 -19 -14 -4 -12 -5 5 -6 16 -1 22 5 22 19
0 11 -2 20 -5 20 -3 0 -5 -6 -5 -14z"/>
<path d="M2700 400 c0 -11 4 -20 9 -20 5 0 7 9 4 20 -3 11 -7 20 -9 20 -2 0
-4 -9 -4 -20z"/>
<path d="M1897 369 c4 -13 8 -18 11 -10 2 7 -1 18 -6 23 -8 8 -9 4 -5 -13z"/>
<path d="M2091 374 c0 -11 3 -14 6 -6 3 7 2 16 -1 19 -3 4 -6 -2 -5 -13z"/>
<path d="M2420 380 c0 -5 7 -10 16 -10 8 0 12 5 9 10 -3 6 -10 10 -16 10 -5 0
-9 -4 -9 -10z"/>
<path d="M2535 368 l-20 -21 22 12 c23 12 40 31 26 30 -4 0 -17 -10 -28 -21z"/>
<path d="M2310 371 c0 -6 5 -13 10 -16 6 -3 10 1 10 9 0 9 -4 16 -10 16 -5 0
-10 -4 -10 -9z"/>
<path d="M2576 363 c-6 -14 -5 -15 5 -6 7 7 10 15 7 18 -3 3 -9 -2 -12 -12z"/>
<path d="M2673 363 c-7 -3 -12 -14 -12 -26 1 -17 2 -18 6 -4 5 21 23 23 23 2
0 -8 5 -15 10 -15 14 0 13 13 -2 32 -7 9 -19 14 -25 11z"/>
<path d="M2168 353 c6 -2 18 -2 25 0 6 3 1 5 -13 5 -14 0 -19 -2 -12 -5z"/>
<path d="M2340 339 c0 -5 -4 -8 -9 -4 -5 3 -12 1 -16 -5 -7 -11 5 -13 29 -4
18 7 22 24 6 24 -5 0 -10 -5 -10 -11z"/>
<path d="M2450 340 c0 -5 5 -10 10 -10 6 0 10 5 10 10 0 6 -4 10 -10 10 -5 0
-10 -4 -10 -10z"/>
<path d="M2585 330 c3 -5 8 -10 11 -10 2 0 4 5 4 10 0 6 -5 10 -11 10 -5 0 -7
-4 -4 -10z"/>
<path d="M2877 2500 c3 -11 14 -25 24 -31 11 -5 19 -15 19 -21 0 -7 -4 -7 -13
1 -8 6 -17 8 -20 4 -4 -3 -7 0 -7 7 0 11 -3 11 -12 2 -7 -7 -22 -12 -34 -12
-21 0 -22 -2 -12 -32 6 -18 20 -43 31 -55 19 -21 19 -23 3 -48 -17 -26 -17
-26 3 -15 22 11 41 6 41 -10 0 -5 -7 -7 -15 -4 -11 4 -15 0 -15 -16 0 -18 3
-20 14 -11 21 18 30 -18 10 -40 -24 -26 -13 -42 29 -43 20 -1 37 1 38 4 8 57
43 120 67 120 15 0 15 13 0 28 -10 10 -10 15 1 21 7 5 10 14 7 20 -4 6 0 14 8
17 21 8 20 24 -1 40 -13 9 -22 9 -30 2 -14 -12 -73 7 -73 23 0 10 -54 69 -63
69 -3 0 -3 -9 0 -20z"/>
<path d="M2780 2480 c0 -5 5 -10 10 -10 6 0 10 5 10 10 0 6 -4 10 -10 10 -5 0
-10 -4 -10 -10z"/>
<path d="M2264 2267 c-9 -23 1 -32 36 -33 25 0 28 2 18 19 -7 15 -12 16 -18 7
-6 -9 -10 -8 -18 6 -10 18 -11 18 -18 1z"/>
<path d="M2827 2253 c-15 -14 -6 -41 15 -46 28 -8 30 -5 22 27 -6 25 -23 34
-37 19z"/>
<path d="M2753 2075 c-3 -9 -2 -19 2 -23 4 -4 10 -1 12 6 3 6 11 12 18 12 8 0
17 5 20 10 4 6 -5 10 -20 10 -14 0 -28 -7 -32 -15z"/>
<path d="M2060 2040 c0 -5 5 -10 10 -10 6 0 10 5 10 10 0 6 -4 10 -10 10 -5 0
-10 -4 -10 -10z"/>
<path d="M5170 2340 c47 -26 73 -26 41 0 -13 11 -35 20 -50 20 -25 -1 -25 -1
9 -20z"/>
<path d="M5276 2312 c-2 -4 9 -17 27 -27 l32 -19 -16 24 c-18 27 -34 36 -43
22z"/>
<path d="M5241 2284 c0 -11 3 -14 6 -6 3 7 2 16 -1 19 -3 4 -6 -2 -5 -13z"/>
<path d="M4871 2223 c2 -30 17 -79 18 -60 0 9 5 17 9 17 5 0 14 11 20 24 9 20
8 25 -4 30 -28 11 -44 6 -43 -11z"/>
<path d="M2170 2556 c0 -8 -5 -16 -12 -18 -6 -2 -8 -9 -4 -16 11 -18 36 -2 36
24 0 13 -4 24 -10 24 -5 0 -10 -6 -10 -14z"/>
<path d="M5450 1815 c0 -8 2 -15 4 -15 2 0 6 7 10 15 3 8 1 15 -4 15 -6 0 -10
-7 -10 -15z"/>
<path d="M4660 1895 c0 -8 5 -15 10 -15 6 0 10 7 10 15 0 8 -4 15 -10 15 -5 0
-10 -7 -10 -15z"/>
<path d="M3190 390 c0 -5 5 -10 11 -10 5 0 7 5 4 10 -3 6 -8 10 -11 10 -2 0
-4 -4 -4 -10z"/>
</g>
</svg>
