<?xml version="1.0" standalone="no"?>
<!DOCTYPE svg PUBLIC "-//W3C//DTD SVG 20010904//EN"
 "http://www.w3.org/TR/2001/REC-SVG-20010904/DTD/svg10.dtd">
<svg version="1.0" xmlns="http://www.w3.org/2000/svg"
 width="904.000000pt" height="1280.000000pt" viewBox="0 0 904.000000 1280.000000"
 preserveAspectRatio="xMidYMid meet">

<g transform="translate(0.000000,1280.000000) scale(0.100000,-0.100000)"
fill="#000000" stroke="none">
<path d="M0 6400 l0 -6400 4520 0 4520 0 0 6400 0 6400 -4520 0 -4520 0 0
-6400z m1732 6113 c-18 -37 -131 -270 -152 -316 -12 -26 -30 -52 -40 -57 -20
-11 -1332 -15 -1343 -4 -6 6 8 42 60 154 17 36 49 104 71 153 l41 87 686 0
c650 0 685 -1 677 -17z m157 -119 c25 -31 27 -74 6 -114 -27 -52 -88 -66 -134
-31 -37 28 -35 101 4 141 39 40 94 42 124 4z m181 17 c0 -28 -14 -41 -46 -41
-38 0 -47 -17 -11 -22 14 -2 23 -11 25 -25 3 -19 -1 -23 -26 -23 -24 0 -31 -5
-38 -32 -8 -26 -15 -33 -34 -33 -28 0 -28 0 -10 113 l12 72 64 0 c35 0 64 -4
64 -9z m134 0 c13 -21 -7 -41 -40 -41 -19 0 -34 -4 -34 -10 0 -5 12 -10 26
-10 21 0 25 -4 22 -22 -2 -17 -11 -24 -30 -26 -22 -3 -30 -10 -36 -35 -6 -25
-14 -32 -33 -32 -21 0 -24 4 -22 35 2 19 8 61 14 93 l12 57 58 0 c32 0 60 -4
63 -9z m144 -13 c-2 -19 -10 -24 -40 -26 -45 -4 -51 -22 -8 -22 23 0 30 -4 30
-20 0 -12 -7 -20 -17 -21 -41 -3 -46 -5 -50 -16 -3 -9 7 -13 32 -13 32 0 36
-3 33 -22 -3 -21 -10 -23 -62 -26 -32 -2 -62 1 -67 5 -4 4 -1 46 7 93 7 47 14
86 14 88 0 1 30 2 66 2 62 0 65 -1 62 -22z m152 2 c24 -24 25 -48 4 -78 -8
-12 -14 -37 -12 -55 2 -27 -1 -33 -19 -35 -17 -3 -26 5 -39 35 -9 21 -18 34
-19 28 -2 -5 -6 -22 -9 -37 -5 -21 -12 -28 -30 -28 -12 0 -25 2 -28 5 -4 5 17
143 27 173 7 21 102 15 125 -8z m2047 -459 c23 -11 49 -31 59 -45 18 -29 31
-147 20 -191 -6 -24 -10 -26 -59 -23 l-52 3 -3 62 c-3 70 -22 97 -49 71 -13
-13 -16 -55 -19 -254 -3 -236 1 -274 31 -274 21 0 35 32 35 79 0 62 7 71 56
71 56 0 63 -14 55 -115 -8 -93 -19 -118 -64 -142 -82 -43 -222 4 -215 72 1 11
-1 26 -6 33 -4 7 -7 135 -7 283 2 309 7 336 70 369 46 24 95 25 148 1z m1014
-3 c54 -30 73 -75 71 -167 -1 -41 -5 -78 -10 -83 -5 -5 -29 -8 -53 -6 l-44 3
-5 62 c-6 70 -21 94 -48 77 -14 -9 -18 -33 -22 -160 -7 -219 1 -354 22 -368
24 -15 31 -4 43 72 l11 67 50 0 49 0 -1 -93 c-1 -102 -14 -134 -69 -161 -82
-40 -214 9 -203 77 1 9 -2 24 -7 32 -6 9 -11 125 -12 270 -3 303 4 339 72 377
51 29 106 29 156 1z m-2923 -4 c9 -3 12 -20 10 -56 l-3 -53 -70 -5 -70 -5 2
-88 c1 -49 4 -91 6 -94 3 -2 30 -7 60 -10 62 -6 72 -20 59 -83 -8 -35 -8 -35
-65 -38 l-56 -3 -3 -157 -3 -157 -52 -3 c-48 -3 -53 -1 -58 20 -3 13 -4 183
-3 378 l3 355 80 6 c75 5 133 3 163 -7z m297 -13 c50 -29 67 -70 72 -185 7
-123 2 -145 -37 -190 l-30 -34 55 -161 c31 -89 53 -166 50 -171 -5 -9 -101 -7
-110 2 -3 3 -19 55 -35 114 -32 122 -46 164 -56 164 -4 0 -4 -59 -1 -130 4
-72 4 -137 1 -145 -7 -17 -99 -22 -109 -6 -3 5 -5 99 -5 208 1 231 2 198 -6
392 -5 112 -3 155 5 160 21 14 174 0 206 -18z m286 17 c2 -7 2 -179 -1 -383
l-5 -370 -50 0 -50 0 -5 225 c-3 124 -3 292 -1 373 3 141 4 149 25 157 32 13
83 12 87 -2z m370 -9 c5 -8 9 -31 9 -51 0 -43 -26 -64 -67 -53 -14 3 -38 3
-53 0 -27 -6 -28 -8 -33 -93 -6 -102 1 -112 75 -112 l48 0 0 -59 c0 -67 -11
-77 -72 -66 -54 9 -59 -1 -56 -101 l3 -89 70 -5 70 -5 3 -45 c5 -64 -8 -70
-145 -70 l-113 0 0 363 c0 382 1 389 45 400 42 11 207 0 216 -14z m326 -26
c37 -31 42 -40 49 -90 4 -31 4 -162 0 -292 -6 -205 -10 -241 -27 -277 -10 -22
-31 -46 -45 -52 -14 -7 -67 -12 -118 -12 -80 0 -95 3 -101 18 -11 27 -5 724 6
738 7 8 38 10 102 7 86 -5 94 -8 134 -40z m897 41 c14 -5 16 -28 16 -144 0
-76 3 -145 6 -154 7 -19 50 -21 56 -3 3 6 4 71 2 143 -4 160 1 170 69 160 26
-4 47 -10 47 -14 1 -28 1 -693 1 -715 -1 -36 -34 -52 -82 -40 l-34 9 -5 155
-5 154 -25 0 -25 0 -3 -149 c-1 -90 -7 -155 -14 -163 -6 -7 -25 -13 -43 -13
-69 0 -65 -20 -65 324 0 171 3 341 6 378 6 62 9 67 33 71 46 7 49 7 65 1z
m414 -368 c2 -264 -1 -373 -9 -382 -14 -17 -83 -18 -97 -1 -6 7 -9 145 -8 375
1 404 -3 384 71 380 l40 -3 3 -369z m613 352 c8 -15 9 -53 5 -125 -5 -65 -4
-103 2 -103 10 0 72 181 72 207 0 6 7 19 16 27 19 20 102 22 110 3 4 -12 -25
-101 -107 -325 -18 -50 -19 -55 -3 -110 9 -31 26 -75 36 -96 16 -30 18 -44 10
-57 -8 -13 -8 -19 3 -23 17 -6 21 -36 5 -36 -19 0 -10 -35 13 -45 26 -12 36
-59 14 -68 -8 -3 -32 -3 -54 0 -44 6 -47 12 -85 161 -32 125 -41 110 -39 -68
2 -84 -4 -92 -65 -88 l-49 3 1 373 c1 413 -3 392 66 392 28 0 40 -5 49 -22z
m529 7 c5 -3 10 -28 10 -54 0 -45 -2 -49 -27 -54 -16 -3 -40 -3 -54 0 -15 3
-36 0 -48 -6 -19 -11 -21 -20 -21 -101 0 -100 -3 -96 85 -102 l40 -3 3 -52 c3
-44 0 -53 -18 -63 -11 -6 -35 -8 -55 -4 -52 9 -65 -7 -64 -80 1 -33 4 -74 8
-90 6 -29 6 -30 74 -27 l67 2 0 -49 c0 -30 -5 -54 -14 -61 -9 -8 -52 -11 -127
-9 l-114 3 -1 330 c0 182 2 350 5 375 6 40 10 46 36 52 34 8 200 3 215 -7z
m209 -32 c5 -21 17 -78 26 -128 10 -49 22 -101 27 -115 l10 -25 9 23 c9 23 24
29 34 12 3 -5 -4 -19 -17 -32 -17 -17 -19 -23 -7 -26 8 -3 22 -11 32 -20 15
-14 17 -13 17 1 0 9 -4 18 -10 22 -6 4 -6 15 1 32 7 19 6 31 -6 47 -8 11 -21
30 -29 41 -13 18 -19 79 -17 173 1 32 1 32 51 32 57 0 53 11 50 -125 -1 -49
-5 -94 -10 -99 -5 -5 -5 -16 -1 -25 5 -9 9 -57 9 -108 0 -82 -1 -91 -16 -85
-15 5 -15 4 1 -21 18 -28 24 -72 8 -62 -5 3 -12 1 -16 -5 -3 -5 1 -10 9 -10
15 0 23 -47 18 -105 -1 -11 -2 -27 -3 -35 0 -8 -2 -30 -5 -47 -5 -31 -7 -33
-48 -33 -56 0 -67 14 -69 92 -1 35 -8 69 -14 76 -7 7 -13 25 -13 40 -1 15 -7
41 -15 57 l-13 30 -2 -30 c-1 -16 -1 -83 0 -147 l2 -118 -56 0 -55 0 -3 128
c-2 70 -2 241 0 380 l3 252 54 0 54 0 10 -37z m-2899 -902 c31 -22 49 -71 49
-136 1 -66 -7 -77 -55 -73 l-39 3 -5 52 c-6 58 -12 68 -35 60 -11 -5 -15 -23
-17 -74 -4 -148 3 -348 12 -357 17 -17 34 10 40 62 l5 47 42 3 c38 3 43 1 49
-23 8 -31 -2 -116 -18 -150 -13 -30 -64 -55 -111 -55 -48 0 -99 37 -110 80 -4
19 -8 137 -8 262 0 190 3 234 16 262 30 62 124 81 185 37z m-667 8 c45 -20 59
-62 58 -164 0 -51 -6 -104 -12 -118 -9 -19 -9 -34 0 -58 6 -17 11 -74 11 -125
0 -81 -3 -97 -20 -114 -11 -11 -17 -20 -12 -20 4 -1 -4 -10 -17 -20 -19 -16
-38 -20 -107 -20 l-84 0 -1 113 c-3 237 1 273 29 280 13 4 12 5 -4 6 -27 1
-30 22 -26 154 l3 97 79 0 c44 0 90 -5 103 -11z m377 -209 c1 -113 1 -212 0
-220 -1 -8 0 -42 1 -75 1 -33 -1 -70 -5 -82 -16 -50 -114 -79 -180 -53 -54 20
-60 51 -64 341 -3 237 -1 268 13 283 10 10 27 15 43 12 15 -2 30 -5 35 -5 4
-1 7 -115 7 -255 0 -220 2 -257 16 -271 12 -12 19 -13 30 -4 11 9 14 62 14
275 l0 263 38 3 c20 2 40 1 44 -2 3 -3 7 -97 8 -210z m508 118 c1 -54 6 -98
10 -98 4 0 20 43 36 95 32 103 40 111 101 99 42 -7 44 8 -27 -179 -55 -145
-56 -170 -14 -262 18 -37 21 -54 13 -62 -8 -8 -7 -11 2 -11 9 0 11 -8 7 -26
-5 -20 -2 -30 14 -41 11 -8 20 -25 20 -39 0 -24 -3 -25 -47 -22 l-46 3 -18 55
c-9 30 -22 75 -29 98 -6 24 -14 41 -17 38 -3 -3 -5 -42 -4 -87 0 -48 -4 -87
-10 -95 -14 -17 -71 -18 -86 -3 -14 14 -5 609 10 627 6 8 25 12 46 10 l36 -3
3 -97z m451 87 c7 -8 5 -71 -4 -84 -3 -6 -30 -11 -60 -11 l-53 0 -4 -67 c-5
-91 2 -103 57 -103 l45 0 0 -50 c0 -54 1 -53 -65 -54 l-40 -1 -3 -63 c-4 -85
3 -95 69 -96 l54 -1 3 -36 c5 -59 -13 -69 -124 -69 -68 0 -94 3 -94 13 -3 120
2 601 6 611 3 8 15 17 27 19 28 6 178 -1 186 -8z m749 -1 c12 -8 22 -22 22
-30 0 -8 4 -14 9 -14 20 0 31 -109 31 -297 0 -178 -2 -201 -21 -239 -15 -32
-29 -46 -56 -55 -79 -26 -156 11 -172 82 -4 19 -5 141 -3 272 l4 237 28 30
c24 26 35 30 82 30 32 0 62 -6 76 -16z m635 -4 c5 -4 7 -25 5 -46 l-3 -39 -52
-3 c-28 -2 -56 -9 -62 -16 -7 -8 -8 -38 -4 -78 6 -71 12 -78 75 -78 31 0 41
-22 30 -65 -8 -27 -13 -30 -55 -33 l-47 -3 0 -129 0 -130 -25 -6 c-14 -3 -36
-3 -50 0 l-25 6 0 315 0 314 68 4 c75 3 133 -2 145 -13z m260 10 c27 0 28 -1
25 -47 l-3 -48 -57 -3 -56 -3 -4 -71 c-4 -84 5 -98 63 -98 l39 0 0 -50 c0 -54
3 -51 -70 -54 -35 -1 -35 -1 -38 -51 -2 -27 -1 -64 3 -81 5 -31 6 -31 56 -26
56 5 69 -4 69 -50 0 -46 -21 -56 -119 -57 -50 0 -93 3 -96 8 -7 13 -7 594 1
614 7 19 43 26 109 21 28 -2 63 -4 78 -4z m-1365 -47 c-3 -46 -5 -48 -35 -51
-24 -2 -33 -9 -37 -28 -4 -14 -6 -130 -6 -257 1 -128 1 -238 1 -244 -2 -22
-79 -16 -91 6 -12 24 -14 198 -1 205 16 10 19 57 5 63 -11 4 -14 32 -14 124 0
107 -2 119 -17 119 -32 1 -53 25 -53 62 0 19 3 38 7 41 3 4 60 7 125 7 l119 0
-3 -47z m827 -3 l0 -45 -57 -3 c-67 -4 -71 -10 -62 -97 7 -68 14 -75 77 -75
27 0 28 -1 25 -47 l-3 -48 -47 -3 -48 -3 0 -129 c0 -128 0 -130 -24 -136 -13
-3 -35 -4 -47 -2 l-24 3 -3 318 -2 318 107 -3 108 -3 0 -45z m800 38 c46 -21
65 -75 65 -182 0 -86 -2 -97 -25 -124 -14 -17 -25 -37 -25 -45 0 -9 20 -72 44
-140 25 -69 42 -128 39 -131 -9 -9 -91 -7 -97 2 -3 5 -17 53 -31 108 -39 144
-46 147 -39 13 6 -108 5 -118 -12 -127 -18 -9 -73 -6 -83 4 -2 2 -6 146 -8
319 l-3 315 75 0 c41 0 86 -5 100 -12z m-3405 -878 c154 -25 259 -53 369 -97
341 -137 621 -395 786 -723 81 -162 151 -410 143 -512 -3 -38 -6 -43 -29 -46
-36 -4 -44 11 -59 103 -93 597 -563 1075 -1160 1181 -147 26 -368 25 -510 -3
-349 -70 -647 -255 -869 -541 l-33 -43 56 -53 c30 -29 63 -72 72 -95 9 -22 20
-41 25 -41 4 0 26 26 47 58 22 31 69 89 106 128 358 387 938 488 1411 247 80
-41 208 -129 244 -167 25 -26 61 -35 61 -15 0 17 47 5 116 -28 44 -22 58 -34
56 -47 -2 -10 -41 -89 -88 -176 -46 -87 -84 -164 -84 -171 0 -7 12 -2 28 13
36 33 92 58 131 58 21 0 31 5 31 15 0 21 13 19 28 -5 7 -11 18 -20 25 -20 7 0
34 -13 60 -30 193 -122 108 -392 -124 -392 -69 0 -101 16 -161 80 -50 54 -63
90 -56 166 5 63 -3 52 -115 -159 -53 -99 -102 -181 -110 -183 -24 -5 -177 58
-177 73 0 7 17 44 39 82 21 37 54 100 73 138 59 118 145 273 163 295 7 8 40
66 74 128 41 74 59 117 54 127 -16 28 -160 136 -248 184 -334 184 -726 194
-1069 28 -186 -90 -349 -230 -459 -394 l-46 -68 11 -55 c5 -30 8 -95 5 -145
-6 -118 -34 -194 -88 -237 l-40 -32 35 -31 c77 -66 107 -204 94 -425 -15 -275
-123 -408 -356 -442 -155 -23 -335 25 -396 105 -75 98 -108 226 -104 397 l3
115 168 2 168 2 4 206 c3 113 7 211 10 216 4 5 15 9 26 9 12 0 19 7 19 20 0
54 23 121 46 137 37 24 46 6 29 -51 -8 -27 -15 -58 -15 -70 0 -19 2 -19 28 7
25 25 27 34 26 102 0 105 -33 147 -100 131 -32 -8 -54 -54 -54 -114 0 -26 -5
-53 -12 -60 -8 -8 -59 -12 -164 -12 -124 0 -154 3 -164 15 -11 13 -11 37 -2
116 29 265 171 372 472 355 l105 -6 55 71 c257 338 653 552 1089 588 151 13
168 12 301 -9z m2305 -422 c3 -13 16 -97 29 -188 48 -325 139 -918 151 -972 7
-37 -12 -41 -170 -37 -106 3 -125 2 -126 -11 0 -10 -3 -8 -9 5 -5 11 -9 16 -9
11 -1 -5 -7 -4 -14 2 -7 6 -13 38 -15 74 -1 35 -5 80 -8 101 -6 35 -7 37 -45
37 -48 0 -59 -21 -59 -110 0 -32 -4 -70 -9 -84 -6 -14 -6 -26 -1 -28 10 -3
-211 -3 -294 0 l-48 2 5 58 c3 31 10 84 15 117 6 33 13 87 17 120 3 33 13 105
21 160 8 55 19 129 24 165 62 455 80 591 80 595 0 3 103 5 230 5 l230 0 5 -22z
m543 -460 l2 -478 95 0 96 0 -3 -127 -3 -127 -250 -4 c-173 -3 -253 -8 -258
-16 -5 -6 -6 180 -3 413 3 233 6 514 6 623 l0 199 158 -3 157 -3 3 -477z m572
214 c0 -148 3 -364 7 -480 l6 -211 90 -3 90 -3 0 -118 c0 -65 -2 -120 -5 -122
-2 -2 -116 -5 -253 -6 l-250 -1 -3 606 -2 606 160 0 160 0 0 -268z m-3929 -1
c109 -42 191 -137 221 -254 16 -64 18 -123 18 -545 0 -525 -1 -538 -65 -637
-57 -89 -141 -142 -260 -164 -106 -20 -238 -6 -314 33 -48 25 -126 103 -153
153 -58 106 -61 136 -59 618 2 462 7 518 49 617 40 92 125 163 232 193 81 22
257 15 331 -14z m829 -51 c21 -11 55 -43 76 -71 34 -47 38 -59 38 -113 1 -185
-212 -288 -357 -173 -47 37 -87 116 -87 173 0 51 42 137 82 165 71 51 171 58
248 19z m995 -756 c22 -9 45 -57 38 -82 -3 -13 -1 -22 6 -22 6 0 11 -4 11 -10
0 -5 -7 -7 -16 -3 -13 5 -15 1 -9 -18 4 -17 3 -20 -3 -10 -6 8 -15 10 -22 6
-15 -9 -84 -25 -76 -18 3 3 -6 14 -19 25 -33 26 -35 88 -3 118 22 20 61 26 93
14z m362 -16 c-3 -8 -6 -5 -6 6 -1 11 2 17 5 13 3 -3 4 -12 1 -19z m-677 -45
c0 -64 -9 -110 -19 -95 -9 15 -1 152 10 152 5 0 9 -26 9 -57z m647 25 c-3 -7
-5 -2 -5 12 0 14 2 19 5 13 2 -7 2 -19 0 -25z m-270 -50 c-3 -8 -6 -5 -6 6 -1
11 2 17 5 13 3 -3 4 -12 1 -19z m256 -83 c-3 -9 -8 -14 -10 -11 -3 3 -2 9 2
15 9 16 15 13 8 -4z m-76 -2 c-4 -3 -2 -12 4 -20 9 -9 8 -13 0 -13 -6 0 -11 2
-11 4 0 2 -3 11 -6 20 -4 10 -1 16 7 16 7 0 9 -3 6 -7z m46 -13 c3 -13 0 -20
-9 -20 -8 0 -14 9 -14 20 0 11 4 20 9 20 5 0 11 -9 14 -20z m338 10 c10 0 19
-4 19 -9 0 -10 -58 3 -69 15 -3 4 2 4 12 1 10 -4 27 -7 38 -7z m679 0 c0 -5
-4 -10 -10 -10 -5 0 -10 5 -10 10 0 6 5 10 10 10 6 0 10 -4 10 -10z m-430 -20
c0 -5 -5 -10 -11 -10 -5 0 -7 5 -4 10 3 6 8 10 11 10 2 0 4 -4 4 -10z m-713
-22 c-3 -8 -6 -5 -6 6 -1 11 2 17 5 13 3 -3 4 -12 1 -19z m276 15 c-24 -2 -62
-2 -85 0 -24 2 -5 4 42 4 47 0 66 -2 43 -4z m125 0 c-10 -2 -28 -2 -40 0 -13
2 -5 4 17 4 22 1 32 -1 23 -4z m1253 -14 c22 -7 60 -30 84 -51 51 -45 63 -84
66 -223 1 -72 5 -91 18 -97 13 -5 12 -7 -4 -7 -17 -1 -18 -3 -5 -12 11 -8 7
-9 -17 -5 -27 4 -33 2 -34 -12 -1 -13 -2 -13 -5 -2 -4 12 -23 15 -97 15 l-92
0 -5 117 c-5 114 -13 146 -29 119 -5 -7 -14 -10 -20 -7 -6 4 -11 2 -11 -3 0
-6 5 -11 10 -11 7 0 7 -6 1 -18 -11 -20 -10 -72 2 -72 4 0 8 -19 8 -42 l1 -43
8 53 c4 29 10 55 11 57 2 2 4 -35 4 -81 0 -56 -4 -84 -11 -84 -8 0 -10 -15 -6
-46 3 -33 1 -49 -9 -55 -10 -6 -10 -9 -1 -9 6 0 12 -7 12 -15 0 -8 5 -15 10
-15 6 0 10 -4 10 -10 0 -6 -5 -9 -12 -7 -8 1 -13 -18 -16 -57 -3 -45 -1 -57
10 -54 8 3 14 22 14 49 l2 44 -8 -45 -7 -45 -1 42 c-1 27 3 45 12 50 8 4 16
22 18 38 l3 30 120 0 120 0 -2 -102 c-1 -59 2 -105 8 -109 5 -3 7 -14 4 -24
-3 -10 -1 -21 4 -25 7 -3 8 0 5 9 -4 11 0 16 14 16 18 0 21 -7 25 -57 2 -32 3
134 3 369 -1 348 1 429 12 433 19 7 197 6 216 -1 13 -5 16 -27 17 -138 l0
-131 43 135 42 135 107 3 c97 2 107 1 107 -15 0 -10 -27 -100 -60 -201 l-59
-183 46 -152 c25 -84 57 -189 71 -235 14 -45 22 -85 18 -89 -4 -4 -46 -6 -94
-5 -54 2 -82 -1 -74 -6 10 -7 7 -11 -12 -14 -14 -3 -23 -1 -20 3 3 5 -3 9 -13
9 -27 0 -43 20 -43 52 0 15 -5 28 -11 28 -6 0 -9 6 -6 14 7 18 -23 126 -34
126 -5 0 -9 -44 -9 -97 0 -109 -7 -146 -23 -136 -16 10 -107 11 -101 1 5 -8
-11 -12 -30 -9 -5 1 -4 -5 4 -13 16 -20 30 -20 30 -1 0 19 14 19 31 -1 10 -13
10 -17 -1 -24 -10 -6 -8 -14 9 -39 12 -17 27 -31 32 -31 5 0 9 -13 9 -28 0
-24 7 -32 40 -48 24 -11 40 -26 40 -36 0 -10 -4 -18 -10 -18 -5 0 -10 -18 -10
-40 0 -28 4 -40 14 -40 15 0 29 -37 31 -85 2 -27 -1 -31 -24 -30 -19 0 -27 -6
-29 -22 -2 -16 2 -23 12 -23 9 0 16 -8 16 -20 0 -16 -7 -20 -35 -20 -19 0 -35
-3 -35 -7 0 -5 -3 -17 -6 -28 -5 -19 -1 -20 35 -17 33 3 41 1 41 -12 0 -9 8
-16 20 -16 16 0 20 -7 20 -32 0 -30 0 -31 -20 -13 -20 18 -20 17 -20 -8 0 -14
5 -27 12 -29 8 -3 2 -15 -16 -32 -20 -21 -30 -26 -39 -17 -6 6 -22 10 -37 10
-20 -1 -21 -2 -5 -6 11 -3 28 -11 39 -18 10 -8 25 -11 34 -8 11 5 13 3 7 -7
-5 -9 -4 -11 3 -6 6 4 20 -2 32 -14 11 -11 27 -20 36 -20 8 0 13 -4 10 -9 -3
-5 1 -14 9 -21 8 -7 15 -25 15 -40 0 -16 3 -30 8 -32 4 -1 18 -16 30 -33 l24
-30 -7 28 -7 27 31 -27 c34 -30 39 -50 16 -59 -11 -4 -15 -21 -15 -59 0 -29
-7 -66 -15 -81 -13 -26 -13 -29 0 -32 8 -2 15 -9 15 -15 0 -12 129 -137 142
-137 4 0 8 -8 8 -19 0 -10 11 -34 24 -54 13 -19 27 -44 30 -55 4 -11 23 -30
42 -41 20 -12 41 -36 49 -56 17 -40 19 -59 6 -50 -5 3 -12 1 -16 -5 -3 -5 2
-10 12 -10 10 0 24 -4 32 -9 12 -8 11 -15 -10 -45 -29 -43 -48 -52 -68 -31 -8
8 -10 15 -5 15 8 0 8 11 1 39 -6 22 -14 38 -19 35 -4 -3 -8 1 -8 8 0 31 -34
-25 -36 -58 -1 -33 3 -38 48 -62 45 -25 48 -29 42 -57 -4 -16 -8 -51 -8 -77
-1 -30 -8 -53 -20 -67 -26 -29 -34 -13 -30 57 3 45 -1 62 -16 80 -21 26 -40
22 -40 -9 0 -14 -7 -19 -25 -19 -24 0 -25 2 -19 40 4 22 4 40 1 40 -3 0 -20
-15 -37 -32 l-32 -33 38 75 c20 41 48 87 61 101 16 18 21 29 14 34 -14 8 -70
-35 -70 -56 -1 -8 -8 -24 -16 -35 -13 -18 -14 -16 -15 28 0 36 6 54 26 77 14
17 32 31 40 31 8 0 14 6 14 14 0 22 -49 56 -80 56 -24 0 -26 3 -22 31 6 38
-12 73 -45 88 -19 9 -29 9 -39 0 -16 -13 -34 -4 -34 17 0 8 -7 17 -15 20 -16
6 -21 44 -6 44 5 0 12 12 15 26 6 21 10 23 21 14 12 -10 12 -6 4 26 -9 30 -7
43 7 70 23 43 8 84 -31 84 -20 0 -25 5 -25 26 0 24 -3 25 -27 19 -39 -9 -39
-10 -9 -45 14 -17 26 -37 26 -43 0 -7 9 -23 20 -37 32 -41 20 -83 -20 -73 -22
6 -36 51 -21 66 6 6 11 15 11 19 0 14 -38 9 -54 -8 -14 -14 -23 -12 -92 22
-77 38 -78 40 -59 88 6 14 4 17 -10 14 -11 -2 -22 -16 -27 -37 l-9 -33 -55 4
c-43 4 -58 1 -75 -15 -13 -12 -29 -17 -45 -14 -28 5 -31 -5 -8 -24 32 -26 122
-50 219 -57 98 -7 100 -7 120 -39 22 -35 40 -42 49 -18 3 8 11 15 18 15 9 0
12 -13 9 -46 -2 -25 2 -51 8 -57 6 -6 11 -18 11 -27 0 -9 9 -25 20 -35 15 -14
20 -31 20 -71 0 -29 4 -55 9 -59 17 -10 41 -67 41 -95 0 -15 9 -35 20 -45 10
-9 19 -20 18 -24 -1 -3 2 -18 6 -33 5 -18 3 -34 -9 -51 -15 -24 -15 -28 4 -66
29 -56 27 -141 -3 -141 -18 0 -46 81 -43 125 2 32 -2 40 -17 43 -10 2 -30 17
-43 33 -14 16 -34 29 -44 29 -23 0 -35 25 -21 43 17 20 26 190 12 231 -13 42
-17 43 -45 16 -17 -16 -24 -17 -44 -7 -32 16 -38 37 -12 44 13 3 21 13 21 27
0 28 -57 60 -92 51 -22 -6 -26 -2 -34 27 -7 23 -17 34 -32 36 -19 3 -22 -1
-22 -27 0 -25 4 -30 27 -33 39 -4 42 -28 3 -28 -27 0 -30 -3 -25 -20 5 -15 0
-21 -20 -26 -14 -3 -30 -14 -35 -23 -9 -14 -13 -12 -35 14 -21 25 -25 27 -25
11 0 -11 -15 -32 -32 -47 -18 -15 -30 -30 -26 -34 4 -4 19 5 33 19 33 33 39
33 30 -1 -4 -16 -7 -36 -7 -45 1 -22 -7 -23 -22 -2 -7 8 -31 18 -54 21 -35 5
-43 10 -49 31 -3 14 -2 27 3 29 37 13 40 53 4 53 -20 0 -32 -23 -24 -43 3 -8
-2 -20 -11 -27 -8 -7 -15 -21 -15 -31 0 -11 -7 -19 -16 -19 -13 0 -16 7 -11
38 3 20 8 45 12 55 6 14 1 17 -29 17 -20 0 -36 -5 -36 -10 0 -20 -31 -23 -45
-4 -14 18 -15 18 -34 -6 l-20 -25 -10 28 c-9 22 -15 26 -34 22 -22 -6 -23 -4
-21 39 2 25 0 46 -4 46 -18 -1 -34 -20 -29 -34 5 -12 0 -16 -16 -17 -17 -1
-18 -2 -4 -6 9 -2 17 -12 17 -20 0 -9 7 -21 17 -28 9 -7 13 -17 9 -23 -10 -16
-26 -15 -26 1 -1 19 -45 47 -60 37 -7 -4 -23 -4 -34 1 -12 6 -44 6 -76 2 -46
-7 -55 -12 -58 -31 -2 -14 -10 -22 -23 -22 -10 0 -19 -4 -19 -9 0 -12 -50 -64
-56 -58 -3 2 1 16 7 30 11 24 9 30 -28 67 -23 22 -48 40 -56 40 -9 0 -21 9
-28 21 -9 17 -17 20 -42 15 -17 -4 -33 -10 -37 -15 -3 -5 -19 -9 -35 -10 -17
0 -40 0 -52 -1 -40 -1 -20 -50 19 -50 10 0 18 -4 18 -9 0 -5 3 -18 7 -28 6
-17 6 -17 -15 0 -18 17 -24 17 -58 5 -20 -7 -39 -21 -42 -31 -3 -11 -10 -16
-19 -13 -8 3 -19 6 -24 6 -16 0 -10 17 16 43 15 14 28 40 30 61 5 38 -3 44
-35 24 -16 -10 -23 -9 -40 7 -22 20 -22 20 -50 -12 -16 -17 -38 -36 -49 -43
-12 -6 -21 -17 -21 -24 0 -8 -11 -13 -25 -13 -30 0 -30 0 -4 54 12 24 18 47
14 51 -7 7 -49 -37 -58 -60 -2 -7 -8 -9 -13 -5 -4 4 -3 17 4 27 6 11 9 26 6
35 -4 10 0 15 10 15 9 0 25 9 36 20 20 20 22 20 50 3 28 -16 30 -16 48 0 11
10 26 15 33 12 15 -6 87 60 77 70 -7 8 -189 -32 -201 -44 -6 -6 -18 -11 -26
-11 -8 0 -23 -8 -33 -17 -14 -13 -21 -14 -30 -5 -21 21 -32 13 -53 -34 -17
-38 -24 -45 -43 -41 -31 6 -72 -32 -72 -67 0 -27 15 -35 23 -13 3 7 6 5 6 -5
1 -10 -4 -18 -10 -18 -7 0 -9 -11 -6 -30 4 -16 2 -32 -3 -35 -5 -3 -17 -21
-26 -40 -19 -41 -12 -60 17 -45 11 6 24 8 29 5 12 -7 14 -115 3 -115 -17 1
-48 32 -48 48 0 29 -30 19 -33 -10 -4 -31 -28 -37 -62 -16 -22 14 -25 12 -34
-22 -4 -14 -4 -20 1 -14 11 17 76 -13 88 -40 6 -12 7 -43 4 -71 -3 -27 -7 -43
-7 -34 -1 9 -9 22 -17 29 -8 7 -15 23 -15 36 0 16 -11 29 -37 44 -50 28 -69
67 -46 92 14 16 14 18 0 18 -8 0 -17 5 -19 11 -3 8 -14 6 -37 -5 -18 -10 -34
-16 -36 -14 -1 2 -12 22 -24 45 -11 23 -25 44 -31 48 -6 4 -5 13 2 25 10 15
10 22 0 32 -6 6 -12 20 -12 30 0 10 -5 18 -10 18 -16 0 -26 -33 -12 -38 14 -4
16 -62 2 -62 -5 0 -10 -9 -10 -20 0 -30 28 -80 45 -80 8 0 15 -6 15 -14 0 -7
7 -19 15 -26 8 -7 15 -21 15 -32 0 -17 4 -19 27 -14 17 5 29 3 34 -6 12 -19
11 -66 -2 -70 -7 -2 -3 -17 10 -41 24 -43 25 -47 11 -47 -5 0 -10 6 -10 14 0
8 -7 16 -15 20 -8 3 -15 18 -15 33 0 22 -8 31 -33 43 -29 14 -78 81 -76 105 4
36 -23 51 -35 20 -4 -12 -10 -13 -25 -6 -18 10 -19 7 -19 -39 -1 -28 -3 -59
-7 -69 -3 -10 2 -34 10 -55 13 -32 14 -37 1 -42 -8 -3 -23 -1 -32 4 -13 7 -21
6 -29 -5 -8 -11 -23 -13 -64 -7 -48 6 -55 10 -67 40 -8 19 -19 34 -25 34 -6 0
-18 9 -28 21 -16 21 -17 21 -56 2 -22 -10 -43 -23 -48 -30 -10 -15 -37 -6 -37
13 0 8 6 23 13 35 10 17 9 22 -4 29 -9 5 -27 18 -40 29 -19 15 -21 22 -12 32
15 15 5 71 -14 82 -7 4 -13 17 -13 27 0 10 -6 23 -13 27 -23 14 -47 57 -47 84
0 15 5 51 12 79 10 43 23 63 75 116 36 36 57 64 48 64 -8 0 -15 -4 -15 -10 0
-5 -11 -10 -24 -10 -25 0 -66 -41 -66 -66 0 -8 -8 -14 -19 -14 -21 0 -36 -15
-61 -63 -10 -18 -27 -33 -39 -35 -24 -4 -28 14 -6 38 13 14 13 19 -1 38 -8 12
-25 22 -36 22 -20 0 -20 -1 -5 -18 22 -24 9 -37 -15 -15 -17 15 -19 15 -32 -3
-12 -15 -17 -17 -27 -6 -7 6 -23 12 -36 12 -36 0 -29 -34 12 -56 11 -6 20 -17
20 -25 0 -21 -36 -17 -49 6 -6 11 -17 24 -24 28 -10 6 -10 12 -2 22 13 16 -1
28 -24 19 -18 -7 -21 -20 -6 -29 6 -4 8 -11 4 -16 -3 -5 -10 -7 -15 -4 -5 4
-9 -6 -9 -20 0 -21 -7 -29 -30 -38 -25 -10 -30 -16 -25 -35 l5 -22 -36 19
c-33 18 -39 18 -82 4 -26 -8 -56 -15 -67 -14 -10 0 -25 -5 -33 -12 -17 -13
-49 -32 -78 -46 -12 -5 -28 -18 -35 -28 -8 -10 -26 -26 -42 -36 -22 -14 -26
-23 -21 -42 5 -19 2 -25 -10 -25 -9 0 -16 7 -16 15 0 18 -5 18 -53 2 -54 -19
-64 -32 -44 -55 22 -24 22 -27 -9 -28 -27 -2 -53 -29 -54 -55 0 -21 -24 -31
-39 -16 -8 8 -14 6 -25 -8 -8 -11 -19 -16 -30 -12 -23 9 -20 37 4 37 11 0 20
4 20 8 0 14 -66 8 -84 -7 -18 -15 -53 -18 -79 -6 -15 6 -17 3 -15 -23 1 -16
-3 -37 -10 -45 -10 -11 -9 -17 1 -26 11 -8 18 -6 32 9 28 31 49 26 42 -10 -4
-17 -2 -30 3 -30 6 0 10 5 10 10 0 6 11 15 25 20 14 5 25 14 25 20 0 5 7 10
15 10 19 0 20 -29 1 -36 -9 -3 -14 -18 -14 -35 1 -22 4 -26 14 -18 7 5 32 9
56 7 40 -3 43 -5 46 -34 2 -25 7 -31 21 -27 22 6 36 -24 20 -43 -6 -8 -30 -14
-53 -14 -22 -1 -70 -7 -106 -15 -36 -7 -77 -11 -91 -8 -19 4 -33 -1 -49 -17
-19 -19 -25 -20 -51 -10 -16 7 -29 16 -29 21 0 16 -28 9 -34 -8 -4 -10 -1 -20
9 -25 10 -6 13 -17 9 -35 -8 -28 7 -43 44 -43 19 0 22 4 17 20 -10 32 19 25
32 -7 9 -25 11 -26 18 -9 5 11 3 21 -5 26 -7 4 -10 15 -7 24 5 12 14 15 34 10
16 -4 32 -11 38 -15 15 -15 25 -10 25 11 0 34 36 23 71 -21 27 -35 31 -44 21
-60 -9 -14 -9 -25 0 -45 11 -24 10 -28 -12 -45 -32 -24 -36 -28 -61 -62 -16
-22 -24 -25 -35 -17 -13 12 -34 6 -34 -9 0 -23 77 -79 176 -127 61 -30 116
-54 123 -54 18 0 13 24 -9 38 -14 9 -19 19 -15 35 5 20 -13 118 -30 159 -4 11
1 22 19 33 14 10 26 23 26 31 0 7 11 21 25 30 14 9 25 23 25 30 0 8 7 17 15
20 8 4 15 14 15 24 0 9 9 29 20 43 11 14 20 30 20 36 0 6 12 11 26 11 26 0 27
2 21 45 -6 37 -4 43 9 38 8 -3 13 -12 10 -19 -3 -9 2 -14 15 -14 12 0 23 10
29 24 5 14 21 32 35 42 14 9 25 22 25 29 0 7 16 32 35 55 19 23 35 52 35 63 0
13 15 34 37 51 38 30 35 30 105 1 12 -5 21 2 33 24 18 35 43 40 90 15 16 -8
37 -13 47 -11 10 3 20 1 23 -4 3 -4 18 -6 33 -3 19 4 32 0 41 -9 8 -11 23 -14
45 -10 20 3 36 1 40 -6 4 -6 16 -11 28 -11 12 0 22 -8 25 -21 4 -13 12 -19 27
-17 25 3 46 -9 46 -26 0 -13 -12 -13 -108 2 -29 5 -55 5 -58 1 -2 -4 -28 -7
-57 -7 -28 1 -60 -3 -70 -7 -29 -12 -45 11 -21 31 18 15 18 15 -8 9 -16 -3
-28 -1 -28 5 0 13 -37 13 -45 -1 -4 -5 -8 -22 -10 -35 -4 -44 82 -83 113 -52
9 9 15 9 23 1 8 -8 18 -7 37 3 15 8 33 14 40 14 6 0 12 4 12 9 0 14 32 23 44
11 5 -5 20 -10 33 -10 13 0 23 -4 23 -10 0 -5 16 -10 35 -10 37 0 48 -14 18
-23 -10 -2 -25 -8 -34 -11 -11 -5 -18 -1 -21 12 -4 15 -12 17 -41 14 -20 -2
-42 -10 -48 -18 -6 -8 -19 -14 -29 -14 -28 0 -40 -22 -27 -46 25 -45 65 -82
95 -89 18 -3 32 -13 32 -20 0 -18 -17 -28 -22 -13 -2 6 -9 8 -16 4 -9 -5 -9
-11 0 -26 15 -24 3 -38 -21 -23 -14 9 -20 7 -29 -8 -7 -10 -21 -19 -32 -19
-15 0 -20 -7 -20 -24 0 -14 -9 -31 -21 -39 -23 -16 -31 -46 -18 -63 13 -16
-19 -40 -63 -48 -35 -6 -38 -5 -38 18 0 16 15 37 46 65 39 34 45 45 40 66 -4
14 -11 25 -16 25 -13 0 -40 -41 -40 -62 0 -24 -19 -23 -46 3 l-23 22 -13 -29
c-7 -16 -16 -31 -19 -34 -4 -3 -18 -27 -31 -55 -16 -35 -30 -51 -46 -53 -24
-4 -30 16 -11 35 8 8 9 20 1 42 -10 27 -9 31 7 31 25 0 32 21 15 45 -10 14
-14 15 -14 4 0 -24 -16 -40 -33 -33 -9 3 -17 11 -17 17 0 6 -7 18 -16 28 -14
16 -14 18 5 29 14 7 21 21 21 40 0 17 -2 30 -4 30 -18 0 -36 -16 -36 -32 0
-14 -5 -18 -19 -13 -10 3 -31 0 -45 -6 -20 -10 -29 -10 -38 -1 -18 18 -38 14
-38 -8 0 -11 6 -20 14 -20 19 0 39 -57 24 -66 -6 -4 -16 0 -23 9 -7 10 -17 17
-22 17 -6 0 -16 7 -23 15 -17 21 -24 12 -10 -14 6 -12 17 -21 26 -21 28 0 26
-29 -4 -60 -29 -29 -31 -29 -37 -10 -9 29 -28 20 -41 -20 -6 -18 -20 -43 -32
-54 -18 -20 -19 -27 -10 -76 6 -35 6 -61 0 -75 -6 -13 -6 -28 -1 -37 10 -18
160 -71 187 -66 10 1 40 -6 67 -15 48 -16 142 -36 339 -72 148 -27 229 -20
197 18 -12 16 -5 47 11 47 5 0 7 13 3 29 -5 22 -2 32 12 43 33 23 42 59 26 97
-14 32 -13 36 3 48 9 7 27 10 38 7 18 -4 23 1 33 37 9 35 8 47 -4 66 -14 21
-14 23 1 23 20 0 21 16 1 24 -23 8 -19 46 5 46 11 0 20 -4 20 -10 0 -5 4 -10
9 -10 5 0 7 9 4 20 -3 11 2 31 10 44 21 31 11 39 -24 21 -32 -17 -54 -20 -26
-4 23 13 22 29 -3 29 -25 0 -26 25 -2 39 16 9 16 10 -2 17 -20 8 -39 -12 -31
-33 2 -7 0 -13 -5 -13 -17 0 -11 -28 8 -39 16 -10 15 -12 -7 -29 -16 -13 -20
-22 -12 -26 16 -10 14 -26 -4 -26 -18 0 -55 30 -55 45 0 5 12 21 25 34 14 13
25 34 25 50 0 52 19 96 50 114 16 10 30 26 30 35 0 9 7 26 15 36 8 11 15 30
15 42 0 24 29 41 41 23 4 -7 15 -9 24 -5 12 4 15 13 11 31 -5 18 -2 25 9 25 9
0 15 -9 15 -23 0 -33 10 -39 36 -23 25 17 34 12 34 -19 0 -17 -6 -21 -35 -21
-22 0 -35 5 -35 13 0 7 -4 13 -10 13 -15 0 -12 -36 5 -50 8 -7 15 -18 15 -25
0 -10 8 -11 34 -3 28 9 38 8 59 -8 41 -31 52 -55 33 -69 -20 -15 -21 -36 -1
-29 9 4 15 0 15 -10 0 -9 -6 -16 -14 -16 -17 0 -25 -22 -30 -74 -2 -20 -11
-45 -20 -54 -9 -10 -16 -32 -16 -48 0 -16 -7 -38 -15 -48 -8 -11 -15 -26 -15
-33 0 -7 -20 -32 -44 -56 -36 -36 -43 -49 -39 -71 3 -15 0 -38 -7 -51 -10 -19
-10 -29 1 -53 7 -17 16 -29 19 -27 4 2 4 -10 2 -28 -3 -18 -1 -29 3 -25 5 4
15 2 23 -5 13 -10 14 -7 10 21 -2 18 -1 35 3 37 9 6 42 78 55 120 13 41 28 36
35 -11 6 -33 3 -42 -22 -67 -23 -23 -29 -37 -29 -73 0 -30 -5 -46 -15 -50 -9
-4 -15 -19 -15 -35 0 -27 -2 -29 -26 -23 -20 5 -25 3 -22 -7 11 -34 257 -52
763 -55 486 -3 858 15 1120 55 480 73 740 141 939 244 123 64 172 107 223 195
36 62 39 74 33 113 l-7 44 -12 -32 c-11 -28 -15 -31 -27 -19 -16 17 -19 46 -4
46 13 0 13 27 0 35 -6 3 -13 -2 -17 -12 -9 -24 -23 -33 -55 -33 -18 0 -28 -5
-28 -15 0 -8 -4 -15 -9 -15 -5 0 -14 7 -21 15 -7 8 -19 15 -26 15 -22 0 -16
-38 7 -51 15 -8 18 -14 10 -22 -7 -7 -15 -6 -27 4 -10 8 -19 10 -21 4 -11 -33
-21 -38 -38 -22 -9 10 -30 17 -46 17 -26 0 -28 -3 -20 -18 9 -17 7 -36 -14
-128 -3 -12 -11 -24 -19 -27 -11 -4 -11 3 -3 40 8 39 7 47 -7 55 -9 5 -16 15
-16 23 0 8 -7 11 -17 9 -15 -4 -18 1 -17 27 1 26 6 35 27 42 27 9 38 36 15 38
-7 0 -33 2 -57 5 l-43 5 20 -29 c16 -21 18 -32 10 -40 -8 -8 -8 -15 2 -27 10
-13 11 -18 1 -28 -10 -9 -16 -7 -31 11 -10 12 -23 22 -28 22 -6 0 -12 5 -14
12 -5 15 -28 1 -28 -18 0 -8 7 -14 16 -14 13 0 14 -6 8 -32 -4 -18 -7 -45 -6
-60 1 -32 -24 -59 -34 -34 -3 9 -3 36 0 61 4 26 3 45 -2 45 -17 0 -31 -26 -32
-58 0 -18 0 -46 0 -63 -1 -19 -5 -29 -13 -26 -17 5 -29 125 -15 151 8 15 8 21
-1 24 -7 2 -16 15 -21 28 -6 13 -21 29 -35 34 -19 7 -25 17 -25 40 0 34 -6 37
-32 13 -18 -16 -18 -17 3 -39 29 -31 19 -58 -20 -51 -23 5 -31 1 -41 -18 -14
-27 -8 -55 14 -55 7 0 16 9 19 20 7 28 35 25 43 -4 7 -31 -1 -45 -24 -40 -13
4 -22 -6 -35 -39 -10 -24 -15 -50 -12 -59 3 -8 -1 -21 -10 -28 -13 -11 -18
-10 -29 6 -12 15 -16 16 -30 5 -9 -7 -23 -10 -32 -7 -13 5 -15 15 -11 51 6 41
5 45 -14 45 -13 0 -25 11 -35 33 -40 85 -49 98 -62 85 -17 -17 -15 -36 8 -67
11 -17 17 -38 15 -53 -3 -17 3 -34 20 -52 32 -34 31 -40 -5 -66 l-30 -21 0 21
c0 13 -8 24 -19 27 -17 4 -30 27 -35 57 0 5 -22 17 -47 26 -26 9 -55 22 -64
30 -30 25 -63 20 -74 -11 -6 -16 -18 -28 -34 -31 -22 -4 -25 -2 -24 21 2 26 2
26 -68 24 -56 -2 -73 -7 -87 -23 -19 -23 -40 -27 -32 -5 4 9 -3 18 -18 24 -14
5 -32 21 -41 35 -21 32 -37 33 -37 3 0 -25 -36 -62 -45 -47 -10 16 -55 12 -55
-4 0 -11 13 -14 55 -11 43 2 57 -1 65 -14 8 -14 12 -14 30 -3 30 19 38 6 12
-18 -12 -12 -23 -26 -24 -33 -2 -21 -4 -31 -12 -63 l-7 -32 -26 26 c-23 23
-24 27 -9 37 19 14 21 41 4 47 -7 3 -26 3 -43 2 -16 -1 -38 -3 -47 -3 -13 -1
-18 -9 -18 -31 0 -37 -21 -40 -40 -5 -16 30 -31 32 -55 5 -10 -11 -31 -20 -47
-20 -16 0 -36 -7 -44 -15 -29 -29 -61 -29 -87 -1 -28 30 -37 32 -37 11 0 -8 9
-19 20 -25 28 -15 25 -27 -10 -32 -27 -4 -29 -2 -24 19 8 32 -24 31 -60 -2
-30 -28 -46 -32 -46 -11 0 19 27 46 46 46 19 0 18 29 -1 36 -10 4 -15 20 -15
46 0 31 4 41 20 45 23 6 27 33 6 33 -8 0 -22 7 -30 16 -14 13 -18 14 -31 1 -8
-8 -12 -17 -9 -19 8 -9 -25 -30 -36 -23 -15 10 -12 37 9 65 32 41 -8 83 -45
46 -8 -8 -14 -22 -14 -30 0 -23 -27 -20 -42 4 -16 25 -37 26 -54 3 -16 -21
-18 -59 -5 -68 12 -7 7 -53 -7 -67 -6 -6 -8 -24 -5 -39 6 -33 -2 -36 -29 -12
-11 9 -18 30 -18 50 l0 33 -40 -20 c-37 -19 -40 -24 -40 -60 0 -44 24 -80 52
-80 10 0 18 7 18 15 0 8 4 15 9 15 21 0 22 -23 5 -57 -18 -33 -18 -35 -1 -47
9 -7 17 -18 17 -25 0 -10 -7 -12 -52 -15 -25 -2 -32 -14 -19 -30 7 -8 10 -20
6 -26 -9 -15 -55 -12 -55 4 0 13 -20 26 -40 26 -5 0 -12 -9 -15 -21 -11 -33
-27 -17 -42 41 -12 45 -13 76 -4 173 10 109 14 121 45 165 18 27 41 62 49 78
9 16 32 47 52 69 20 22 39 53 42 68 3 15 15 33 27 39 11 6 25 17 29 24 9 16
67 19 67 4 0 -17 28 -11 48 10 28 30 93 61 115 54 24 -8 47 13 47 42 0 20 5
24 30 24 20 0 30 5 30 15 0 10 10 15 30 15 17 0 30 5 30 10 0 16 27 11 34 -6
3 -9 6 -28 6 -44 0 -16 7 -30 15 -34 8 -3 20 -17 25 -31 7 -18 17 -25 37 -25
30 -1 65 -25 76 -52 4 -12 -4 -25 -26 -43 l-32 -25 37 0 c20 0 40 5 43 10 4 6
15 8 26 5 13 -4 19 -2 19 9 0 9 -9 16 -20 16 -11 0 -23 8 -27 18 -3 9 -13 25
-21 34 -8 9 -16 36 -17 60 -2 24 -6 52 -9 63 -5 14 2 30 24 55 l30 34 23 -22
c17 -18 19 -26 11 -40 -13 -20 -40 -23 -36 -4 2 10 -2 10 -17 0 -19 -12 -19
-12 0 -36 10 -14 19 -33 19 -43 0 -9 11 -26 25 -37 14 -11 25 -27 25 -35 0 -9
4 -18 9 -22 15 -9 23 32 11 55 -7 14 -8 26 0 39 5 11 10 37 10 58 0 22 6 45
13 52 10 10 7 11 -15 6 -21 -6 -28 -4 -28 8 0 11 11 15 45 15 38 -1 50 -6 73
-33 16 -17 34 -29 41 -27 7 2 24 -2 37 -9 19 -10 27 -10 36 -1 7 7 25 12 40
12 15 0 28 5 28 10 0 6 -9 10 -20 10 -13 0 -20 7 -20 20 0 24 22 26 40 5 7 -8
19 -15 26 -15 9 0 14 -11 14 -29 0 -16 7 -37 16 -45 14 -15 17 -14 34 6 15 18
21 20 31 11 10 -10 9 -16 -4 -31 -16 -18 -16 -20 2 -36 11 -10 22 -13 25 -8 3
6 0 12 -6 15 -9 3 -5 13 12 30 14 15 33 34 42 44 28 31 48 44 48 34 0 -5 -4
-13 -10 -16 -12 -8 -13 -45 -1 -45 5 0 14 7 21 15 16 19 30 10 23 -16 -4 -15
0 -22 15 -26 23 -5 47 -55 39 -77 -7 -18 17 -28 32 -13 17 17 13 31 -19 63
-29 29 -40 64 -19 64 6 0 19 -10 29 -22 10 -13 22 -20 26 -15 4 4 -3 18 -16
32 -14 14 -20 30 -16 40 9 24 31 13 34 -18 4 -33 5 -33 37 -2 19 17 31 22 43
15 10 -5 25 -11 35 -14 9 -3 17 -15 17 -28 1 -27 53 -88 75 -88 18 0 20 41 3
58 -7 7 -20 12 -30 12 -10 0 -18 6 -18 14 0 41 81 30 107 -14 20 -34 33 -30
33 11 0 21 -5 29 -18 29 -10 0 -28 7 -41 17 l-24 16 23 19 c23 18 86 26 75 9
-6 -11 13 -26 22 -17 3 3 0 12 -6 20 -10 12 -9 20 4 40 9 14 16 26 15 28 -1 2
2 11 5 20 5 12 11 15 23 8 34 -17 58 -24 92 -26 19 -1 57 -8 84 -15 39 -10 51
-10 54 -1 7 21 22 13 22 -12 0 -13 -7 -29 -15 -36 -18 -15 -19 -42 -3 -58 16
-16 2 -28 -16 -13 -10 8 -16 9 -21 1 -14 -23 -61 -10 -89 25 -16 19 -31 35
-35 35 -3 0 -6 -21 -5 -48 1 -79 63 -182 110 -182 24 0 41 -31 28 -51 -10 -17
75 0 112 22 17 10 40 19 50 19 11 0 28 7 38 15 22 17 66 20 66 5 0 -13 27 -13
35 0 9 15 -34 70 -54 70 -10 0 -24 7 -31 15 -7 8 -21 15 -31 15 -10 0 -20 4
-23 9 -7 11 41 24 55 15 6 -3 21 -7 35 -9 13 -1 33 -10 43 -19 9 -9 23 -16 29
-16 7 0 12 -8 12 -17 1 -22 75 -103 94 -103 23 0 38 -27 38 -67 0 -21 11 -57
24 -81 30 -54 30 -76 0 -139 -33 -68 -122 -174 -140 -167 -8 3 -31 -5 -53 -18
-236 -146 -518 -229 -1062 -313 -457 -70 -902 -78 -1660 -30 -761 49 -1263
158 -1573 341 -35 20 -69 37 -76 37 -22 0 -142 117 -163 158 -10 21 -30 46
-44 55 -14 9 -25 23 -25 31 0 8 -11 28 -25 45 -14 16 -25 38 -25 49 0 11 -5
29 -11 40 -6 11 -15 57 -21 102 -5 45 -12 101 -15 123 -3 30 1 53 17 84 13 25
25 73 29 116 6 60 12 79 33 101 32 35 44 58 52 104 4 21 14 52 23 70 9 18 24
53 32 78 19 51 33 58 123 60 61 1 169 33 276 81 34 16 62 32 62 37 0 4 -12 19
-25 32 -20 19 -25 33 -25 75 0 28 -3 68 -6 89 -4 23 -3 37 4 37 5 0 8 -10 5
-22 -4 -15 -2 -20 4 -13 6 6 15 42 22 81 7 39 19 88 26 110 17 46 19 98 5 89
-5 -3 -10 1 -10 9 0 9 6 13 13 10 9 -3 20 10 32 36 10 22 22 40 27 40 5 0 6 4
3 10 -3 5 0 7 7 5 16 -7 56 20 46 31 -4 4 -14 1 -23 -6 -23 -19 -18 0 7 27 12
13 28 23 35 23 17 0 48 29 39 37 -3 3 -12 0 -21 -7 -12 -10 -15 -10 -15 4 0 9
-8 16 -19 16 -10 0 -21 7 -25 15 -3 8 -12 15 -21 15 -21 0 -20 58 1 82 16 16
16 18 0 23 -9 3 -24 8 -33 11 -10 4 -81 10 -158 15 -311 17 -558 93 -787 241
-126 82 -295 236 -369 336 -35 48 -32 60 22 68 32 5 38 2 64 -33 112 -148 362
-336 535 -403 30 -11 69 -27 86 -35 48 -22 221 -62 330 -76 132 -16 354 -3
339 21 -4 7 10 10 80 22 6 0 21 -2 35 -6 23 -6 23 -6 5 5 -11 7 -26 19 -33 26
-7 7 -23 13 -35 13 -18 0 -19 -2 -7 -10 13 -9 13 -11 0 -20 -8 -5 -24 -9 -35
-8 -17 1 -17 1 3 5 23 5 31 22 10 24 -7 0 1 7 17 15 l30 14 -40 -6 c-22 -3
-47 -8 -55 -10 -8 -2 -20 0 -27 4 -7 4 31 14 85 21 53 7 144 28 200 47 57 19
109 31 114 28 7 -4 8 -2 4 4 -4 7 -3 12 2 12 6 0 38 16 73 35 34 20 69 33 78
30 8 -3 12 -3 8 1 -10 11 61 56 76 48 6 -4 9 -4 5 0 -3 4 12 24 35 44 105 91
157 143 225 221 39 46 72 89 72 95 0 6 5 4 10 -4 8 -12 10 -9 10 13 0 16 4 26
9 23 4 -3 6 -17 3 -31 -3 -20 3 -35 29 -62 44 -45 79 -63 124 -63 68 0 75 10
75 110 l0 89 55 6 c30 4 61 5 69 2 17 -7 24 11 26 68 3 57 1 65 -10 65 -5 0
-19 9 -30 20 -16 16 -17 20 -4 20 8 0 12 5 9 10 -10 16 7 12 27 -7 10 -9 21
-13 25 -9 4 4 1 12 -7 17 -13 9 -13 10 0 6 33 -10 47 15 48 86 0 37 -3 66 -6
63 -4 -2 -16 5 -26 15 -11 11 -14 19 -8 19 6 0 13 -4 16 -9 10 -16 96 -9 106
8 7 11 10 -1 12 -44 2 -53 2 -50 8 30 6 89 6 89 9 25 3 -64 3 -64 14 -30 11
34 12 32 18 -45 l5 -80 2 100 c1 74 -1 96 -9 85 -9 -12 -10 -12 -5 3 3 10 6
23 6 29 0 17 429 6 439 -11 5 -7 14 -10 20 -6 13 7 41 -11 41 -27 0 -5 -7 -2
-16 6 -33 33 -26 14 8 -21 19 -21 41 -51 47 -68 l11 -30 -6 33 c-3 17 -1 32 4
32 5 0 14 -15 20 -32 8 -27 10 -29 11 -10 1 13 5 20 11 17 11 -7 18 21 22 80
l3 40 120 0 c89 0 120 -3 121 -12 1 -7 3 -23 4 -35 2 -22 2 -22 10 2 8 24 8
23 9 -8 1 -18 -3 -31 -7 -28 -5 3 -7 -32 -5 -77 6 -115 10 -125 14 -32 l3 80
6 -80 c6 -73 7 -67 8 57 l2 136 48 4 c26 1 79 2 119 0 68 -3 72 -5 78 -30 4
-15 8 -79 8 -142 0 -63 1 -103 4 -87 6 37 23 34 23 -4 0 -19 4 -28 11 -24 6 4
9 29 8 56 -2 27 0 52 4 55 4 4 7 20 7 36 0 17 4 27 10 23 6 -3 10 0 10 8 0 23
88 96 128 106 21 5 46 12 57 15 30 7 139 -2 186 -15z m-1184 5 c-3 -3 -12 -4
-19 -1 -8 3 -5 6 6 6 11 1 17 -2 13 -5z m3319 -24 c67 -34 90 -72 99 -166 4
-44 3 -80 -2 -85 -6 -6 -54 -8 -109 -7 l-99 3 -3 57 c-3 66 -23 92 -50 65 -17
-18 -22 -77 -9 -110 3 -9 44 -42 91 -71 174 -113 198 -151 199 -310 0 -117
-14 -161 -64 -198 -51 -38 -93 -48 -193 -48 -97 0 -157 19 -204 63 -31 29 -52
107 -52 194 l0 73 110 0 110 0 0 -74 c0 -41 3 -81 6 -90 7 -19 35 -21 52 -4
13 13 15 101 3 132 -4 11 -59 56 -121 100 -63 45 -122 95 -132 113 -44 75 -44
253 0 313 44 58 111 80 233 77 67 -2 96 -8 135 -27z m-950 7 c1 -1 4 -40 5
-87 l4 -85 -78 -3 -78 -3 4 -72 4 -72 67 -3 66 -3 0 -89 0 -90 -65 0 -65 0 0
-85 0 -85 64 0 c98 0 96 2 96 -101 l0 -89 -205 0 -205 0 0 421 c1 240 5 429
10 439 9 16 26 17 192 13 100 -2 183 -5 184 -6z m392 3 l132 0 0 -90 0 -90
-65 0 -65 0 -2 -342 -3 -343 -117 -3 -118 -3 0 346 0 345 -65 0 -65 0 0 88 c0
49 3 92 8 97 4 4 57 5 117 1 61 -3 170 -6 243 -6z m-3418 -30 c-8 -5 -22 -9
-30 -9 -10 0 -8 3 5 9 27 12 43 12 25 0z m90 -10 c0 -5 -7 -10 -15 -10 -8 0
-15 5 -15 10 0 6 7 10 15 10 8 0 15 -4 15 -10z m730 -5 c10 -12 10 -15 -4 -15
-9 0 -16 7 -16 15 0 8 2 15 4 15 2 0 9 -7 16 -15z m-785 -13 c-3 -3 -11 0 -18
7 -9 10 -8 11 6 5 10 -3 15 -9 12 -12z m92 12 c-3 -3 -12 -4 -19 -1 -8 3 -5 6
6 6 11 1 17 -2 13 -5z m653 -9 c7 -9 10 -18 7 -22 -8 -7 -37 15 -37 28 0 14
16 11 30 -6z m-1693 -26 c66 -32 129 -109 143 -173 28 -137 -60 -277 -195
-307 -132 -29 -256 43 -301 176 -40 117 23 260 136 309 53 23 164 21 217 -5z
m533 1 c12 -22 3 -71 -14 -82 -6 -4 -51 -8 -99 -8 l-88 0 3 -42 3 -43 70 -5
70 -5 3 -47 3 -47 -73 -3 -73 -3 -3 -97 -3 -98 -59 0 c-33 0 -60 3 -60 8 -1 4
-3 30 -5 57 -3 28 -2 137 1 243 l7 192 153 0 c143 0 154 -1 164 -20z m388 -29
c2 -28 -1 -47 -10 -52 -7 -5 -53 -9 -101 -9 l-88 0 3 -42 3 -43 70 -5 70 -5 3
-47 3 -47 -73 -3 -73 -3 -5 -95 -5 -95 -57 -5 c-43 -4 -59 -2 -63 8 -8 21 -6
478 2 486 4 3 77 5 162 4 l156 -3 3 -44z m1399 -53 c-2 -13 -4 -3 -4 22 0 25
2 35 4 23 2 -13 2 -33 0 -45z m-3797 -359 c158 -204 410 -358 680 -416 102
-21 352 -24 445 -4 145 30 289 87 414 162 32 19 52 27 49 18 -6 -18 -132 -90
-226 -130 -343 -143 -753 -109 -1070 88 -97 60 -195 141 -263 217 -57 65 -99
120 -99 130 0 18 21 -2 70 -65z m4437 -181 c-3 -8 -6 -5 -6 6 -1 11 2 17 5 13
3 -3 4 -12 1 -19z m270 -30 c-3 -8 -6 -5 -6 6 -1 11 2 17 5 13 3 -3 4 -12 1
-19z m30 -110 c-3 -8 -6 -5 -6 6 -1 11 2 17 5 13 3 -3 4 -12 1 -19z m-3669
-325 c-10 -2 -28 -2 -40 0 -13 2 -5 4 17 4 22 1 32 -1 23 -4z m-83 -23 c-11
-5 -33 -8 -50 -8 -29 1 -29 1 5 8 49 10 69 10 45 0z m-98 -6 c-3 -3 -12 -4
-19 -1 -8 3 -5 6 6 6 11 1 17 -2 13 -5z m66 -121 c-13 -2 -33 -2 -45 0 -13 2
-3 4 22 4 25 0 35 -2 23 -4z m94 -149 c-3 -3 -12 -4 -19 -1 -8 3 -5 6 6 6 11
1 17 -2 13 -5z m3758 -84 c3 -5 2 -10 -4 -10 -5 0 -13 5 -16 10 -3 6 -2 10 4
10 5 0 13 -4 16 -10z m-49 -66 c-5 -14 -1 -16 33 -11 31 4 38 2 34 -9 -6 -17
-33 -18 -67 -2 -20 9 -23 14 -15 25 15 18 22 16 15 -3z m104 -129 c0 -8 -2
-15 -4 -15 -2 0 -6 7 -10 15 -3 8 -1 15 4 15 6 0 10 -7 10 -15z m83 -207 c-8
-46 -13 -48 -13 -5 0 21 4 37 10 37 5 0 7 -14 3 -32z m7 -108 c0 -5 -4 -10
-10 -10 -5 0 -10 5 -10 10 0 6 5 10 10 10 6 0 10 -4 10 -10z m-4025 -90 c3 -5
1 -10 -4 -10 -6 0 -11 5 -11 10 0 6 2 10 4 10 3 0 8 -4 11 -10z m2045 -128 c0
-22 -28 -45 -46 -38 -18 7 -18 9 5 27 24 20 41 24 41 11z m218 -31 c5 -30 -10
-45 -37 -36 -15 5 -21 15 -21 36 0 27 3 30 28 27 20 -2 28 -9 30 -27z m207 20
c10 -18 -17 -23 -33 -7 -15 15 -15 16 5 16 12 0 24 -4 28 -9z m412 -37 c9 -23
-11 -38 -26 -20 -13 16 -7 36 10 36 5 0 12 -7 16 -16z m193 1 c0 -8 -4 -15
-10 -15 -5 0 -10 7 -10 15 0 8 5 15 10 15 6 0 10 -7 10 -15z m-1020 -5 c0 -5
-5 -10 -11 -10 -5 0 -7 5 -4 10 3 6 8 10 11 10 2 0 4 -4 4 -10z m-1410 -21 c0
-5 -4 -9 -10 -9 -5 0 -10 7 -10 16 0 8 5 12 10 9 6 -3 10 -10 10 -16z m2176
-11 c-3 -13 -6 -26 -6 -30 0 -13 -17 -9 -17 5 0 6 -4 20 -8 30 -6 13 -2 17 15
17 18 0 21 -4 16 -22z m-603 -9 c17 -16 16 -17 -14 -23 -26 -5 -36 -1 -55 19
l-24 26 38 -3 c20 -1 45 -10 55 -19z m-1433 -19 c0 -4 -11 -7 -25 -7 -20 0
-23 2 -14 13 10 13 39 9 39 -6z m1170 -9 c0 -10 -6 -24 -14 -30 -15 -12 -24
-5 -20 17 1 6 2 17 3 22 2 18 31 10 31 -9z m1837 3 c3 -8 1 -20 -6 -27 -8 -8
-11 -8 -11 0 0 6 -3 18 -6 27 -3 9 -1 16 5 16 7 0 14 -7 18 -16z m-1707 -9
c10 -13 9 -15 -9 -15 -12 0 -21 6 -21 15 0 8 4 15 9 15 5 0 14 -7 21 -15z
m210 1 c0 -8 -4 -17 -9 -20 -10 -7 -23 19 -14 28 11 11 23 6 23 -8z m1760 -17
c0 -13 -68 -42 -81 -34 -15 10 -1 24 34 34 44 13 47 13 47 0z m-1635 -9 c11
-17 -6 -50 -25 -50 -19 0 -36 33 -25 50 3 5 15 10 25 10 10 0 22 -5 25 -10z
m465 0 c0 -5 -4 -10 -10 -10 -5 0 -10 5 -10 10 0 6 5 10 10 10 6 0 10 -4 10
-10z m475 -10 c0 -22 -29 -18 -33 3 -3 14 1 18 15 15 10 -2 18 -10 18 -18z
m-2591 -11 c-3 -5 -10 -7 -15 -3 -5 3 -7 10 -3 15 3 5 10 7 15 3 5 -3 7 -10 3
-15z m1256 12 c0 -17 -12 -41 -21 -41 -10 0 -12 33 -2 43 9 10 23 9 23 -2z
m635 -20 c-3 -6 -14 -11 -23 -11 -15 1 -15 2 2 15 21 16 32 13 21 -4z m140 9
c3 -5 1 -10 -4 -10 -6 0 -11 5 -11 10 0 6 2 10 4 10 3 0 8 -4 11 -10z m155 1
c0 -14 -28 -33 -40 -26 -20 12 -10 35 15 35 14 0 25 -4 25 -9z m617 -36 c-4
-8 -11 -15 -17 -15 -14 0 -13 27 3 33 16 6 21 1 14 -18z m-3129 -57 c-25 -19
-58 -24 -58 -8 0 6 7 10 15 10 8 0 20 9 27 19 9 16 15 17 26 9 11 -10 9 -15
-10 -30z m1752 7 c-7 -8 -16 -12 -21 -9 -13 8 -1 24 18 24 13 0 13 -3 3 -15z
m-1990 -50 c0 -8 -7 -15 -15 -15 -8 0 -15 7 -15 15 0 8 7 15 15 15 8 0 15 -7
15 -15z m120 -46 c0 -5 -7 -9 -15 -9 -15 0 -20 12 -9 23 8 8 24 -1 24 -14z
m3175 -9 c3 -5 -1 -10 -10 -10 -9 0 -13 5 -10 10 3 6 8 10 10 10 2 0 7 -4 10
-10z m-400 -10 c-3 -5 -10 -10 -16 -10 -5 0 -9 5 -9 10 0 6 7 10 16 10 8 0 12
-4 9 -10z m293 -23 c2 -10 -3 -17 -12 -17 -10 0 -16 9 -16 21 0 24 23 21 28
-4z m-1488 -7 c-11 -21 -22 -25 -33 -13 -9 9 12 33 30 33 11 0 11 -4 3 -20z
m960 5 c0 -24 29 -30 44 -10 12 16 15 17 42 3 16 -9 42 -20 59 -24 25 -8 30
-15 32 -47 3 -31 0 -37 -17 -37 -27 0 -25 -14 3 -28 19 -10 17 -10 -16 -7 -54
6 -64 15 -38 34 21 16 21 18 6 49 -9 18 -23 32 -31 32 -17 0 -19 -21 -3 -37 7
-7 8 -17 3 -25 -5 -7 -9 -20 -9 -28 0 -27 -39 -20 -78 14 -37 33 -38 36 -32
80 5 29 12 46 21 46 8 0 14 -7 14 -15z m260 -4 c0 -6 -4 -13 -10 -16 -5 -3
-10 1 -10 9 0 9 5 16 10 16 6 0 10 -4 10 -9z m-310 -25 c0 -8 -5 -18 -10 -21
-6 -4 -7 -13 -1 -23 10 -21 4 -42 -14 -42 -9 0 -13 11 -13 31 1 17 -5 34 -12
39 -9 6 -8 10 6 19 26 15 44 14 44 -3z m454 -9 c7 -12 6 -21 -6 -34 -9 -10
-18 -26 -19 -35 -4 -15 -7 -14 -29 4 -23 18 -23 21 -7 33 9 7 17 19 17 27 0
32 25 35 44 5z m-1144 9 c0 -11 -19 -15 -25 -6 -3 5 1 10 9 10 9 0 16 -2 16
-4z m70 -4 c0 -10 -22 -32 -32 -32 -13 0 -9 28 5 33 19 8 27 8 27 -1z m-2172
-23 c-2 -6 -8 -10 -13 -10 -5 0 -11 4 -13 10 -2 6 4 11 13 11 9 0 15 -5 13
-11z m1922 -24 c0 -8 -4 -16 -9 -19 -12 -8 -34 21 -27 33 9 14 36 2 36 -14z
m-1803 -35 c7 -19 18 -30 31 -30 21 0 46 -23 35 -33 -3 -4 -14 0 -24 9 -11 9
-25 14 -35 10 -31 -12 -70 44 -47 67 14 15 29 6 40 -23z m3028 20 c3 -5 -1
-10 -9 -10 -9 0 -16 5 -16 10 0 6 4 10 9 10 6 0 13 -4 16 -10z m-428 -26 c-3
-3 -12 -4 -19 -1 -8 3 -5 6 6 6 11 1 17 -2 13 -5z m-2659 -36 c2 -17 -4 -34
-17 -47 -12 -12 -21 -23 -20 -26 2 -17 -10 -22 -39 -18 -37 6 -38 22 -2 40 28
14 40 31 40 61 0 34 34 25 38 -10z m1418 0 c-1 -18 4 -23 22 -22 19 0 22 -4
22 -42 0 -66 -38 -68 -54 -2 -3 15 -15 32 -26 38 -16 9 -18 15 -10 30 15 28
47 26 46 -2z m896 0 c-6 -6 -15 -8 -19 -4 -4 4 -1 11 7 16 19 12 27 3 12 -12z
m-2261 -58 c5 0 9 -9 9 -20 0 -11 -4 -20 -10 -20 -5 0 -10 5 -10 11 0 6 -8 8
-19 4 -31 -9 -37 16 -10 38 21 17 24 17 27 3 2 -9 8 -16 13 -16z m906 -2 c-3
-8 -6 -5 -6 6 -1 11 2 17 5 13 3 -3 4 -12 1 -19z m-187 -28 c0 -5 -4 -10 -10
-10 -5 0 -10 5 -10 10 0 6 5 10 10 10 6 0 10 -4 10 -10z m-750 -34 c0 -3 -4
-8 -10 -11 -5 -3 -10 -1 -10 4 0 6 5 11 10 11 6 0 10 -2 10 -4z m3797 -82 c-3
-3 -12 -4 -19 -1 -8 3 -5 6 6 6 11 1 17 -2 13 -5z m-3965 -39 c3 3 11 -2 18
-10 11 -13 11 -20 0 -40 -17 -33 -37 -21 -42 25 -2 28 0 36 8 29 6 -5 13 -7
16 -4z m1468 -19 c0 -14 -6 -28 -12 -33 -20 -12 -48 -14 -48 -3 0 6 4 10 10
10 5 0 12 11 16 25 8 32 34 33 34 1z m-1030 -51 c13 -16 6 -35 -15 -35 -15 0
-28 27 -19 41 8 13 20 11 34 -6z m-370 -25 c-6 -11 -13 -20 -15 -20 -3 0 -5 9
-5 20 0 11 7 20 15 20 13 0 14 -4 5 -20z m4155 -20 c-21 -23 -35 -26 -35 -6 0
15 14 24 39 25 11 1 10 -4 -4 -19z m-3190 -40 c3 -5 -3 -10 -14 -10 -12 0 -21
-5 -21 -11 0 -5 -4 -8 -10 -4 -5 3 -7 12 -3 20 6 17 39 20 48 5z m-500 -35 c0
-19 -30 -44 -40 -33 -9 9 17 59 29 55 6 -2 11 -12 11 -22z m1460 -15 c18 -20
18 -21 -5 -12 -13 5 -26 14 -28 20 -6 19 13 14 33 -8z m-1637 -60 l4 -25 -21
24 c-26 29 -26 33 -3 29 9 -2 19 -14 20 -28z m1720 -5 c5 -42 30 -57 64 -39
26 14 27 14 18 -16 -11 -40 -19 -50 -36 -50 -8 0 -14 10 -15 23 0 17 -2 18 -7
6 -6 -14 -11 -14 -37 -3 -18 8 -23 13 -12 14 21 0 22 16 2 27 -11 7 -14 18 -9
41 8 39 28 37 32 -3z m662 31 c0 -3 -4 -8 -10 -11 -5 -3 -10 -1 -10 4 0 6 5
11 10 11 6 0 10 -2 10 -4z m-2086 -21 c-6 -16 -24 -21 -24 -7 0 11 11 22 21
22 5 0 6 -7 3 -15z m103 -25 c-14 -36 -27 -39 -27 -7 0 26 7 37 26 37 9 0 10
-7 1 -30z m61 13 c6 -19 -25 -16 -32 3 -4 11 -1 14 11 12 9 -2 18 -9 21 -15z
m286 2 c-7 -17 -20 -20 -28 -6 -7 10 3 21 20 21 8 0 11 -6 8 -15z m1999 -7 c3
-12 4 -25 1 -30 -9 -13 -34 12 -34 33 0 26 26 24 33 -3z m468 -21 c-8 -8 -11
-7 -11 4 0 20 13 34 18 19 3 -7 -1 -17 -7 -23z m-2890 -11 c-7 -9 -28 -21 -47
-28 -19 -6 -34 -17 -34 -23 0 -18 -31 -43 -62 -50 -37 -9 -36 6 4 42 17 15 41
38 54 51 40 41 118 48 85 8z m-115 9 c-23 -18 -33 -19 -41 -5 -3 5 0 7 8 4 8
-3 18 -1 22 5 3 6 12 11 18 11 7 0 3 -7 -7 -15z m-322 -4 c3 -5 -1 -11 -9 -15
-15 -6 -29 7 -18 18 9 9 21 8 27 -3z m701 -17 c20 -30 20 -30 -27 -37 -42 -6
-49 6 -26 43 17 27 32 25 53 -6z m2695 16 c0 -5 -4 -10 -10 -10 -5 0 -10 5
-10 10 0 6 5 10 10 10 6 0 10 -4 10 -10z m-3193 -37 c-3 -3 -11 -2 -17 2 -8 5
-7 11 2 22 12 15 13 14 16 -1 2 -10 1 -20 -1 -23z m2485 7 c25 -35 44 -38 53
-10 7 22 45 28 45 7 0 -8 -9 -22 -20 -32 -11 -10 -20 -29 -20 -42 0 -21 -2
-22 -20 -11 -11 7 -20 19 -20 26 0 11 -47 46 -74 55 -15 5 1 37 18 37 9 0 25
-13 38 -30z m888 5 c0 -8 -4 -15 -9 -15 -13 0 -22 16 -14 24 11 11 23 6 23 -9z
m-1005 -15 c3 -5 -1 -10 -10 -10 -9 0 -13 5 -10 10 3 6 8 10 10 10 2 0 7 -4
10 -10z m281 -15 c18 -9 32 -11 38 -5 12 12 63 -24 72 -53 4 -12 14 -27 22
-33 9 -6 13 -18 9 -28 -9 -24 -27 -20 -27 7 -1 12 -14 33 -30 47 -17 13 -30
30 -30 38 0 10 -3 10 -16 -2 -14 -15 -19 -14 -50 10 -48 37 -42 47 12 19z
m-2660 -42 c-10 -10 -19 5 -10 18 6 11 8 11 12 0 2 -7 1 -15 -2 -18z m562 -1
c2 -14 -2 -22 -11 -22 -17 0 -30 27 -21 41 9 16 29 4 32 -19z m1656 22 c25 -9
19 -24 -9 -24 -24 0 -32 10 -18 23 8 8 8 8 27 1z m-128 -26 c-3 -13 -6 -29 -6
-35 0 -22 -17 -14 -22 10 -6 31 1 47 19 47 11 0 14 -6 9 -22z m-1641 1 c11
-17 0 -20 -21 -4 -17 13 -17 14 -2 15 9 0 20 -5 23 -11z m2562 -11 c-3 -8 -6
-5 -6 6 -1 11 2 17 5 13 3 -3 4 -12 1 -19z m-2627 -3 c0 -8 -4 -15 -10 -15 -5
0 -10 7 -10 15 0 8 5 15 10 15 6 0 10 -7 10 -15z m-54 -62 c7 -20 11 -40 8
-42 -11 -11 -43 45 -42 71 3 34 17 22 34 -29z m1194 26 c-12 -21 -25 -25 -35
-8 -8 11 25 40 37 33 5 -3 3 -14 -2 -25z m1431 -16 c-9 -17 -10 -17 -16 -1 -4
9 -1 24 7 32 11 12 14 12 16 0 2 -7 -1 -21 -7 -31z m-226 7 c-5 -8 -11 -8 -17
-2 -6 6 -7 16 -3 22 5 8 11 8 17 2 6 -6 7 -16 3 -22z m-2522 -11 c-3 -12 -9
-17 -15 -11 -10 10 0 44 12 37 5 -3 6 -14 3 -26z m317 21 c0 -5 -4 -10 -10
-10 -5 0 -10 5 -10 10 0 6 5 10 10 10 6 0 10 -4 10 -10z m1152 -35 c-6 -14
-18 -25 -27 -25 -21 0 -19 47 3 59 25 14 38 -3 24 -34z m304 31 c18 -19 18
-46 -1 -46 -8 0 -15 3 -15 8 0 4 -3 17 -6 30 -7 25 1 28 22 8z m439 -24 c-8
-8 -25 10 -19 20 4 6 9 5 15 -3 4 -7 6 -15 4 -17z m-823 -114 c-9 -9 -12 -7
-12 12 0 19 3 21 12 12 9 -9 9 -15 0 -24z m108 12 c0 -5 -4 -10 -10 -10 -5 0
-10 5 -10 10 0 6 5 10 10 10 6 0 10 -4 10 -10z m250 0 c0 -5 -4 -10 -10 -10
-5 0 -10 5 -10 10 0 6 5 10 10 10 6 0 10 -4 10 -10z m-522 -915 c-3 -15 -1
-25 6 -25 6 0 20 11 30 25 27 36 49 33 41 -5 -4 -16 -4 -30 -1 -30 4 0 25 14
48 30 22 17 45 30 50 30 16 0 7 -27 -17 -50 -36 -34 -31 -42 20 -34 40 5 45 4
45 -12 0 -11 -14 -27 -30 -36 -17 -9 -30 -24 -30 -33 0 -14 8 -15 45 -9 41 6
45 4 45 -14 0 -12 -10 -28 -22 -36 -35 -24 -75 -19 -117 14 -41 33 -88 50
-138 50 -17 0 -34 3 -36 8 -7 10 12 112 24 134 15 28 42 23 37 -7z m52 -182
c58 -40 97 -115 115 -218 l12 -70 34 2 c117 8 265 -40 367 -119 56 -44 131
-140 157 -202 18 -43 31 -45 120 -12 59 21 66 22 74 7 5 -9 21 -88 36 -176 15
-88 30 -164 34 -168 4 -4 34 72 67 169 32 97 64 183 69 191 9 12 23 12 100 -2
49 -8 93 -19 97 -23 8 -8 -75 -213 -282 -702 -45 -107 -84 -197 -86 -199 -4
-4 -115 14 -156 26 -26 6 -23 23 22 131 l41 98 -42 164 c-22 91 -43 169 -46
173 -3 5 -18 -29 -33 -74 -16 -45 -34 -87 -40 -93 -10 -10 -28 -13 -120 -18
-66 -4 -73 16 -58 165 6 64 14 120 17 126 3 5 29 11 57 14 66 6 69 8 94 64 34
78 31 83 -54 83 -41 0 -77 3 -79 8 -2 4 1 50 8 102 7 52 9 98 6 103 -8 8 -191
-31 -205 -44 -5 -5 -14 -43 -20 -86 -9 -66 -15 -79 -35 -89 -27 -14 -104 -125
-93 -136 4 -4 30 -8 57 -10 58 -4 55 13 36 -179 -10 -97 -10 -136 -1 -169 23
-86 67 -122 152 -123 57 -1 58 -13 3 -44 -87 -49 -239 -66 -340 -39 -76 20
-157 62 -209 107 l-46 41 -51 -17 c-109 -37 -217 3 -247 91 -15 42 -13 137 8
364 13 142 21 170 50 170 25 0 25 -17 4 -233 -9 -88 -13 -179 -10 -201 9 -55
38 -101 77 -122 48 -24 142 -15 198 20 47 30 64 27 55 -10 -4 -16 -2 -24 7
-24 20 0 172 51 183 61 12 11 66 551 56 562 -9 10 -171 -21 -187 -37 -6 -6
-16 -80 -23 -176 -7 -91 -19 -180 -26 -197 -15 -38 -69 -75 -104 -71 -49 6
-52 36 -30 250 27 258 27 248 -11 248 -30 0 -31 1 -25 32 3 18 24 69 47 113
l40 81 -3 138 -3 137 33 30 c38 34 93 39 132 12z m-180 -87 c0 -11 -33 -36
-40 -31 -15 9 1 35 21 35 10 0 19 -2 19 -4z m-4 -172 c-8 -74 -24 -122 -50
-143 -15 -12 -20 -12 -44 6 -49 37 -42 79 25 152 66 71 78 68 69 -15z m-443
-151 c3 -5 -1 -51 -8 -103 -15 -114 -11 -120 76 -120 78 0 84 -11 48 -88 l-28
-63 -57 2 c-40 2 -58 -1 -64 -12 -15 -26 -31 -235 -21 -263 12 -31 49 -42 92
-27 52 18 57 14 69 -44 19 -92 20 -91 -125 -120 -119 -23 -205 10 -241 94 -13
30 -15 60 -9 176 4 77 8 158 9 180 l1 40 -48 3 c-31 2 -50 8 -54 18 -7 20 64
123 93 135 16 5 24 19 28 41 2 18 8 56 13 83 l8 50 85 11 c113 15 128 15 133
7z m-9 -1012 c21 -17 20 -40 -1 -63 -16 -18 -16 -21 1 -50 15 -25 16 -32 5
-39 -21 -13 -26 -11 -43 13 -15 21 -16 22 -29 3 -24 -32 -46 -13 -40 34 3 22
3 51 -1 66 -6 22 -10 24 -34 19 -36 -9 -40 -14 -19 -25 23 -13 22 -36 -2 -44
-10 -3 -22 -17 -25 -30 -4 -16 -13 -25 -26 -25 -16 0 -20 7 -22 33 0 17 0 39
1 47 2 8 2 30 2 48 l-1 33 109 -4 c70 -2 115 -8 125 -16z m86 -59 c0 -82 -8
-102 -37 -102 -21 0 -24 4 -19 23 3 12 6 43 6 69 0 46 21 84 41 73 5 -4 9 -32
9 -63z m128 41 c-2 -10 -13 -19 -26 -21 -26 -4 -27 -10 -6 -33 14 -16 14 -18
-5 -29 -27 -14 -27 -28 2 -32 12 -2 22 -10 22 -18 0 -11 -13 -16 -47 -18 l-47
-3 4 78 c2 43 4 81 4 86 1 4 24 7 52 7 43 0 50 -3 47 -17z m133 -12 c16 -16
29 -36 29 -45 0 -54 -57 -106 -117 -106 l-32 0 6 53 c3 28 7 54 9 56 2 2 -1
12 -6 22 -8 14 -5 21 12 33 34 24 66 19 99 -13z m197 7 c22 -22 13 -38 -22
-38 -26 0 -36 -5 -41 -20 -10 -32 4 -60 30 -60 26 0 39 -22 22 -39 -19 -19
-57 -12 -82 14 -42 41 -27 129 25 148 26 10 56 7 68 -5z m72 -28 c0 -19 5 -30
14 -30 8 0 19 14 25 30 9 27 29 39 42 25 3 -2 0 -40 -5 -82 -9 -59 -15 -79
-28 -81 -12 -2 -17 5 -20 25 -3 26 -27 41 -29 18 -4 -36 -42 -60 -51 -32 -7
21 -1 101 11 130 15 37 41 36 41 -3z m149 -22 c-2 -82 -11 -113 -33 -113 -18
0 -19 7 -17 70 3 71 12 95 37 95 10 0 14 -14 13 -52z m135 36 c8 -22 -3 -37
-21 -29 -9 3 -24 -2 -34 -11 -33 -30 -20 -67 25 -75 30 -6 30 -27 1 -41 -22
-10 -30 -8 -53 9 -49 37 -54 95 -12 141 25 27 85 31 94 6z m70 0 c6 -16 8 -16
24 0 42 37 62 10 26 -33 l-26 -31 27 -35 c26 -35 26 -55 1 -55 -7 0 -21 9 -31
20 -10 11 -22 20 -27 20 -4 0 -8 -9 -8 -20 0 -13 -7 -20 -20 -20 -18 0 -20 7
-20 66 0 69 12 104 34 104 8 0 17 -7 20 -16z m204 4 c-3 -9 -21 -22 -46 -35
-2 0 3 -11 10 -23 11 -18 11 -22 -4 -31 -24 -13 -23 -25 2 -32 23 -6 27 -32 5
-41 -8 -3 -29 -3 -45 1 l-30 6 2 76 c1 42 7 79 12 83 18 13 98 9 94 -4z m59
-5 c3 -10 11 -24 17 -32 9 -11 12 -8 16 15 3 17 12 30 23 32 15 3 17 -6 17
-71 0 -56 -4 -78 -16 -88 -14 -12 -19 -10 -39 15 l-22 28 -7 -27 c-5 -18 -12
-25 -24 -23 -14 3 -16 14 -13 78 1 41 5 78 8 83 8 13 34 7 40 -10z m1143 -395
c-1 -7 -7 -41 -14 -76 -12 -57 -19 -68 -76 -122 -64 -61 -80 -70 -80 -47 1 30
28 178 34 185 11 10 119 71 129 72 4 0 7 -6 7 -12z m-5455 -65 c15 8 17 7 12
-7 -5 -12 -1 -16 15 -16 17 0 19 -3 10 -12 -17 -17 -15 -28 4 -21 12 4 15 2
12 -8 -7 -21 -35 -23 -73 -5 -18 9 -42 16 -54 16 -23 0 -26 12 -11 40 8 15 16
17 38 10 17 -4 36 -3 47 3z m2280 -26 c28 -9 79 -25 115 -35 84 -23 90 -36 83
-161 -2 -53 -8 -100 -13 -104 -16 -17 -243 122 -267 163 -12 21 6 162 21 157
6 -2 34 -11 61 -20z m-2302 -57 c14 -11 29 -35 32 -53 10 -46 23 -57 65 -57
77 0 148 -40 201 -114 27 -37 35 -41 72 -41 l42 0 14 -79 c15 -87 19 -86 52
11 11 35 25 65 30 69 5 3 28 3 49 -1 28 -5 40 -12 40 -23 0 -10 -37 -100 -83
-202 l-83 -185 -34 3 c-49 4 -57 16 -37 57 21 45 21 61 0 135 -18 58 -33 78
-33 43 -1 -35 -26 -55 -67 -51 -35 3 -38 5 -41 37 -2 19 -1 50 3 68 5 27 12
35 36 40 28 5 49 28 49 52 0 6 -16 11 -35 11 l-35 0 0 51 0 51 -32 -7 c-65
-13 -68 -15 -68 -46 0 -21 -10 -41 -30 -61 -34 -34 -35 -51 -2 -56 20 -3 21
-7 15 -82 -7 -92 5 -120 59 -137 l33 -10 -37 -17 c-62 -27 -137 -21 -210 17
-54 28 -68 32 -96 23 -43 -12 -99 13 -108 48 -6 26 11 219 21 236 16 25 20 -5
13 -90 -7 -91 0 -136 25 -152 18 -11 75 -10 99 3 15 8 22 8 28 -1 6 -10 17 -9
51 2 l44 15 6 59 c4 32 9 92 13 133 l6 74 -36 -6 c-20 -3 -41 -11 -48 -17 -8
-6 -16 -46 -20 -93 -5 -67 -10 -85 -28 -100 -37 -31 -43 -17 -41 101 1 85 -2
112 -12 116 -8 3 -11 13 -8 27 4 15 -1 27 -17 39 -19 14 -21 20 -11 38 6 11
22 29 35 39 15 12 24 29 24 48 0 52 50 70 95 35z m5187 3 c-1 -10 -7 -63 -14
-117 -15 -112 -22 -122 -104 -151 -26 -10 -74 -28 -107 -40 -33 -13 -63 -21
-67 -18 -10 5 -10 89 -2 171 l7 60 46 18 c25 9 73 29 106 44 33 14 71 31 85
38 36 16 50 14 50 -5z m-2405 -88 c85 -18 125 -31 137 -45 21 -25 32 -123 23
-201 l-7 -61 -36 7 c-20 4 -85 22 -144 42 l-108 34 0 125 c0 68 3 124 8 124 4
0 61 -11 127 -25z m1962 -164 c1 -64 -2 -120 -7 -126 -6 -7 -36 -17 -68 -23
-123 -24 -184 -33 -187 -30 -11 10 -26 221 -17 230 6 6 39 16 74 23 34 8 88
20 118 28 88 24 85 27 87 -102z m-1532 74 c91 -8 148 -19 160 -31 23 -23 35
-83 35 -171 0 -56 -4 -83 -12 -86 -15 -5 -59 0 -153 18 -38 8 -86 16 -107 20
l-36 6 -4 112 c-2 62 -8 120 -13 131 -8 18 -5 18 51 11 32 -5 68 -9 79 -10z
m-3527 -52 l-3 -48 38 -3 c34 -3 37 -6 31 -25 -10 -33 -23 -46 -52 -49 -26 -3
-27 -6 -30 -72 l-3 -69 35 6 c32 5 37 3 42 -18 8 -32 0 -42 -44 -55 -60 -16
-91 -12 -119 16 -25 25 -25 28 -19 110 7 78 6 84 -12 84 -10 0 -22 3 -25 7 -8
7 18 52 39 68 7 6 14 26 16 45 3 36 21 47 81 49 28 1 29 0 25 -46z m4615 3 c3
-8 11 -60 18 -115 10 -74 10 -104 2 -112 -10 -10 -260 -28 -283 -21 -6 2 -10
27 -10 55 -1 49 -8 98 -25 160 l-7 27 63 1 c35 0 84 4 109 8 76 14 127 13 133
-3z m-506 -4 c22 -1 38 -10 48 -25 18 -28 39 -180 30 -215 l-6 -25 -135 7
c-75 4 -142 10 -150 13 -10 4 -14 24 -14 77 0 40 -7 95 -15 122 -8 27 -15 50
-15 50 0 2 206 -2 257 -4z m3793 -14 l20 -22 -43 -14 c-52 -17 -53 -18 -38
-36 8 -9 10 -28 5 -53 -4 -21 -9 -32 -11 -25 -3 6 -14 12 -24 12 -14 0 -18 -4
-13 -12 6 -10 4 -10 -8 0 -23 19 -41 68 -34 95 17 68 103 100 146 55z m20 -88
c4 0 10 -14 14 -31 4 -23 2 -35 -10 -44 -13 -9 -14 -14 -5 -19 9 -6 9 -11 0
-22 -15 -18 -29 -18 -56 1 -19 13 -20 19 -11 47 23 72 28 80 44 74 9 -3 19 -6
24 -6z m-1359 -60 c29 -6 85 -26 124 -45 332 -164 405 -594 145 -855 -262
-264 -700 -193 -863 140 -80 162 -76 332 9 490 71 131 210 238 349 269 56 13
172 13 236 1z m1264 -50 c3 -5 1 -10 -4 -10 -6 0 -11 5 -11 10 0 6 2 10 4 10
3 0 8 -4 11 -10z m-149 -75 c-9 -40 -26 -62 -26 -35 0 6 -8 10 -17 9 -11 0
-13 -3 -5 -6 6 -2 12 -13 12 -24 0 -12 5 -16 15 -13 12 5 15 -4 15 -50 0 -47
3 -56 18 -56 15 -1 15 -2 -3 -16 -12 -9 -36 -14 -60 -12 -30 2 -40 -1 -40 -12
0 -9 -8 -14 -18 -12 -9 2 -17 -2 -17 -8 0 -5 -7 -10 -16 -10 -20 0 -14 44 17
126 17 46 111 164 130 164 3 0 1 -20 -5 -45z m114 -15 c-6 -11 -12 -20 -14
-20 -2 0 -2 9 1 20 3 11 9 20 15 20 5 0 4 -9 -2 -20z m110 -20 c0 -11 -4 -20
-9 -20 -5 0 -7 9 -4 20 3 11 7 20 9 20 2 0 4 -9 4 -20z m-160 -64 c0 -16 14
-28 58 -49 31 -15 72 -27 90 -27 25 0 32 -4 32 -20 0 -11 -4 -20 -10 -20 -5 0
-10 4 -10 9 0 5 -10 9 -22 9 -23 0 -88 14 -161 33 -38 10 -39 11 -32 47 4 20
12 40 18 44 17 10 37 -3 37 -26z m-270 13 c0 -8 -38 -10 -131 -6 -72 3 -134 8
-137 12 -3 3 56 5 131 5 94 0 137 -4 137 -11z m0 -124 l0 -95 -89 0 c-48 0
-108 -3 -132 -6 -29 -4 -50 -1 -62 8 -16 12 -16 18 -1 101 l16 87 134 0 134 0
0 -95z m-7468 51 c-3 -18 0 -26 7 -22 6 4 11 18 11 32 0 23 2 24 75 24 61 0
77 -3 82 -16 9 -24 -10 -49 -41 -52 -24 -3 -27 0 -24 24 2 15 -2 29 -8 31 -16
5 -24 -33 -11 -46 8 -8 3 -11 -16 -11 -22 0 -27 5 -28 28 l-2 27 -4 -28 c-4
-25 -7 -27 -49 -25 -41 1 -44 3 -44 30 0 19 -5 28 -15 28 -9 0 -15 -6 -14 -12
3 -18 -11 -48 -22 -48 -5 0 -9 16 -9 35 l0 36 58 -3 c56 -3 57 -3 54 -32z
m258 24 c0 -5 -7 -10 -15 -10 -8 0 -15 -7 -15 -15 0 -8 7 -15 15 -15 8 0 15
-4 15 -10 0 -15 -36 -12 -49 4 -9 11 -10 20 -1 35 11 21 50 29 50 11z m40 -2
c0 -10 2 -10 8 -1 8 13 122 15 122 2 0 -5 -7 -9 -15 -9 -8 0 -15 -7 -15 -15 0
-8 7 -15 15 -15 8 0 15 -4 15 -10 0 -13 -37 -13 -46 1 -4 8 -9 8 -17 0 -17
-17 -27 -13 -28 12 l-2 22 -4 -22 c-5 -24 -23 -32 -23 -11 0 9 -3 9 -12 0 -7
-7 -16 -12 -20 -12 -10 0 -11 54 -1 63 10 11 23 8 23 -5z m190 -4 c-11 -12
-10 -18 3 -32 16 -15 17 -14 17 16 0 30 2 32 38 32 21 0 43 -5 50 -12 9 -9 12
-9 12 2 0 21 14 2 17 -25 4 -29 -12 -41 -32 -25 -11 9 -15 9 -15 1 0 -8 -22
-11 -70 -9 l-70 2 0 33 c0 30 3 33 31 33 27 0 30 -2 19 -16z m7500 -14 c0 -15
-39 -52 -49 -46 -5 3 -6 17 -3 31 3 18 11 25 28 25 13 0 24 -4 24 -10z m-23
-88 c69 -70 129 -172 100 -172 -8 0 -26 -11 -41 -25 -15 -14 -28 -25 -29 -25
-2 0 -3 24 -3 54 0 46 -5 61 -38 109 -23 33 -36 62 -33 71 8 21 11 21 44 -12z
m-7640 -54 c5 -7 7 -26 4 -42 -5 -26 -7 -28 -20 -13 -17 22 -28 21 -34 0 -3
-10 -5 1 -6 25 -1 38 1 42 23 42 13 0 28 -6 33 -12z m740 -4 c2 -7 -6 -10 -22
-7 -22 5 -25 2 -25 -22 0 -24 3 -27 25 -23 28 6 34 -6 9 -16 -21 -8 -20 -8
-38 10 -20 20 -20 38 0 59 18 17 45 17 51 -1z m-1158 -16 l15 -23 7 25 c5 20
7 15 8 -20 l0 -45 -18 23 c-22 26 -31 28 -31 7 0 -8 -4 -15 -10 -15 -5 0 -10
16 -10 35 0 41 18 46 39 13z m189 -10 c5 -20 29 -19 25 1 -2 6 8 11 22 11 21
0 25 -5 25 -30 0 -25 -4 -30 -25 -30 -14 0 -25 4 -25 10 0 5 -7 7 -15 4 -10
-4 -15 0 -15 15 0 28 -14 27 -28 -1 -10 -21 -11 -20 -11 14 -1 32 1 36 20 31
12 -4 24 -15 27 -25z m432 -8 c0 -33 -3 -40 -19 -40 -11 0 -23 4 -26 10 -4 6
-13 5 -25 -3 -15 -9 -25 -9 -38 -1 -12 8 -22 8 -35 0 -14 -9 -21 -7 -32 7 -7
11 -11 25 -8 33 7 19 53 18 53 -1 0 -9 6 -12 15 -9 8 4 12 11 8 17 -4 7 4 8
24 4 17 -3 40 0 54 8 13 7 25 13 27 14 1 1 2 -17 2 -39z m113 18 l16 -23 0 24
c1 32 11 21 17 -17 6 -36 -11 -51 -26 -22 -13 25 -27 26 -33 3 -3 -10 -5 -1
-6 20 -1 42 9 47 32 15z m187 -24 c0 -21 -4 -33 -10 -29 -5 3 -10 22 -10 41 0
21 4 33 10 29 6 -3 10 -22 10 -41z m92 27 c32 4 39 -2 36 -28 -3 -25 -7 -28
-40 -29 -38 -1 -38 -1 -38 39 0 33 2 38 14 28 8 -7 20 -11 28 -10z m217 -30
c0 -21 -2 -23 -8 -8 -9 25 -25 23 -33 -5 -4 -17 -6 -12 -7 19 -1 42 -1 42 24
31 18 -8 25 -19 24 -37z m212 31 c17 -14 20 -24 14 -38 -8 -18 -9 -18 -12 4
-5 27 -23 30 -23 3 0 -12 -9 -20 -27 -24 -30 -6 -53 7 -53 29 0 23 -18 16 -23
-8 -4 -21 -4 -20 -6 3 -1 25 2 27 42 26 23 0 34 -2 25 -4 -25 -6 -23 -33 2
-33 16 0 20 7 20 30 0 35 9 37 41 12z m-1311 -28 c0 -21 -4 -33 -10 -29 -5 3
-10 19 -10 36 0 16 5 29 10 29 6 0 10 -16 10 -36z m700 10 c0 -8 -8 -14 -17
-15 -16 0 -16 -1 1 -8 12 -5 16 -10 9 -14 -19 -12 -43 4 -43 28 0 24 16 35 38
27 6 -2 12 -10 12 -18z m-732 -1 c2 -8 -6 -13 -20 -14 -21 0 -21 -1 -4 -8 15
-6 16 -10 7 -15 -18 -11 -45 18 -37 39 7 19 47 17 54 -2z m188 -21 c-2 -15 -5
-30 -5 -34 -1 -5 -4 -8 -9 -8 -4 0 -6 18 -4 40 2 22 8 37 13 34 5 -3 7 -18 5
-32z m21 1 c-3 -10 -5 -4 -5 12 0 17 2 24 5 18 2 -7 2 -21 0 -30z m579 7 c1
-21 -3 -26 -16 -23 -23 6 -23 48 -1 50 11 1 16 -7 17 -27z m374 10 c0 -11 5
-20 10 -20 6 0 10 9 10 20 0 11 5 20 11 20 6 0 9 -12 7 -27 -2 -22 -8 -28 -28
-28 -20 0 -26 6 -28 28 -2 15 1 27 7 27 6 0 11 -9 11 -20z m6435 -19 c54 -7
101 -13 103 -16 3 -2 -8 -19 -23 -37 -24 -29 -27 -38 -23 -92 4 -50 9 -63 33
-84 28 -23 34 -24 118 -19 49 3 95 11 103 18 12 10 13 9 8 -5 -11 -30 -41 -36
-173 -36 -149 0 -160 6 -134 68 21 50 10 62 -12 13 -13 -30 -23 -41 -34 -37
-9 3 -52 16 -96 30 -126 39 -205 68 -205 76 0 8 46 42 90 66 27 14 57 18 126
19 105 0 125 -10 143 -73 l11 -37 -5 35 c-11 72 -76 103 -186 88 -42 -5 -65
-5 -67 2 -6 16 -19 12 -25 -8 -2 -11 -13 -21 -24 -24 -31 -8 -18 26 15 42 24
11 139 29 152 24 3 -1 50 -7 105 -13z m345 -156 c-17 -30 -38 -55 -46 -55 -19
0 -18 3 16 40 16 17 35 51 42 73 10 33 14 37 16 19 2 -12 -11 -47 -28 -77z
m-8017 61 c3 22 4 19 6 -13 1 -48 -9 -54 -32 -20 l-16 22 0 -22 c-1 -37 -21
-26 -21 10 0 47 11 53 37 21 l21 -27 5 29z m387 -24 c0 -7 5 -10 10 -7 6 3 10
-1 10 -9 0 -18 -16 -21 -26 -5 -4 8 -9 7 -15 -2 -6 -9 -9 2 -9 31 1 42 2 44
15 26 8 -11 15 -26 15 -34z m50 8 c0 -22 -2 -40 -5 -40 -10 0 -24 50 -19 65
11 28 24 15 24 -25z m606 13 l11 -28 13 27 c17 35 30 27 30 -20 0 -34 -1 -35
-15 -16 -13 17 -14 17 -15 2 0 -10 -4 -18 -10 -18 -5 0 -14 8 -19 18 -10 16
-10 15 -11 -3 -1 -19 -1 -19 -11 -2 -11 19 -4 67 9 67 5 0 13 -12 18 -27z
m-801 -24 c0 -16 -3 -29 -6 -29 -9 0 -19 53 -12 63 9 14 18 -3 18 -34z m585 7
c0 -29 -4 -34 -28 -38 -37 -5 -52 0 -52 18 0 8 10 15 23 15 19 1 19 2 3 6 -15
4 -16 7 -5 13 7 5 21 4 31 -1 14 -7 18 -6 18 6 0 8 2 15 5 15 3 0 5 -15 5 -34z
m87 -2 c4 -12 8 -12 19 3 18 24 17 11 0 -32 -15 -36 -31 -49 -22 -17 3 9 -1
28 -9 42 -14 24 -20 16 -16 -17 1 -7 -3 -13 -9 -13 -5 0 -10 10 -11 23 -1 21
-1 21 -8 -3 -6 -23 -8 -23 -14 -6 -11 28 19 59 45 45 10 -6 22 -17 25 -25z
m270 -16 c-2 -13 -4 -5 -4 17 -1 22 1 32 4 23 2 -10 2 -28 0 -40z m223 17 c0
-19 -4 -35 -10 -35 -11 0 -13 30 -4 54 10 25 14 19 14 -19z m6799 22 c34 -17
25 -30 -33 -45 -27 -7 -72 -26 -99 -43 -27 -16 -45 -24 -41 -17 31 51 78 107
92 111 32 9 57 7 81 -6z m-8139 -12 c7 -9 10 -19 6 -22 -4 -4 -11 -1 -16 7 -5
8 -12 12 -15 8 -3 -3 1 -13 10 -21 8 -9 11 -18 6 -21 -10 -6 -41 19 -41 33 0
9 22 31 31 31 4 0 12 -7 19 -15z m71 -15 c6 -23 7 -23 8 -3 1 20 17 40 26 32
2 -2 1 -16 -2 -31 -5 -25 -10 -28 -44 -28 -28 0 -39 4 -39 15 0 8 8 15 18 16
10 0 12 3 5 6 -19 7 -16 25 4 21 9 -2 20 -14 24 -28z m167 0 c4 -24 -13 -41
-34 -33 -21 8 -24 31 -7 48 20 21 37 14 41 -15z m255 21 c11 -1 8 -51 -3 -51
-5 0 -10 9 -10 20 0 27 -18 25 -23 -2 -3 -17 -5 -15 -6 9 -1 25 3 31 17 28 9
-2 20 -4 25 -4z m24 -38 c-3 -10 -5 -2 -5 17 0 19 2 27 5 18 2 -10 2 -26 0
-35z m153 13 c0 -13 -10 -26 -25 -33 -20 -9 -25 -8 -25 2 0 10 -9 11 -35 5
-30 -7 -37 -5 -46 11 -13 25 -4 39 24 38 17 -1 18 -2 5 -6 -25 -6 -23 -33 2
-33 13 0 20 7 20 20 0 25 20 27 21 3 0 -14 2 -15 6 -3 14 35 53 33 53 -4z
m418 11 c2 -9 -2 -17 -8 -17 -6 0 -8 5 -5 10 3 6 1 10 -4 10 -6 0 -11 -7 -11
-15 0 -8 8 -15 18 -15 14 0 14 -2 3 -9 -21 -14 -41 -2 -41 24 0 36 42 45 48
12z m87 13 c4 -7 12 -7 25 0 22 12 50 3 50 -15 0 -9 8 -11 22 -7 20 5 21 6 3
12 -13 5 -15 9 -6 14 20 13 41 -2 41 -28 0 -27 -26 -42 -46 -26 -9 8 -19 7
-37 -5 -24 -15 -26 -15 -32 4 -3 12 -12 21 -20 21 -7 0 -16 6 -18 13 -3 7 -6
5 -6 -5 -1 -11 6 -18 16 -18 12 0 14 -3 7 -10 -16 -16 -44 0 -44 25 0 29 32
46 45 25z m225 -26 c0 -19 -5 -24 -25 -24 -29 0 -36 29 -7 31 14 1 13 2 -3 7
l-20 5 20 7 c27 10 35 4 35 -26z m123 15 c16 -26 2 -47 -27 -42 -29 6 -36 32
-8 34 16 1 16 2 -1 6 -21 5 -12 25 10 21 9 -2 20 -10 26 -19z m90 12 c4 -1 6
-13 6 -28 -2 -24 -2 -25 -6 -5 -2 12 -8 22 -13 22 -4 0 -11 -10 -15 -22 l-8
-23 -4 23 c-2 12 -8 22 -13 22 -5 0 -11 -10 -13 -22 -4 -20 -4 -20 -6 4 -1 28
10 36 44 32 11 -1 23 -3 28 -3z m-1217 -17 c-2 -26 22 -28 27 -2 4 21 4 21 6
-3 1 -27 -14 -40 -36 -32 -15 5 -18 53 -4 53 5 0 8 -7 7 -16z m1054 6 c8 11 9
7 4 -15 -13 -58 -28 -62 -31 -7 -2 27 0 33 7 22 9 -13 11 -13 20 0z m6625 -90
c-5 -8 -11 -8 -17 -2 -6 6 -7 16 -3 22 5 8 11 8 17 2 6 -6 7 -16 3 -22z m51
12 c34 -27 37 -60 8 -89 -20 -20 -32 -24 -57 -19 -40 8 -57 30 -55 73 l1 35
18 -23 c10 -13 19 -27 19 -30 0 -15 35 -19 48 -6 11 12 11 19 3 36 -7 11 -8
21 -4 21 4 0 1 5 -7 10 -8 5 -10 10 -5 10 6 0 20 -8 31 -18z m-725 -10 c21 8
66 -19 72 -42 7 -29 -25 -60 -62 -60 -26 0 -32 6 -46 45 -15 37 -15 48 -5 60
10 12 15 13 20 4 4 -6 14 -9 21 -7z m406 12 c-3 -3 -12 -4 -19 -1 -8 3 -5 6 6
6 11 1 17 -2 13 -5z m63 -38 c8 -2 -13 -4 -48 -5 -35 0 -61 3 -58 7 4 7 70 6
106 -2z m-135 -6 c3 -5 2 -10 -4 -10 -5 0 -13 5 -16 10 -3 6 -2 10 4 10 5 0
13 -4 16 -10z m-7798 -12 c13 -18 14 -99 1 -115 -14 -18 -43 -16 -62 3 -12 11
-14 27 -10 57 8 62 11 67 37 67 14 0 29 -6 34 -12z m123 -58 c0 -56 -3 -70
-15 -70 -11 0 -15 12 -15 46 0 37 -3 45 -15 40 -20 -7 -19 13 3 35 33 34 42
23 42 -51z m126 62 c6 -4 14 -31 18 -60 6 -49 5 -53 -18 -63 -28 -13 -54 -7
-62 16 -9 23 4 31 26 17 25 -15 39 5 14 22 -12 9 -14 15 -6 20 21 13 12 26
-13 20 -27 -7 -33 4 -13 24 13 13 37 15 54 4z m147 1 c4 -3 -2 -20 -12 -37
-10 -17 -22 -46 -26 -64 -4 -19 -12 -31 -18 -29 -15 5 -10 42 9 80 14 26 14
27 -10 27 -25 0 -40 12 -29 24 8 8 78 8 86 -1z m111 -2 c12 -19 15 -105 5
-118 -14 -16 -53 -17 -67 0 -11 14 -11 96 1 115 9 14 53 16 61 3z m214 -27 c2
-19 -3 -36 -12 -44 -20 -16 -20 -30 -1 -30 8 0 15 -7 15 -15 0 -11 -12 -15
-45 -15 -54 0 -58 14 -15 55 17 16 30 35 30 42 0 16 -12 17 -27 2 -18 -18 -35
-1 -22 22 8 15 19 19 42 17 28 -3 32 -7 35 -34z m112 -35 c0 -52 -3 -70 -12
-67 -7 3 -14 23 -16 46 -2 31 -7 40 -18 35 -23 -9 -16 23 9 40 12 9 25 16 30
16 4 1 7 -31 7 -70z m138 59 c18 -18 15 -45 -8 -68 -11 -11 -20 -22 -20 -25 0
-3 9 -5 20 -5 11 0 20 -7 20 -15 0 -11 -12 -15 -45 -15 -54 0 -56 10 -14 57
23 27 28 38 19 47 -9 8 -14 8 -17 -1 -6 -17 -33 -17 -33 0 0 19 21 37 45 37
12 0 26 -5 33 -12z m120 -53 c2 -32 -2 -63 -7 -68 -15 -15 -21 -5 -24 39 -1
23 -7 40 -14 40 -7 1 -16 2 -20 3 -3 0 4 12 17 26 13 14 29 24 34 22 6 -2 12
-30 14 -62z m126 59 c23 -9 20 -54 -6 -81 l-21 -23 21 0 c13 0 22 -6 22 -15 0
-11 -11 -15 -39 -15 -22 0 -42 4 -46 9 -3 6 8 25 25 44 30 35 38 57 21 57 -6
0 -13 -4 -16 -10 -10 -17 -25 -11 -25 9 0 26 30 38 64 25z m1656 -80 c0 -9
-11 -14 -30 -14 -16 0 -30 -4 -30 -10 0 -5 9 -10 20 -10 11 0 20 -7 20 -15 0
-9 -9 -15 -25 -15 -16 0 -25 -6 -25 -15 0 -10 10 -15 31 -15 54 0 27 -25 -30
-28 l-53 -3 7 55 c7 52 6 56 -13 56 -17 0 -22 -9 -29 -52 -7 -45 -12 -54 -32
-56 -24 -4 -24 -3 -4 86 4 16 1 22 -11 22 -9 0 -16 6 -16 14 0 18 36 22 143
18 58 -3 77 -7 77 -18z m130 0 c13 -13 13 -18 -1 -43 -10 -16 -14 -40 -12 -55
4 -21 2 -26 -16 -26 -14 0 -23 8 -27 25 -8 31 -22 32 -26 3 -2 -15 -11 -24
-26 -26 -21 -3 -23 -1 -19 25 3 15 9 47 12 70 5 32 12 43 28 46 31 7 70 -2 87
-19z m301 16 c30 -16 23 -28 -18 -32 l-38 -3 29 -15 c44 -23 54 -45 32 -69
-31 -34 -116 -25 -116 12 0 5 16 7 35 4 43 -7 45 2 5 25 -36 20 -39 51 -8 72
26 19 51 20 79 6z m188 -57 c6 -31 11 -62 11 -70 0 -18 -39 -17 -46 2 -4 8
-13 15 -20 15 -8 0 -17 -7 -20 -15 -6 -13 -44 -22 -44 -10 0 3 14 34 30 69 45
95 71 97 89 9z m297 32 c18 -28 8 -81 -20 -100 -19 -14 -97 -21 -108 -10 -2 3
0 33 7 67 9 54 14 63 35 68 38 9 70 0 86 -25z m190 14 l23 -21 22 21 c29 27
59 27 87 1 45 -43 9 -132 -53 -132 -34 0 -65 33 -65 68 0 16 -6 24 -18 24 -10
0 -23 5 -29 11 -17 17 -33 1 -33 -32 0 -30 17 -38 38 -17 9 9 15 9 24 0 17
-17 -18 -52 -52 -52 -41 0 -64 32 -57 77 11 67 69 93 113 52z m501 -62 c-8
-51 -15 -67 -27 -67 -9 0 -19 2 -22 5 -10 11 15 120 30 133 26 20 32 1 19 -71z
m156 72 c31 2 30 6 16 -76 -9 -53 -14 -63 -31 -63 -19 0 -20 4 -14 59 6 55 6
59 -13 54 -13 -3 -21 -17 -26 -41 -10 -62 -16 -72 -36 -72 -17 0 -19 5 -13 55
5 38 3 55 -5 55 -6 0 -11 6 -11 14 0 15 60 27 90 18 8 -3 27 -4 43 -3z m145
-5 c48 -33 12 -134 -48 -134 -29 0 -59 21 -61 43 -4 38 5 65 27 85 30 26 51
28 82 6z m107 -24 c8 -27 23 -25 27 2 2 13 11 24 22 26 17 4 18 -1 12 -45 -12
-79 -17 -93 -36 -93 -10 0 -23 13 -30 30 -15 37 -28 38 -32 3 -2 -18 -10 -29
-22 -31 -16 -4 -17 1 -11 50 11 82 21 101 44 88 11 -5 23 -19 26 -30z m176 30
c30 -16 23 -28 -18 -32 l-38 -3 38 -22 c20 -12 37 -29 37 -36 0 -40 -81 -65
-116 -36 -25 20 -16 32 21 26 38 -6 58 8 25 18 -23 7 -50 32 -50 46 0 17 40
49 61 49 11 0 29 -5 40 -10z m327 -13 c29 -23 7 -63 -39 -70 -15 -3 -26 -12
-29 -28 -4 -15 -14 -25 -28 -27 -26 -4 -26 3 -11 81 9 45 16 57 33 59 26 4 57
-2 74 -15z m130 -5 c6 -9 12 -19 12 -22 0 -15 -27 -40 -45 -43 -31 -4 -45 -16
-45 -38 0 -13 -7 -19 -21 -19 -19 0 -21 4 -15 38 3 20 6 47 6 59 0 34 26 53
63 46 18 -3 38 -13 45 -21z m212 -27 c-16 -24 -30 -55 -30 -70 0 -22 -4 -26
-22 -23 -19 2 -22 8 -20 32 2 16 -4 46 -12 67 -16 39 -16 39 8 39 13 0 27 -7
30 -16 5 -13 9 -13 32 5 40 32 47 15 14 -34z m116 -10 c-13 -28 -70 -31 -62
-3 2 10 0 21 -5 24 -15 9 -10 27 6 20 9 -3 18 1 21 9 5 12 10 11 28 -6 19 -18
21 -26 12 -44z m-3246 45 c0 -5 7 -10 15 -10 8 0 15 -7 15 -15 0 -8 -4 -15
-10 -15 -5 0 -10 -6 -10 -14 0 -8 -11 -13 -30 -12 -24 1 -30 5 -26 18 2 10 0
21 -5 24 -17 10 -9 25 11 19 11 -4 20 -2 20 4 0 6 5 11 10 11 6 0 10 -4 10
-10z m500 -19 l5 -24 12 27 c10 20 20 26 44 26 28 0 30 -2 25 -27 -3 -16 -8
-47 -11 -70 -5 -33 -11 -43 -26 -43 -15 0 -19 7 -20 33 l-1 32 -14 -32 c-16
-38 -44 -44 -44 -10 0 12 -5 29 -10 37 -8 12 -10 11 -10 -7 0 -32 -10 -53 -26
-53 -17 0 -17 -2 -3 77 11 64 11 64 42 61 23 -2 33 -9 37 -27z m490 2 l13 -28
6 25 c4 14 15 26 25 28 16 4 17 -1 11 -50 -3 -29 -9 -61 -11 -70 -8 -29 -40
-21 -54 12 -7 17 -16 30 -21 30 -5 0 -9 -13 -9 -30 0 -24 -4 -30 -21 -30 -19
0 -20 4 -14 43 14 92 16 97 39 97 15 0 27 -9 36 -27z m622 2 c6 -14 15 -25 20
-25 4 0 8 11 8 25 0 19 5 25 21 25 17 0 20 -5 15 -27 -3 -16 -8 -47 -11 -70
-9 -56 -34 -58 -60 -5 -10 20 -19 33 -20 27 -2 -5 -6 -22 -9 -37 -4 -16 -13
-28 -22 -28 -14 0 -15 9 -9 63 4 34 9 65 12 70 10 16 44 6 55 -18z m192 9 c22
-22 20 -66 -5 -98 -17 -22 -28 -26 -70 -26 -56 0 -57 2 -38 90 l11 50 43 0
c26 0 50 -6 59 -16z m839 -6 c3 -13 9 -44 12 -70 7 -45 6 -48 -14 -48 -12 0
-24 7 -27 15 -4 8 -13 15 -20 15 -8 0 -17 -7 -20 -15 -5 -13 -44 -23 -44 -11
0 2 14 33 30 70 25 54 34 66 54 66 16 0 25 -7 29 -22z m342 -33 c-7 -55 -7
-55 20 -55 48 0 22 -25 -30 -28 l-48 -3 7 63 c9 73 11 78 37 78 19 0 20 -4 14
-55z m1587 -63 c7 -7 35 -12 63 -12 28 0 56 -5 63 -12 8 -8 15 -8 26 1 8 7 25
11 38 9 19 -2 24 -10 26 -43 2 -27 -1 -43 -13 -51 -17 -13 -55 -8 -55 7 0 5
-11 2 -24 -6 -32 -21 -66 -5 -66 30 0 14 -4 25 -10 25 -5 0 -10 -13 -10 -29 0
-39 -16 -48 -31 -19 -7 13 -12 24 -11 26 1 1 -1 2 -5 3 -5 0 -10 -10 -13 -22
-6 -25 -29 -38 -31 -17 -6 47 -4 95 3 110 9 18 32 18 50 0z m435 -14 c57 1 94
-2 98 -8 5 -8 11 -8 20 0 8 6 24 10 37 8 19 -2 23 -10 26 -45 2 -33 -1 -44
-17 -52 -22 -12 -51 -5 -51 13 0 6 -4 5 -9 -3 -10 -16 -108 -24 -117 -10 -3 5
-14 4 -25 -1 -13 -7 -25 -7 -38 0 -11 5 -22 6 -25 1 -3 -4 -22 -8 -43 -7 l-38
1 0 60 c0 58 1 60 30 66 21 4 35 1 45 -10 12 -13 33 -15 107 -13z m295 9 c9
-15 88 -16 88 -1 0 20 66 22 89 3 15 -13 34 -16 72 -12 30 2 56 -1 65 -8 10
-8 14 -8 14 0 0 7 23 11 66 10 l66 -2 -6 -50 c-9 -63 -11 -67 -42 -67 -20 0
-23 3 -16 18 10 20 2 62 -13 65 -5 1 -11 -12 -13 -30 -3 -30 -6 -32 -38 -31
-19 1 -37 -2 -40 -5 -12 -11 -42 12 -47 35 -4 21 -4 20 -6 -3 -1 -36 -30 -46
-52 -18 l-16 22 -5 -21 c-5 -18 -11 -20 -39 -16 -19 3 -40 5 -46 4 -7 0 -22 0
-33 0 -48 0 -57 0 -85 -2 -30 -3 -30 -2 -33 51 -4 72 2 85 35 76 16 -4 31 -12
35 -18z"/>
<path d="M1806 12354 c-3 -9 -6 -29 -6 -46 0 -22 4 -29 17 -26 17 3 36 54 28
76 -6 17 -32 15 -39 -4z"/>
<path d="M2420 12360 c0 -5 9 -10 20 -10 11 0 20 5 20 10 0 6 -9 10 -20 10
-11 0 -20 -4 -20 -10z"/>
<path d="M2836 11803 c-4 -10 -4 -53 0 -96 7 -79 21 -104 46 -79 15 15 11 161
-3 179 -16 18 -36 16 -43 -4z"/>
<path d="M2960 11296 c0 -14 4 -27 8 -30 5 -3 6 8 4 25 -5 35 -12 38 -12 5z"/>
<path d="M3797 11813 c-2 -4 -8 -122 -12 -260 l-7 -253 31 0 c17 0 31 1 32 3
0 1 3 40 6 87 3 47 9 89 14 94 5 6 4 14 -1 21 -5 6 -11 79 -12 161 -3 144 -4
149 -25 152 -11 2 -23 0 -26 -5z"/>
<path d="M3744 11295 c-18 -14 -18 -14 4 -8 12 3 22 9 22 14 0 12 -3 11 -26
-6z"/>
<path d="M2929 10908 c0 -2 -2 -38 -4 -80 -2 -71 -1 -78 17 -78 33 0 52 95 28
141 -9 15 -37 27 -41 17z"/>
<path d="M2922 10560 c-1 -81 4 -95 32 -84 13 5 16 22 16 85 0 76 -1 79 -24
79 -23 0 -23 -3 -24 -80z"/>
<path d="M5005 10910 c-3 -5 -3 -14 0 -20 3 -5 0 -10 -8 -10 -12 0 -13 -6 -4
-37 6 -21 10 -83 9 -138 -1 -55 -2 -121 -2 -147 -1 -55 13 -88 38 -88 10 0 23
-5 30 -12 9 -9 12 -8 12 5 0 9 -5 17 -10 17 -7 0 -10 54 -9 155 2 137 8 182
21 143 3 -9 6 -9 12 1 5 8 1 14 -13 18 -18 4 -21 13 -21 52 0 47 -13 71 -36
71 -7 0 -16 -4 -19 -10z"/>
<path d="M5105 10861 c-3 -5 -1 -12 5 -16 5 -3 10 1 10 9 0 18 -6 21 -15 7z"/>
<path d="M4970 10804 c0 -8 5 -12 10 -9 6 3 10 10 10 16 0 5 -4 9 -10 9 -5 0
-10 -7 -10 -16z"/>
<path d="M5027 10429 c7 -7 15 -10 18 -7 3 3 -2 9 -12 12 -14 6 -15 5 -6 -5z"/>
<path d="M5060 10416 c0 -9 5 -16 10 -16 6 0 10 4 10 9 0 6 -4 13 -10 16 -5 3
-10 -1 -10 -9z"/>
<path d="M6180 10826 c0 -68 2 -76 19 -76 22 0 28 25 21 95 -4 37 -9 51 -22
53 -16 3 -18 -6 -18 -72z"/>
<path d="M3672 8978 c-13 -13 -16 -56 -6 -82 7 -19 45 -21 62 -4 15 15 16 53
2 79 -12 21 -40 25 -58 7z"/>
<path d="M1176 8593 c-6 -7 24 -73 45 -98 9 -11 26 -67 38 -125 12 -58 25
-118 29 -135 21 -76 45 11 40 145 -4 91 -35 182 -66 195 -29 12 -81 23 -86 18z"/>
<path d="M1150 8356 c0 -87 17 -167 40 -190 26 -26 37 -13 22 27 -7 19 -12 61
-12 95 0 59 -23 132 -42 132 -4 0 -8 -29 -8 -64z"/>
<path d="M4927 9325 c-6 -19 -33 -246 -39 -332 l-4 -43 43 0 43 0 -1 38 c-1
80 -35 356 -42 337z"/>
<path d="M2104 9159 c-18 -20 -19 -45 -22 -477 -3 -477 -1 -501 40 -523 11 -6
36 -8 55 -4 62 11 63 22 63 482 0 414 -6 487 -40 529 -19 21 -74 18 -96 -7z"/>
<path d="M3031 9242 c-9 -22 -9 -35 0 -55 17 -37 56 -37 70 0 24 64 -44 118
-70 55z"/>
<path d="M4102 8604 c-27 -19 -28 -36 -3 -58 28 -25 61 -13 61 23 0 25 -15 51
-30 51 -3 0 -16 -7 -28 -16z m35 -10 c-3 -3 -12 -4 -19 -1 -8 3 -5 6 6 6 11 1
17 -2 13 -5z"/>
<path d="M4936 8245 c-9 -26 -7 -32 5 -12 6 10 9 21 6 23 -2 3 -7 -2 -11 -11z"/>
<path d="M4331 8224 c0 -11 3 -14 6 -6 3 7 2 16 -1 19 -3 4 -6 -2 -5 -13z"/>
<path d="M4952 8210 c0 -14 2 -19 5 -12 2 6 2 18 0 25 -3 6 -5 1 -5 -13z"/>
<path d="M4931 8180 c0 -8 4 -22 9 -30 12 -18 12 -2 0 25 -6 13 -9 15 -9 5z"/>
<path d="M5840 8050 c0 -5 5 -10 10 -10 6 0 10 5 10 10 0 6 -4 10 -10 10 -5 0
-10 -4 -10 -10z"/>
<path d="M5272 7970 c0 -19 2 -27 5 -17 2 9 2 25 0 35 -3 9 -5 1 -5 -18z"/>
<path d="M6442 7795 c0 -16 2 -22 5 -12 2 9 2 23 0 30 -3 6 -5 -1 -5 -18z"/>
<path d="M5875 7729 c-4 -6 -5 -12 -2 -15 2 -3 7 2 10 11 7 17 1 20 -8 4z"/>
<path d="M6120 7649 c0 -15 7 -33 16 -40 15 -12 16 -11 9 11 -14 46 -24 58
-25 29z"/>
<path d="M6097 7634 c-3 -5 1 -15 9 -22 16 -14 18 -5 5 17 -5 7 -11 9 -14 5z"/>
<path d="M6070 7600 c-9 -6 -10 -10 -3 -10 6 0 15 5 18 10 8 12 4 12 -15 0z"/>
<path d="M6192 7540 c0 -14 2 -19 5 -12 2 6 2 18 0 25 -3 6 -5 1 -5 -13z"/>
<path d="M6050 7540 c8 -5 20 -10 25 -10 6 0 3 5 -5 10 -8 5 -19 10 -25 10 -5
0 -3 -5 5 -10z"/>
<path d="M6171 7534 c0 -11 3 -14 6 -6 3 7 2 16 -1 19 -3 4 -6 -2 -5 -13z"/>
<path d="M3465 7480 c-3 -6 1 -7 9 -4 18 7 21 14 7 14 -6 0 -13 -4 -16 -10z"/>
<path d="M2928 7303 c6 -2 18 -2 25 0 6 3 1 5 -13 5 -14 0 -19 -2 -12 -5z"/>
<path d="M2988 7303 c7 -3 16 -2 19 1 4 3 -2 6 -13 5 -11 0 -14 -3 -6 -6z"/>
<path d="M2998 7263 c7 -3 16 -2 19 1 4 3 -2 6 -13 5 -11 0 -14 -3 -6 -6z"/>
<path d="M2918 7243 c7 -3 16 -2 19 1 4 3 -2 6 -13 5 -11 0 -14 -3 -6 -6z"/>
<path d="M4796 7131 c-10 -11 -28 -21 -40 -23 -11 -2 -19 -7 -18 -12 4 -9 -16
-26 -30 -26 -5 0 -8 6 -8 13 0 9 -10 12 -30 9 -38 -5 -47 -19 -26 -40 13 -13
20 -14 35 -5 15 9 23 8 40 -3 31 -22 28 -48 -5 -40 -22 6 -25 4 -22 -16 3 -26
41 -37 63 -18 19 15 68 -14 119 -70 37 -42 46 -77 22 -86 -12 -5 -21 -64 -10
-64 8 0 92 61 107 78 10 11 38 32 63 48 51 32 64 67 14 38 -27 -17 -30 -17
-48 -1 -10 9 -28 17 -40 17 -14 0 -22 6 -22 18 -1 21 -16 40 -60 73 -19 15
-50 41 -69 58 l-34 30 24 20 c18 15 20 20 8 21 -9 0 -24 -9 -33 -19z m-36 -71
c0 -5 -4 -10 -10 -10 -5 0 -10 5 -10 10 0 6 5 10 10 10 6 0 10 -4 10 -10z"/>
<path d="M4585 7135 c-5 -2 -22 -6 -37 -9 -37 -8 -35 -19 7 -39 45 -22 48 -21
40 3 -4 13 -1 22 9 26 32 12 14 30 -19 19z"/>
<path d="M4872 7124 c-13 -14 -8 -34 8 -34 11 0 19 25 12 37 -5 7 -11 6 -20
-3z"/>
<path d="M2828 7123 c7 -3 16 -2 19 1 4 3 -2 6 -13 5 -11 0 -14 -3 -6 -6z"/>
<path d="M4440 7060 c0 -8 3 -10 7 -7 3 4 14 0 24 -9 19 -17 60 -11 43 6 -17
17 -74 24 -74 10z"/>
<path d="M4520 6993 l-22 -23 43 1 c24 0 62 3 84 8 40 7 40 7 15 20 -40 22
-96 19 -120 -6z"/>
<path d="M6366 7002 c-6 -10 19 -43 27 -35 13 12 7 43 -7 43 -8 0 -17 -3 -20
-8z"/>
<path d="M4282 6978 c-19 -11 -29 -25 -25 -29 13 -13 63 13 63 34 0 21 2 21
-38 -5z"/>
<path d="M5785 6960 c3 -5 10 -10 16 -10 5 0 9 5 9 10 0 6 -7 10 -16 10 -8 0
-12 -4 -9 -10z"/>
<path d="M5890 6955 c-7 -8 -19 -15 -26 -15 -8 0 -14 -5 -14 -11 0 -17 -40
-99 -48 -99 -4 0 -15 9 -25 20 -20 24 -45 26 -53 5 -10 -26 -52 -14 -96 28
-23 22 -36 22 -40 -2 -3 -18 -6 -18 -43 -6 -27 10 -43 11 -52 4 -7 -6 -31 -8
-55 -5 l-43 6 35 -16 c19 -9 56 -27 81 -40 26 -13 55 -24 66 -24 10 0 34 -8
53 -19 23 -12 42 -15 55 -10 30 12 35 10 29 -6 -8 -19 42 -85 63 -85 9 0 25 7
35 17 28 25 35 6 8 -22 -13 -14 -18 -25 -12 -25 7 0 12 5 12 11 0 7 7 8 18 4
9 -4 28 -8 41 -9 18 -1 27 -9 32 -28 4 -16 3 -28 -2 -28 -15 0 -10 -26 10 -52
11 -13 37 -30 58 -36 25 -7 45 -22 56 -42 23 -37 64 -43 63 -7 -1 18 4 22 25
19 21 -2 32 6 54 38 28 40 28 74 0 64 -8 -3 -15 -12 -15 -18 0 -24 -21 -31
-77 -26 l-58 5 3 43 c3 36 0 42 -17 42 -11 0 -23 -4 -26 -10 -3 -5 -17 -10
-31 -10 -20 0 -24 4 -19 19 9 31 -5 71 -25 71 -13 0 -20 9 -22 28 -2 21 -8 27
-25 25 -11 -1 -27 4 -33 12 -7 8 -19 15 -26 15 -20 0 -17 28 4 39 38 21 103
92 108 121 7 32 -6 40 -26 15z"/>
<path d="M5682 6923 c4 -21 27 -27 48 -14 18 12 14 16 -23 25 -24 6 -28 4 -25
-11z"/>
<path d="M4390 6920 c0 -5 5 -10 10 -10 6 0 10 5 10 10 0 6 -4 10 -10 10 -5 0
-10 -4 -10 -10z"/>
<path d="M4228 6870 c-16 -16 -28 -34 -28 -39 0 -15 -30 -14 -31 2 -1 6 0 22
1 35 2 25 -12 29 -29 8 -7 -8 -22 -17 -35 -20 -27 -7 -37 -33 -29 -81 l5 -34
-38 6 c-22 3 -45 11 -53 17 -7 6 -28 11 -46 12 -27 0 -31 -3 -27 -18 5 -20 38
-25 46 -5 6 15 34 -18 43 -51 7 -29 -12 -51 -29 -34 -15 15 -28 16 -28 2 0
-18 45 -21 80 -5 61 28 97 49 114 68 10 9 27 17 39 17 11 0 35 5 53 12 27 10
36 9 51 -3 26 -21 90 -49 113 -49 13 0 20 -7 20 -20 0 -11 9 -25 20 -32 11 -7
20 -18 20 -24 0 -27 28 -36 77 -24 26 6 64 14 83 17 30 5 32 7 15 14 -11 4
-32 8 -47 8 -16 1 -28 5 -28 10 0 17 30 33 55 29 16 -3 30 1 41 13 10 11 27
19 38 19 12 0 28 5 36 10 13 9 13 11 0 20 -20 13 -37 12 -47 -2 -23 -37 -107
-44 -134 -12 -8 10 -15 11 -24 4 -21 -17 -47 -1 -41 25 8 32 -18 53 -39 31
-21 -20 -31 -20 -39 0 -9 24 -7 34 8 34 7 0 27 7 42 15 26 13 29 13 32 0 4
-19 22 -20 22 -2 0 28 -37 50 -74 43 -22 -4 -36 -2 -38 5 -2 6 -23 -9 -47 -33
l-44 -43 28 -5 c57 -10 34 -51 -23 -43 -24 4 -32 9 -27 20 3 9 0 22 -6 30 -9
11 -7 19 10 36 29 31 27 47 -6 47 -17 -1 -39 -12 -55 -30z"/>
<path d="M2880 6879 c0 -5 5 -7 10 -4 6 3 10 8 10 11 0 2 -4 4 -10 4 -5 0 -10
-5 -10 -11z"/>
<path d="M6332 6869 c2 -6 8 -10 13 -10 5 0 11 4 13 10 2 6 -4 11 -13 11 -9 0
-15 -5 -13 -11z"/>
<path d="M6420 6870 c0 -5 4 -10 9 -10 6 0 13 5 16 10 3 6 -1 10 -9 10 -9 0
-16 -4 -16 -10z"/>
<path d="M6370 6841 c0 -5 5 -13 10 -16 6 -3 10 -2 10 4 0 5 -4 13 -10 16 -5
3 -10 2 -10 -4z"/>
<path d="M3810 6821 c0 -12 6 -21 15 -21 9 0 18 -12 22 -30 6 -34 23 -51 23
-24 0 9 7 22 16 29 14 9 14 16 5 33 -6 12 -20 22 -31 22 -10 0 -25 3 -34 6
-12 4 -16 0 -16 -15z"/>
<path d="M3146 6801 c-18 -19 -24 -31 -16 -36 15 -9 37 11 43 40 2 14 3 25 2
25 0 0 -14 -13 -29 -29z"/>
<path d="M4753 6808 c-12 -6 -24 -17 -28 -25 -4 -12 1 -14 20 -11 21 5 25 2
20 -13 -7 -22 -3 -23 44 -8 20 7 43 14 50 16 10 2 1 13 -25 28 -44 27 -50 28
-81 13z"/>
<path d="M2970 6789 c0 -5 5 -7 10 -4 6 3 10 8 10 11 0 2 -4 4 -10 4 -5 0 -10
-5 -10 -11z"/>
<path d="M5085 6789 c-11 -17 -2 -18 19 -3 17 12 17 14 4 14 -9 0 -20 -5 -23
-11z"/>
<path d="M6110 6760 c0 -10 9 -24 20 -30 23 -12 24 -10 8 25 -13 30 -28 33
-28 5z"/>
<path d="M6200 6765 c-7 -9 -10 -18 -7 -21 10 -10 47 7 47 22 0 19 -24 18 -40
-1z"/>
<path d="M3520 6762 c0 -4 -10 -12 -22 -17 -29 -13 -35 -35 -9 -35 30 0 27
-29 -6 -66 -54 -58 -90 -109 -96 -135 -4 -17 -18 -31 -37 -39 -16 -7 -32 -21
-35 -31 -4 -10 -12 -19 -19 -19 -7 0 -25 -11 -40 -25 -15 -14 -34 -25 -42 -25
-7 0 -14 -4 -14 -9 0 -5 24 -7 53 -4 28 3 106 7 172 9 141 3 182 10 214 35 13
11 32 19 42 19 18 0 124 53 144 71 5 5 19 9 30 9 29 0 85 28 92 46 8 22 -15
42 -50 46 -24 2 -33 9 -37 28 -3 14 -14 26 -24 28 -15 3 -17 -1 -11 -27 6 -30
6 -31 -32 -31 -25 0 -33 -3 -24 -9 13 -8 8 -31 -8 -31 -4 0 -20 13 -37 29 -16
15 -44 32 -61 35 -18 4 -38 15 -44 24 -6 10 -12 13 -15 6 -2 -6 -18 -8 -34 -6
-38 5 -41 38 -6 52 13 5 27 14 31 20 8 13 50 -10 75 -40 8 -10 26 -20 40 -22
17 -2 24 -8 22 -19 -1 -9 4 -19 13 -23 22 -8 19 21 -7 57 -13 18 -21 39 -20
48 2 12 -3 15 -22 12 -17 -4 -27 1 -35 16 -15 28 -43 26 -97 -5 -24 -14 -44
-21 -44 -16 0 6 5 14 10 17 6 3 10 13 10 21 0 8 -4 14 -10 14 -5 0 -10 -3 -10
-8z m29 -189 c20 -17 22 -22 9 -23 -19 0 -48 37 -47 60 0 13 1 13 6 0 3 -8 17
-25 32 -37z m-40 -62 c-13 -11 -30 -20 -37 -21 -8 0 -22 -10 -32 -22 -10 -13
-22 -20 -26 -15 -4 4 2 17 13 30 11 12 18 28 16 35 -3 7 4 12 19 12 13 0 30 5
38 10 27 17 35 -8 9 -29z m19 -43 c-6 -17 -36 -34 -45 -24 -4 4 1 14 11 22 24
17 39 18 34 2z m80 -45 c2 -7 -4 -13 -14 -13 -10 0 -25 -7 -35 -16 -27 -25
-40 -7 -16 21 23 26 57 30 65 8z"/>
<path d="M3048 6740 c-7 -11 -19 -20 -26 -20 -8 0 -10 -8 -6 -25 5 -19 2 -25
-10 -25 -9 0 -16 -7 -16 -16 0 -9 6 -14 13 -11 8 3 20 1 28 -4 11 -7 9 -13
-11 -29 -14 -11 -30 -20 -36 -20 -9 0 -18 -13 -42 -62 -8 -18 29 -6 40 12 15
23 38 25 84 8 29 -10 32 -15 27 -41 -6 -27 -4 -28 15 -18 15 8 27 8 46 0 31
-15 56 -6 56 21 0 13 -7 20 -19 20 -32 0 -34 19 -7 55 14 18 26 38 26 43 0 15
45 52 63 52 10 0 20 7 23 15 4 8 12 15 20 15 22 0 16 16 -11 28 -21 10 -28 8
-42 -7 -10 -10 -27 -21 -38 -25 -11 -4 -28 -18 -38 -32 -18 -24 -18 -26 -2
-44 17 -19 17 -20 0 -26 -12 -5 -24 0 -36 15 -12 15 -25 21 -38 16 -25 -8 -37
23 -15 40 21 15 13 55 -16 73 -17 10 -22 9 -32 -8z"/>
<path d="M5043 6743 c-3 -10 -8 -21 -10 -25 -7 -13 5 -9 21 8 9 8 16 20 16 25
0 16 -20 10 -27 -8z"/>
<path d="M6346 6705 c-4 -11 -13 -14 -31 -9 -30 7 -75 -24 -53 -37 6 -4 20 -3
29 2 10 5 26 9 37 9 12 0 22 9 25 22 7 26 2 36 -7 13z"/>
<path d="M3380 6677 c0 -8 -9 -22 -20 -32 -11 -10 -20 -29 -20 -42 0 -38 -18
-63 -45 -63 -15 0 -25 -6 -25 -15 0 -8 -9 -19 -20 -25 -11 -6 -20 -17 -20 -24
0 -7 9 -21 20 -31 18 -16 20 -17 20 -1 0 9 10 21 23 26 33 14 57 35 57 51 1
34 29 93 51 105 13 7 18 13 12 14 -7 0 -13 11 -13 25 0 14 -4 25 -10 25 -5 0
-10 -6 -10 -13z"/>
<path d="M4830 6669 c0 -5 5 -7 10 -4 6 3 10 8 10 11 0 2 -4 4 -10 4 -5 0 -10
-5 -10 -11z"/>
<path d="M5040 6665 c-14 -8 -34 -12 -45 -9 -24 6 -64 -31 -49 -45 27 -25 50
-20 89 19 42 43 44 56 5 35z"/>
<path d="M6147 6669 c-10 -6 -31 -7 -47 -4 -25 6 -30 4 -30 -13 0 -15 5 -19
21 -15 15 4 22 0 26 -15 8 -34 36 -31 75 9 20 21 34 40 31 43 -10 10 -56 6
-76 -5z"/>
<path d="M4339 6653 c-7 -7 -21 -10 -33 -7 -14 3 -27 -1 -35 -10 -12 -14 -16
-14 -43 0 -28 15 -31 14 -49 -5 -11 -12 -24 -21 -28 -21 -5 0 -12 -7 -15 -16
-5 -13 -1 -14 24 -9 32 7 38 -2 18 -24 -11 -11 -9 -13 12 -7 14 3 37 6 52 6
15 0 34 7 42 16 17 16 39 19 71 9 31 -9 78 30 65 55 -12 22 -66 31 -81 13z"/>
<path d="M6403 6646 c-4 -7 -18 -18 -31 -25 -24 -13 -21 -31 5 -31 9 0 13 6 9
15 -3 9 0 15 10 15 10 0 14 -6 10 -15 -3 -8 5 -26 18 -40 20 -21 25 -23 35
-11 7 8 24 17 39 21 l27 7 -45 39 c-48 41 -64 47 -77 25z"/>
<path d="M5830 6620 c0 -13 18 -22 24 -11 3 5 -1 11 -9 15 -8 3 -15 1 -15 -4z"/>
<path d="M5597 6600 c-16 -15 -17 -21 -5 -39 15 -25 53 -29 44 -5 -3 9 -6 27
-6 40 0 28 -8 30 -33 4z"/>
<path d="M6231 6569 c-7 -16 -11 -35 -8 -41 3 -8 7 -6 12 7 3 11 11 28 16 37
5 9 5 19 1 22 -4 2 -14 -9 -21 -25z"/>
<path d="M5110 6581 c0 -6 -15 -11 -32 -13 -18 -2 -32 -7 -31 -13 2 -11 24
-17 113 -36 30 -6 64 -16 75 -22 84 -45 229 -107 249 -107 18 0 18 1 1 20 -10
11 -24 20 -32 20 -28 0 -72 30 -93 65 -12 19 -27 35 -34 35 -6 0 -20 10 -30
22 l-19 22 -10 -22 c-12 -27 -22 -28 -44 -2 -11 12 -30 20 -50 20 -18 0 -33 5
-33 10 0 6 -7 10 -15 10 -8 0 -15 -4 -15 -9z"/>
<path d="M5660 6571 c0 -6 5 -13 10 -16 6 -3 10 1 10 9 0 9 -4 16 -10 16 -5 0
-10 -4 -10 -9z"/>
<path d="M6414 6539 c-3 -6 -1 -16 5 -22 8 -8 11 -5 11 11 0 24 -5 28 -16 11z"/>
<path d="M5640 6515 c0 -8 7 -15 15 -15 9 0 12 6 9 15 -4 8 -10 15 -15 15 -5
0 -9 -7 -9 -15z"/>
<path d="M4340 6500 c0 -25 -25 -37 -44 -21 -11 9 -16 9 -21 0 -4 -6 -2 -15 5
-19 18 -11 5 -40 -17 -40 -23 0 -83 -36 -83 -50 0 -5 16 -10 35 -10 57 0 45
-15 -37 -49 -16 -6 -28 -15 -28 -20 0 -14 32 -23 44 -11 13 13 56 13 56 0 0
-5 -13 -19 -30 -32 -16 -12 -30 -28 -30 -35 0 -7 -9 -13 -20 -13 -11 0 -20 -7
-20 -15 0 -8 -7 -15 -15 -15 -8 0 -15 -4 -15 -10 0 -23 36 -7 81 35 26 25 53
45 59 45 5 0 10 5 10 11 0 7 8 18 18 25 16 13 16 13 0 14 -11 0 -18 8 -18 18
0 11 8 26 18 34 17 14 113 48 137 48 7 0 15 7 19 15 10 27 -57 18 -105 -15
-41 -28 -79 -39 -79 -23 0 12 81 83 94 83 15 0 39 47 31 61 -12 18 -45 10 -45
-11z"/>
<path d="M2900 6495 c-10 -12 -10 -15 3 -15 8 0 20 7 27 15 10 12 10 15 -3 15
-8 0 -20 -7 -27 -15z"/>
<path d="M4480 6489 c0 -5 5 -7 10 -4 6 3 10 8 10 11 0 2 -4 4 -10 4 -5 0 -10
-5 -10 -11z"/>
<path d="M5710 6486 c0 -9 5 -16 10 -16 6 0 10 4 10 9 0 6 -4 13 -10 16 -5 3
-10 -1 -10 -9z"/>
<path d="M4580 6466 c0 -9 -8 -16 -19 -16 -46 0 -64 -25 -42 -59 7 -11 13 -10
34 3 14 9 27 26 30 38 5 16 11 19 31 14 29 -7 36 8 9 18 -10 3 -24 9 -30 12
-8 3 -13 -1 -13 -10z"/>
<path d="M4901 6459 c-34 -28 -20 -34 46 -19 55 12 56 13 32 26 -33 18 -50 17
-78 -7z"/>
<path d="M2950 6440 c-13 -24 -13 -27 4 -33 8 -3 21 4 30 18 14 21 14 23 -5
28 -12 3 -23 -1 -29 -13z"/>
<path d="M4190 6450 c-8 -5 -11 -12 -7 -16 4 -4 15 0 24 9 18 18 8 23 -17 7z"/>
<path d="M5538 6449 c-22 -12 -23 -39 -2 -39 24 0 54 19 54 35 0 17 -27 19
-52 4z"/>
<path d="M3060 6433 c-14 -10 -38 -25 -53 -33 -24 -12 -27 -18 -21 -43 8 -36
33 -67 55 -67 35 0 109 41 109 60 0 10 7 23 16 28 29 16 11 37 -29 34 -30 -3
-39 0 -45 18 -8 21 -8 21 -32 3z"/>
<path d="M5626 6438 c-12 -7 -16 -17 -12 -34 6 -21 3 -24 -20 -24 -22 0 -24
-2 -15 -14 7 -8 29 -14 50 -14 21 0 56 -3 79 -7 42 -7 42 -7 42 24 0 32 -22
51 -59 51 -12 0 -21 4 -21 9 0 15 -25 20 -44 9z"/>
<path d="M6440 6431 c0 -11 31 -24 39 -16 3 3 -1 10 -9 15 -19 12 -30 12 -30
1z"/>
<path d="M4060 6390 c0 -23 31 -27 49 -7 14 17 4 27 -26 27 -16 0 -23 -6 -23
-20z"/>
<path d="M5837 6396 c-10 -8 -26 -12 -36 -9 -14 4 -18 -1 -17 -24 1 -21 6 -29
24 -31 13 -2 30 2 38 9 9 7 37 11 68 10 37 -1 57 3 66 14 7 8 23 15 37 15 13
0 22 4 18 10 -3 5 -36 9 -73 8 -37 0 -76 2 -87 6 -11 3 -28 0 -38 -8z"/>
<path d="M4645 6380 c4 -6 11 -8 16 -5 14 9 11 15 -7 15 -8 0 -12 -5 -9 -10z"/>
<path d="M5233 6355 c-36 -15 -45 -48 -17 -59 22 -9 23 -8 17 13 -4 15 1 20
23 23 18 2 30 10 32 21 4 20 -12 21 -55 2z"/>
<path d="M3977 6340 c-11 -16 -21 -20 -37 -15 -18 6 -20 4 -14 -19 5 -21 3
-26 -14 -26 -13 0 -22 -9 -26 -25 -4 -14 -17 -30 -29 -34 -23 -9 -54 -41 -75
-79 -10 -19 -11 -27 -1 -38 10 -12 9 -18 -3 -30 -15 -15 -13 -74 3 -74 5 0 9
-9 9 -20 0 -11 5 -20 11 -20 6 0 8 -8 5 -17 -4 -14 0 -18 20 -20 25 -1 26 1
20 38 -5 34 -3 43 19 63 26 24 33 46 14 46 -5 0 -8 4 -5 9 3 5 14 7 24 4 25
-6 46 36 40 79 -4 26 1 41 24 70 22 28 27 43 22 62 -5 20 -2 26 9 26 22 0 29
16 13 29 -11 9 -17 7 -29 -9z"/>
<path d="M4445 6334 c-77 -57 -85 -67 -74 -80 13 -16 33 -19 24 -5 -6 10 47
53 78 64 19 7 24 37 5 37 -7 0 -22 -7 -33 -16z"/>
<path d="M4315 6320 c-3 -5 -4 -14 0 -20 8 -13 35 -1 35 16 0 16 -26 19 -35 4z"/>
<path d="M5250 6277 c0 -8 7 -20 15 -27 12 -10 15 -10 15 3 0 8 -7 20 -15 27
-12 10 -15 10 -15 -3z"/>
<path d="M4625 6270 c-3 -5 -1 -10 4 -10 6 0 11 5 11 10 0 6 -2 10 -4 10 -3 0
-8 -4 -11 -10z"/>
<path d="M4525 6240 c-9 -30 -3 -33 44 -20 46 12 63 30 29 30 -13 0 -33 3 -45
6 -16 4 -23 0 -28 -16z"/>
<path d="M6590 6249 c0 -5 5 -7 10 -4 6 3 10 8 10 11 0 2 -4 4 -10 4 -5 0 -10
-5 -10 -11z"/>
<path d="M4110 6230 c0 -5 7 -10 15 -10 8 0 15 5 15 10 0 6 -7 10 -15 10 -8 0
-15 -4 -15 -10z"/>
<path d="M6390 6230 c0 -5 7 -10 16 -10 8 0 12 5 9 10 -3 6 -10 10 -16 10 -5
0 -9 -4 -9 -10z"/>
<path d="M4340 6200 c0 -5 9 -10 20 -10 11 0 20 5 20 10 0 6 -9 10 -20 10 -11
0 -20 -4 -20 -10z"/>
<path d="M6104 6195 c-3 -8 -21 -20 -40 -27 -40 -14 -41 -17 -13 -47 l21 -22
15 20 c8 12 20 21 28 21 8 0 13 12 12 35 -1 36 -13 47 -23 20z"/>
<path d="M5325 6190 c-3 -5 3 -10 13 -10 21 0 47 -53 36 -71 -12 -20 26 -19
45 0 29 29 27 37 -19 66 -42 27 -65 31 -75 15z"/>
<path d="M3995 6160 c3 -5 10 -10 16 -10 5 0 9 5 9 10 0 6 -7 10 -16 10 -8 0
-12 -4 -9 -10z"/>
<path d="M3118 6132 c-4 -14 3 -22 28 -31 69 -25 98 -23 87 4 -3 9 -18 15 -38
15 -20 0 -35 6 -39 15 -8 21 -33 19 -38 -3z"/>
<path d="M4054 6142 c-6 -4 -14 -26 -17 -48 -6 -33 -4 -43 9 -48 22 -8 34 1
34 28 0 12 5 27 10 32 23 23 -9 55 -36 36z"/>
<path d="M4468 6143 c-21 -5 -22 -21 -4 -45 12 -16 14 -16 35 8 31 36 19 50
-31 37z"/>
<path d="M4190 6119 c0 -5 5 -7 10 -4 6 3 10 8 10 11 0 2 -4 4 -10 4 -5 0 -10
-5 -10 -11z"/>
<path d="M4395 6110 c-10 -11 -13 -20 -7 -20 7 0 12 5 12 10 0 6 7 10 15 10 8
0 15 5 15 10 0 16 -15 12 -35 -10z"/>
<path d="M3677 6076 c-33 -25 -12 -123 23 -101 11 7 14 84 2 102 -5 8 -11 8
-25 -1z"/>
<path d="M4340 6061 c0 -5 5 -13 10 -16 6 -3 10 -2 10 4 0 5 -4 13 -10 16 -5
3 -10 2 -10 -4z"/>
<path d="M2400 6013 c0 -10 -3 -29 -7 -43 -6 -22 -5 -24 10 -11 19 15 23 56 7
66 -5 3 -10 -2 -10 -12z"/>
<path d="M4060 6000 c9 -17 14 -18 30 -8 21 14 10 28 -23 28 -15 0 -16 -3 -7
-20z"/>
<path d="M2800 6004 c0 -5 9 -20 18 -32 18 -23 20 -23 55 -8 39 16 49 36 20
36 -10 0 -35 3 -55 6 -21 4 -38 3 -38 -2z"/>
<path d="M4347 5963 c-4 -3 -7 -15 -7 -26 0 -16 3 -17 15 -7 8 7 15 19 15 26
0 15 -12 19 -23 7z"/>
<path d="M2633 5931 c-47 -12 -63 -20 -63 -33 0 -14 8 -18 34 -18 19 0 38 5
41 10 3 6 13 10 22 10 15 0 42 27 43 43 0 9 0 9 -77 -12z"/>
<path d="M3803 5893 c-21 -7 -15 -33 7 -33 11 0 20 6 20 14 0 18 -11 25 -27
19z"/>
<path d="M4462 5878 c-14 -14 -16 -38 -3 -38 5 0 14 7 21 15 17 20 0 41 -18
23z"/>
<path d="M2518 5863 c-27 -7 -22 -23 7 -23 16 0 25 6 25 15 0 15 -2 16 -32 8z"/>
<path d="M4021 5830 c-11 -27 -10 -33 11 -59 26 -34 34 -37 42 -16 3 10 -1 15
-14 15 -22 0 -30 28 -16 52 7 12 7 21 1 27 -7 7 -15 0 -24 -19z"/>
<path d="M6586 5791 c-4 -7 -5 -15 -2 -18 9 -9 19 4 14 18 -4 11 -6 11 -12 0z"/>
<path d="M2233 5653 c-3 -7 -2 -20 1 -29 4 -10 -1 -25 -10 -35 -14 -15 -14
-23 -3 -56 12 -36 13 -37 19 -13 3 14 13 26 23 28 21 4 32 -35 23 -82 -6 -31
-5 -34 14 -29 16 4 20 1 20 -18 0 -18 3 -20 12 -11 7 7 20 12 29 12 9 0 24 11
33 25 20 30 20 35 2 35 -19 0 -29 16 -30 48 -1 24 -12 35 -49 46 -13 4 -16 13
-13 33 3 16 0 35 -7 44 -14 18 -57 20 -64 2z"/>
<path d="M6300 5640 c0 -5 5 -10 11 -10 5 0 7 5 4 10 -3 6 -8 10 -11 10 -2 0
-4 -4 -4 -10z"/>
<path d="M3226 5574 c-5 -13 -9 -15 -18 -6 -17 17 -38 15 -38 -4 0 -8 -11 -32
-25 -52 -14 -20 -25 -42 -25 -50 0 -7 -12 -17 -26 -22 -14 -6 -28 -19 -31 -30
-3 -11 -10 -20 -15 -20 -5 0 -1 -11 9 -24 20 -27 33 -25 33 4 0 13 9 21 28 25
75 16 87 21 89 40 7 57 17 85 29 85 22 0 27 -20 10 -39 -20 -22 -20 -30 0 -52
14 -16 14 -18 -6 -29 -16 -9 -19 -15 -11 -23 21 -21 13 -47 -14 -47 -14 0 -25
5 -25 11 0 5 -4 7 -10 4 -5 -3 -10 -15 -10 -26 0 -22 18 -24 69 -8 20 7 42 13
49 15 9 3 7 11 -8 32 -19 26 -20 30 -5 58 17 34 19 54 5 54 -6 0 -8 10 -5 23
12 56 -31 128 -49 81z"/>
<path d="M6292 5540 c0 -14 2 -19 5 -12 2 6 2 18 0 25 -3 6 -5 1 -5 -13z"/>
<path d="M5306 5541 c-7 -11 22 -23 35 -15 5 3 9 9 9 15 0 12 -37 12 -44 0z"/>
<path d="M3316 5531 c-4 -7 -5 -15 -2 -18 9 -9 19 4 14 18 -4 11 -6 11 -12 0z"/>
<path d="M5962 5528 c-9 -9 -9 -15 -1 -25 15 -17 35 -17 42 0 7 19 -27 39 -41
25z"/>
<path d="M5450 5510 c0 -11 -4 -20 -10 -20 -5 0 -10 -8 -10 -19 0 -24 -28 -47
-52 -43 -11 2 -18 -3 -18 -12 0 -9 7 -16 15 -16 12 0 14 -8 9 -39 -5 -34 -3
-43 19 -65 16 -16 37 -26 55 -26 51 0 92 -66 60 -98 -18 -18 -33 -15 -18 3 9
11 10 19 3 26 -13 13 -41 1 -53 -22 -15 -27 -43 -13 -36 17 7 27 -14 33 -33
10 -24 -29 88 -77 140 -61 33 11 66 95 36 95 -7 0 -17 8 -24 19 -6 10 -32 29
-57 41 -25 12 -46 28 -46 36 0 8 -6 17 -14 20 -21 8 -5 57 22 69 12 5 20 15
18 21 -6 16 14 34 36 34 10 0 21 7 25 15 7 20 6 21 -34 28 -28 6 -33 4 -33
-13z"/>
<path d="M3380 5502 c0 -17 46 -52 69 -52 20 0 11 28 -15 49 -33 26 -54 27
-54 3z"/>
<path d="M5363 5513 c-15 -6 -17 -39 -3 -48 6 -3 13 0 16 9 3 9 12 12 22 9 14
-5 14 -3 -2 15 -11 12 -20 22 -20 21 -1 0 -7 -3 -13 -6z"/>
<path d="M4939 5484 c-12 -14 -11 -16 5 -13 11 2 21 10 24 17 5 17 -13 15 -29
-4z"/>
<path d="M5715 5490 c3 -5 10 -10 16 -10 5 0 9 5 9 10 0 6 -7 10 -16 10 -8 0
-12 -4 -9 -10z"/>
<path d="M5940 5464 c0 -28 43 -104 58 -104 16 0 12 22 -13 83 -15 37 -45 51
-45 21z"/>
<path d="M3781 5461 c-7 -5 -15 -27 -17 -49 -2 -22 -5 -46 -6 -53 -2 -9 8 -15
24 -17 24 -3 31 3 50 42 12 25 18 49 14 53 -5 5 -11 2 -13 -4 -3 -7 -12 -13
-20 -13 -11 0 -14 7 -9 25 7 26 0 31 -23 16z"/>
<path d="M6159 5448 c-8 -74 -6 -98 7 -98 8 0 14 6 15 13 0 6 1 31 3 55 2 29
-2 42 -11 42 -7 0 -14 -6 -14 -12z"/>
<path d="M6256 5444 c-4 -10 -1 -14 6 -12 15 5 23 28 10 28 -5 0 -13 -7 -16
-16z"/>
<path d="M4980 5443 c0 -5 9 -19 20 -33 l20 -25 0 26 c0 15 -7 29 -16 33 -20
8 -24 8 -24 -1z"/>
<path d="M4805 5413 c7 -30 20 -42 48 -44 9 -1 22 -2 28 -3 6 -1 17 16 24 37
15 43 12 44 -33 17 l-34 -21 -5 21 c-3 11 -12 20 -20 20 -12 0 -13 -7 -8 -27z"/>
<path d="M5494 5426 c-18 -14 -18 -15 -1 -21 19 -8 50 12 41 26 -7 13 -17 11
-40 -5z"/>
<path d="M3452 5421 c-8 -4 -31 -7 -53 -5 -37 2 -40 0 -59 -38 -21 -44 -18
-66 5 -35 7 10 25 19 40 21 15 2 31 9 36 17 7 12 12 12 29 1 17 -10 25 -10 36
-1 19 15 18 35 -2 43 -19 7 -16 7 -32 -3z"/>
<path d="M5287 5402 c2 -10 -3 -24 -11 -31 -9 -8 -16 -24 -16 -38 0 -20 -4
-23 -20 -18 -11 3 -20 2 -20 -4 0 -18 22 -23 46 -11 18 10 22 19 18 36 -4 16
0 25 15 34 26 13 27 26 2 39 -16 9 -18 8 -14 -7z"/>
<path d="M5613 5403 c9 -9 19 -14 23 -11 10 10 -6 28 -24 28 -15 0 -15 -1 1
-17z"/>
<path d="M6065 5400 c-7 -21 9 -50 26 -50 14 0 10 33 -5 53 -14 18 -15 17 -21
-3z"/>
<path d="M5880 5380 c0 -5 5 -10 11 -10 5 0 7 5 4 10 -3 6 -8 10 -11 10 -2 0
-4 -4 -4 -10z"/>
<path d="M4683 5353 c-18 -16 -33 -35 -34 -43 -4 -36 1 -42 27 -37 20 3 27 -1
35 -20 8 -21 11 -22 30 -11 12 7 31 19 43 25 11 7 15 13 8 13 -7 0 -21 -6 -32
-12 -17 -11 -22 -10 -30 2 -7 11 -5 16 5 18 8 2 15 8 15 13 0 5 8 9 18 9 29 0
33 10 16 41 -19 38 -59 39 -101 2z"/>
<path d="M5001 5375 c1 -22 16 -48 22 -38 3 5 0 19 -8 29 -8 10 -14 15 -14 9z"/>
<path d="M6229 5363 c-3 -19 4 -60 12 -75 13 -24 39 -23 32 1 -3 10 0 22 6 25
16 10 13 26 -4 26 -9 0 -18 7 -21 15 -6 16 -23 21 -25 8z"/>
<path d="M5670 5346 c0 -8 7 -19 16 -24 19 -10 29 -98 12 -108 -15 -9 -76 55
-83 87 -7 33 -22 46 -37 31 -6 -6 -6 -12 1 -16 14 -9 14 -53 1 -61 -17 -11 9
-35 36 -35 13 0 24 -4 24 -10 0 -5 6 -10 14 -10 7 0 20 -10 28 -22 15 -22 15
-22 43 -4 20 13 30 15 33 8 6 -19 57 -14 77 8 17 19 17 20 -9 30 -37 14 -38
13 -31 -10 5 -16 2 -20 -15 -20 -24 0 -38 26 -22 42 7 7 8 17 2 29 -7 11 -7
20 0 24 20 12 10 35 -14 35 -14 0 -28 4 -31 10 -3 5 -15 15 -26 20 -15 8 -19
7 -19 -4z"/>
<path d="M4812 5318 c7 -19 38 -22 38 -4 0 10 -9 16 -21 16 -12 0 -19 -5 -17
-12z"/>
<path d="M3840 5300 c0 -5 7 -10 16 -10 8 0 12 5 9 10 -3 6 -10 10 -16 10 -5
0 -9 -4 -9 -10z"/>
<path d="M5880 5302 c0 -16 19 -25 52 -26 16 -1 28 4 28 12 0 6 -8 12 -17 12
-10 0 -28 3 -40 6 -13 4 -23 2 -23 -4z"/>
<path d="M6326 5301 c-3 -5 1 -11 9 -15 9 -3 15 0 15 9 0 16 -16 20 -24 6z"/>
<path d="M5033 5272 c2 -22 -2 -28 -25 -30 -14 -2 -29 -10 -32 -19 -9 -21 -1
-27 21 -15 13 7 28 5 53 -9 72 -38 75 -38 78 -17 2 11 16 31 30 44 20 17 23
23 11 24 -8 0 -25 -12 -38 -26 -23 -27 -54 -29 -59 -3 -3 18 41 41 63 33 9 -4
15 0 15 9 0 23 -15 29 -44 16 -20 -10 -30 -9 -50 4 -24 16 -25 16 -23 -11z"/>
<path d="M6383 5282 c-8 -5 -8 -14 0 -34 9 -20 16 -25 26 -19 7 5 10 14 7 20
-4 6 -12 9 -17 6 -13 -9 -11 9 3 23 13 13 0 16 -19 4z"/>
<path d="M4913 5273 c-7 -2 -13 -11 -13 -19 0 -12 4 -12 20 -4 32 17 26 37 -7
23z"/>
<path d="M5197 5273 c-4 -3 -7 -11 -7 -17 0 -6 5 -5 12 2 6 6 9 14 7 17 -3 3
-9 2 -12 -2z"/>
<path d="M5251 5262 c-7 -14 -5 -22 8 -34 10 -9 21 -22 24 -29 4 -11 7 -11 18
2 8 9 26 19 42 23 35 8 35 26 -1 26 -16 0 -37 7 -48 15 -25 19 -31 19 -43 -3z"/>
<path d="M2499 5243 c-1 -5 -1 -11 0 -15 0 -3 -13 -11 -30 -17 -29 -10 -30
-11 -13 -36 19 -30 22 -30 52 -5 15 12 21 24 16 32 -5 7 -7 21 -6 31 2 9 -2
17 -7 17 -6 0 -12 -3 -12 -7z"/>
<path d="M2250 5231 c0 -6 5 -13 10 -16 6 -3 10 1 10 9 0 9 -4 16 -10 16 -5 0
-10 -4 -10 -9z"/>
<path d="M6280 5233 c0 -14 19 -38 25 -32 8 8 -5 39 -16 39 -5 0 -9 -3 -9 -7z"/>
<path d="M4640 5220 c0 -5 9 -10 20 -10 11 0 20 5 20 10 0 6 -9 10 -20 10 -11
0 -20 -4 -20 -10z"/>
<path d="M6040 5216 c0 -9 5 -16 10 -16 6 0 10 4 10 9 0 6 -4 13 -10 16 -5 3
-10 -1 -10 -9z"/>
<path d="M5933 5213 c-18 -6 -16 -23 1 -23 17 0 30 16 19 23 -5 2 -14 2 -20 0z"/>
<path d="M3840 5182 c0 -10 -5 -23 -12 -30 -6 -6 -8 -15 -4 -19 4 -4 11 -1 16
7 10 16 14 60 5 60 -3 0 -5 -8 -5 -18z"/>
<path d="M4770 5190 c0 -5 5 -10 10 -10 6 0 10 5 10 10 0 6 -4 10 -10 10 -5 0
-10 -4 -10 -10z"/>
<path d="M2314 5178 c-4 -6 0 -16 8 -22 8 -6 17 -19 21 -28 3 -10 12 -18 19
-18 9 0 9 3 0 12 -7 7 -12 22 -12 34 0 24 -25 40 -36 22z"/>
<path d="M5158 5150 l-28 -29 27 3 c14 2 32 11 39 21 11 15 16 16 29 5 11 -9
19 -10 26 -3 7 7 0 14 -22 22 -41 14 -39 15 -71 -19z"/>
<path d="M5290 5170 c0 -5 5 -10 11 -10 5 0 7 5 4 10 -3 6 -8 10 -11 10 -2 0
-4 -4 -4 -10z"/>
<path d="M5630 5170 c0 -14 49 -44 58 -36 4 4 -4 16 -18 26 -28 22 -40 25 -40
10z"/>
<path d="M5970 5174 c0 -6 7 -19 15 -30 8 -10 14 -14 14 -9 0 6 -6 19 -14 29
-8 11 -15 15 -15 10z"/>
<path d="M4940 5154 c0 -8 5 -12 10 -9 6 3 10 10 10 16 0 5 -4 9 -10 9 -5 0
-10 -7 -10 -16z"/>
<path d="M5780 5125 c0 -15 63 -55 86 -55 18 0 18 24 -1 40 -23 19 -85 30 -85
15z"/>
<path d="M5056 5113 c-11 -11 -6 -23 9 -23 8 0 15 4 15 9 0 13 -16 22 -24 14z"/>
<path d="M6001 5104 c0 -11 3 -14 6 -6 3 7 2 16 -1 19 -3 4 -6 -2 -5 -13z"/>
<path d="M5105 5100 c-3 -5 -1 -10 4 -10 6 0 11 5 11 10 0 6 -2 10 -4 10 -3 0
-8 -4 -11 -10z"/>
<path d="M5080 5066 c0 -8 5 -18 10 -21 6 -3 10 3 10 14 0 12 -4 21 -10 21 -5
0 -10 -6 -10 -14z"/>
<path d="M4850 5040 c0 -5 5 -10 11 -10 5 0 7 5 4 10 -3 6 -8 10 -11 10 -2 0
-4 -4 -4 -10z"/>
<path d="M5002 5001 c2 -7 7 -12 11 -12 12 1 9 15 -3 20 -7 2 -11 -2 -8 -8z"/>
<path d="M3725 4828 c-19 -22 -24 -38 -20 -52 4 -12 7 -30 8 -41 1 -12 16 -27
40 -38 37 -18 38 -18 67 5 27 21 42 47 20 33 -6 -4 -13 7 -16 24 -7 31 -19 41
-26 19 -5 -14 -38 -4 -38 12 0 5 7 10 15 10 18 0 19 14 5 41 -15 26 -24 24
-55 -13z"/>
<path d="M3052 8230 c-108 -66 -62 -260 63 -260 79 0 127 54 127 142 0 55 -19
90 -65 118 -41 25 -83 25 -125 0z"/>
<path d="M5540 5684 c0 -9 5 -14 12 -12 18 6 21 28 4 28 -9 0 -16 -7 -16 -16z"/>
<path d="M4420 3575 c0 -8 5 -15 10 -15 6 0 10 7 10 15 0 8 -4 15 -10 15 -5 0
-10 -7 -10 -15z"/>
<path d="M3846 2211 c-4 -7 -5 -15 -2 -18 9 -9 19 4 14 18 -4 11 -6 11 -12 0z"/>
<path d="M4180 2150 c0 -29 4 -40 15 -40 11 0 15 11 15 40 0 29 -4 40 -15 40
-11 0 -15 -11 -15 -40z"/>
<path d="M6665 1088 c-3 -13 1 -66 10 -118 8 -52 15 -130 15 -172 0 -71 -2
-78 -26 -97 -75 -59 -213 -25 -202 50 5 34 -7 29 -16 -6 -4 -14 0 -40 8 -59
41 -98 199 -80 250 29 15 32 16 48 6 152 -6 64 -9 131 -5 150 6 33 -11 93 -27
93 -4 0 -10 -10 -13 -22z"/>
<path d="M6961 944 c-12 -53 -30 -113 -41 -133 -33 -65 -110 -134 -185 -165
-50 -21 -42 -26 24 -14 62 11 120 44 149 85 19 28 45 100 57 161 10 51 25 27
25 -41 0 -77 14 -128 41 -153 29 -26 113 -22 208 10 41 14 88 26 104 26 26 0
56 22 57 41 0 4 -17 9 -37 13 -21 3 -65 20 -98 36 -75 38 -118 39 -150 4 -30
-32 -32 -49 -6 -34 11 5 29 10 40 10 32 0 102 -31 98 -44 -5 -15 -73 -34 -127
-35 -81 -2 -110 41 -110 164 0 77 -11 165 -20 165 -4 0 -17 -43 -29 -96z"/>
<path d="M6730 986 c0 -35 21 -66 54 -80 19 -8 49 -34 66 -58 30 -40 31 -41
24 -13 -16 70 -40 107 -91 143 -36 25 -53 28 -53 8z"/>
<path d="M6670 481 c0 -34 4 -61 10 -61 6 0 10 24 10 54 0 30 -4 58 -10 61 -6
4 -10 -17 -10 -54z"/>
<path d="M6747 506 c-3 -19 -2 -48 3 -63 7 -22 8 -16 9 35 1 69 -4 80 -12 28z"/>
<path d="M6917 533 c-11 -10 -8 -111 3 -118 6 -4 10 18 10 59 0 66 -1 72 -13
59z"/>
<path d="M7120 481 c0 -34 4 -61 10 -61 6 0 10 24 10 54 0 30 -4 58 -10 61 -6
4 -10 -17 -10 -54z"/>
<path d="M6830 512 c0 -11 5 -24 10 -27 6 -3 10 -14 10 -23 0 -20 17 -49 24
-41 6 6 -25 93 -37 105 -4 4 -7 -2 -7 -14z"/>
<path d="M7036 521 c-5 -7 -3 -18 3 -24 6 -6 11 -18 11 -26 0 -9 10 -27 21
-41 l20 -25 -7 25 c-16 58 -41 104 -48 91z"/>
<path d="M6800 449 c0 -5 5 -7 10 -4 6 3 10 8 10 11 0 2 -4 4 -10 4 -5 0 -10
-5 -10 -11z"/>
<path d="M1027 991 c-5 -22 1 -33 14 -25 12 7 12 44 0 44 -5 0 -11 -9 -14 -19z"/>
<path d="M760 830 c0 -5 9 -10 20 -10 11 0 20 5 20 10 0 6 -9 10 -20 10 -11 0
-20 -4 -20 -10z"/>
<path d="M840 805 c0 -8 7 -15 15 -15 8 0 15 7 15 15 0 8 -7 15 -15 15 -8 0
-15 -7 -15 -15z"/>
<path d="M970 805 c0 -9 5 -15 11 -13 6 2 11 8 11 13 0 5 -5 11 -11 13 -6 2
-11 -4 -11 -13z"/>
<path d="M1371 804 c0 -11 3 -14 6 -6 3 7 2 16 -1 19 -3 4 -6 -2 -5 -13z"/>
<path d="M1400 805 c0 -8 7 -15 15 -15 8 0 15 7 15 15 0 8 -7 15 -15 15 -8 0
-15 -7 -15 -15z"/>
<path d="M680 664 c0 -9 5 -14 12 -12 18 6 21 28 4 28 -9 0 -16 -7 -16 -16z"/>
<path d="M1112 669 c2 -6 8 -10 13 -10 5 0 11 4 13 10 2 6 -4 11 -13 11 -9 0
-15 -5 -13 -11z"/>
<path d="M1690 671 c0 -6 5 -13 10 -16 6 -3 10 1 10 9 0 9 -4 16 -10 16 -5 0
-10 -4 -10 -9z"/>
<path d="M7875 571 c-8 -15 3 -31 21 -31 9 0 14 7 12 17 -4 20 -24 28 -33 14z"/>
<path d="M7850 551 c0 -28 52 -52 65 -31 3 5 0 7 -9 4 -8 -3 -24 4 -35 15 -12
12 -21 17 -21 12z"/>
<path d="M380 520 c0 -5 5 -10 10 -10 6 0 10 5 10 10 0 6 -4 10 -10 10 -5 0
-10 -4 -10 -10z"/>
<path d="M377 474 c-8 -8 1 -24 14 -24 5 0 9 7 9 15 0 15 -12 20 -23 9z"/>
<path d="M880 520 c0 -5 5 -10 10 -10 6 0 10 5 10 10 0 6 -4 10 -10 10 -5 0
-10 -4 -10 -10z"/>
<path d="M880 465 c0 -8 7 -15 15 -15 8 0 15 7 15 15 0 8 -7 15 -15 15 -8 0
-15 -7 -15 -15z"/>
<path d="M3350 450 c0 -5 7 -10 15 -10 8 0 15 5 15 10 0 6 -7 10 -15 10 -8 0
-15 -4 -15 -10z"/>
<path d="M4137 454 c-10 -11 -9 -74 2 -74 16 0 33 29 29 51 -3 23 -19 35 -31
23z"/>
<path d="M4467 453 c-10 -10 -8 -61 2 -68 12 -7 31 26 31 54 0 20 -19 28 -33
14z"/>
<path d="M5137 433 c-5 -29 0 -53 13 -53 11 0 31 60 24 71 -11 18 -32 8 -37
-18z"/>
<path d="M5750 450 c0 -5 5 -10 10 -10 6 0 10 5 10 10 0 6 -4 10 -10 10 -5 0
-10 -4 -10 -10z"/>
<path d="M5880 450 c0 -5 5 -10 10 -10 6 0 10 5 10 10 0 6 -4 10 -10 10 -5 0
-10 -4 -10 -10z"/>
<path d="M4755 424 c-3 -20 -4 -38 -1 -41 12 -12 36 21 36 48 0 42 -26 37 -35
-7z"/>
<path d="M5615 420 c3 -5 8 -10 11 -10 2 0 4 5 4 10 0 6 -5 10 -11 10 -5 0 -7
-4 -4 -10z"/>
<path d="M7580 350 c0 -5 5 -10 11 -10 5 0 7 5 4 10 -3 6 -8 10 -11 10 -2 0
-4 -4 -4 -10z"/>
<path d="M8282 320 c0 -14 2 -19 5 -12 2 6 2 18 0 25 -3 6 -5 1 -5 -13z"/>
</g>
</svg>
