<?xml version="1.0" standalone="no"?>
<!DOCTYPE svg PUBLIC "-//W3C//DTD SVG 20010904//EN"
 "http://www.w3.org/TR/2001/REC-SVG-20010904/DTD/svg10.dtd">
<svg version="1.0" xmlns="http://www.w3.org/2000/svg"
 width="788.000000pt" height="788.000000pt" viewBox="0 0 788.000000 788.000000"
 preserveAspectRatio="xMidYMid meet">

<g transform="translate(0.000000,788.000000) scale(0.100000,-0.100000)"
fill="#000000" stroke="none">
<path d="M0 3945 l0 -3935 3935 0 3935 0 0 3935 0 3935 -3935 0 -3935 0 0
-3935z m3600 2336 c0 -5 -11 -33 -25 -63 -52 -112 -20 -116 144 -18 111 67
161 85 161 58 0 -7 -37 -50 -82 -95 -53 -53 -79 -86 -73 -92 6 -6 37 -4 85 5
41 8 96 14 123 14 41 0 49 -3 59 -25 15 -34 6 -42 -85 -80 -51 -22 -76 -38
-85 -57 -28 -59 8 -70 137 -43 39 8 77 12 86 9 27 -11 22 -69 -8 -103 -36 -39
-79 -51 -179 -51 l-94 0 -79 55 c-118 83 -205 108 -370 109 -114 1 -130 3
-133 18 -5 24 66 288 84 316 19 29 37 36 70 28 25 -7 26 -8 19 -66 -6 -56 -6
-60 13 -60 11 0 44 19 72 43 29 23 70 57 92 75 40 31 68 41 68 23z m-101 -472
c170 -78 308 -311 341 -575 19 -146 3 -131 127 -121 122 10 285 -2 430 -33
368 -77 667 -273 885 -581 59 -83 143 -231 165 -288 9 -25 20 -50 24 -55 4 -4
114 20 244 54 162 42 241 58 248 51 5 -5 52 -241 103 -523 52 -282 95 -516 97
-521 1 -5 87 227 190 515 103 287 191 526 196 531 8 8 497 -116 534 -135 34
-18 85 104 -623 -1493 -205 -462 -376 -844 -381 -849 -4 -5 -106 16 -241 50
-207 52 -233 61 -236 80 -3 24 75 227 146 379 63 136 67 203 22 366 -17 63
-72 272 -121 464 -49 193 -91 354 -93 360 -1 5 -10 -32 -20 -84 -31 -169 -93
-339 -178 -484 l-42 -72 -11 45 c-7 28 -17 46 -27 48 -9 2 -63 -11 -119 -27
-161 -49 -244 -41 -278 25 -33 65 -33 110 -1 434 17 173 35 325 40 338 9 21
13 22 164 22 132 0 157 2 174 18 20 16 122 238 144 310 17 60 11 62 -228 62
-117 0 -215 3 -217 8 -2 4 10 134 26 289 16 155 27 288 24 297 -5 12 -19 11
-99 -10 -51 -13 -174 -40 -273 -59 -99 -19 -190 -37 -201 -40 -12 -3 -25 -13
-29 -22 -3 -10 -18 -112 -31 -227 -14 -116 -30 -216 -36 -223 -6 -7 -28 -13
-50 -13 -32 0 -46 -6 -71 -33 -47 -49 -209 -313 -205 -334 3 -15 18 -19 108
-24 58 -4 129 -7 158 -8 l54 -1 -6 -47 c-12 -92 -46 -529 -53 -668 -5 -115 -3
-156 12 -220 42 -193 142 -300 314 -336 30 -6 111 -9 183 -7 l129 3 -28 -23
c-44 -35 -230 -127 -315 -155 -170 -57 -268 -72 -473 -72 -143 0 -212 5 -278
18 -250 51 -479 161 -675 327 l-73 61 -103 -40 c-142 -56 -191 -65 -316 -58
-156 9 -248 43 -325 123 -77 78 -112 177 -121 339 -8 141 90 1203 114 1227 9
9 134 40 139 34 1 -1 -14 -184 -33 -406 -45 -528 -53 -742 -30 -830 34 -131
83 -204 170 -255 91 -53 253 -70 371 -40 73 19 194 76 295 138 41 26 77 47 80
47 4 0 3 -24 -1 -52 -10 -72 -11 -148 -1 -148 4 0 57 20 117 44 61 24 175 63
255 86 80 23 151 48 159 56 15 14 31 172 111 1092 23 266 39 486 36 490 -9 8
-515 -116 -543 -134 -19 -12 -22 -25 -28 -121 -3 -59 -19 -281 -36 -493 -27
-359 -30 -388 -54 -436 -50 -102 -155 -174 -265 -182 -60 -4 -68 -2 -97 22
-65 54 -64 138 12 899 39 385 41 437 22 437 -6 0 -44 -9 -82 -20 -38 -11 -74
-20 -79 -20 -25 0 41 244 86 320 151 251 182 389 142 615 -22 123 -22 288 0
340 21 50 79 110 129 137 90 46 203 45 306 -3z m-509 -229 c0 -46 -3 -51 -27
-61 -16 -6 -43 -13 -62 -16 l-33 -6 18 34 c17 34 81 99 96 99 4 0 8 -23 8 -50z
m10 -514 c-23 -161 -66 -257 -127 -282 -67 -29 -164 10 -196 79 -19 40 -22
118 -6 150 29 57 103 138 213 235 l121 106 3 -104 c2 -58 -2 -140 -8 -184z
m-1210 -355 c0 -25 -48 -495 -56 -543 l-6 -38 195 0 c216 0 254 -4 262 -30 7
-21 -119 -326 -147 -355 -17 -18 -34 -20 -182 -23 l-163 -3 -22 -181 c-12
-100 -27 -254 -33 -342 -9 -143 -9 -168 6 -219 13 -45 24 -62 49 -78 45 -28
135 -21 262 21 88 29 99 31 110 17 16 -22 77 -320 70 -339 -7 -19 -2 -16 -155
-69 -259 -90 -437 -116 -590 -85 -248 50 -352 204 -352 516 0 102 38 598 56
728 l5 32 -144 0 c-124 0 -146 2 -166 19 l-22 18 23 39 c84 138 210 322 224
327 10 4 37 7 60 7 l42 0 25 226 c18 153 30 229 40 239 13 12 534 132 587 134
15 1 22 -5 22 -18z m-343 -2723 l-23 -53 -72 -3 -72 -3 0 -29 0 -30 65 0 c36
0 65 -4 65 -10 0 -5 -10 -30 -22 -55 -21 -44 -23 -45 -69 -45 l-48 0 -6 -57
c-4 -32 -8 -62 -9 -67 -2 -9 -79 -36 -103 -36 -8 0 -10 23 -6 80 6 77 5 80
-16 80 -27 0 -26 6 4 55 15 24 25 55 25 78 0 33 -3 37 -25 37 -31 0 -31 1 3
61 l27 49 152 0 153 0 -23 -52z m283 43 c91 -18 122 -111 58 -175 -18 -18 -40
-35 -48 -38 -11 -3 -5 -20 29 -72 24 -37 52 -73 62 -80 16 -11 11 -16 -48 -45
-36 -17 -66 -31 -68 -29 -1 2 -21 40 -45 85 -24 46 -45 81 -47 79 -2 -2 -7
-32 -11 -66 l-7 -63 -45 -13 c-67 -20 -72 -19 -66 19 3 17 8 94 11 170 l7 137
-26 0 c-31 0 -32 3 -5 46 21 35 35 41 104 47 74 7 100 6 145 -2z m300 2 c0
-49 -33 -400 -38 -404 -8 -7 -103 -31 -107 -27 -6 7 25 402 32 409 5 4 28 12
53 17 60 13 60 13 60 5z m390 0 c-1 -5 -11 -28 -23 -53 l-22 -45 -72 -3 -73
-3 0 -29 0 -30 63 0 c35 0 66 -3 70 -6 3 -4 -5 -28 -19 -55 -24 -49 -25 -49
-74 -49 l-50 0 0 -35 0 -35 70 0 c39 0 70 -4 70 -9 0 -6 -9 -26 -21 -45 l-21
-36 -76 0 c-43 0 -100 3 -128 6 l-52 7 18 31 c10 17 20 50 23 74 4 36 3 42
-14 42 -24 0 -24 17 1 55 12 18 20 47 20 73 0 35 -3 42 -20 42 -26 0 -25 14 5
67 l26 43 149 0 c83 0 150 -3 150 -7z m297 -24 c27 -14 58 -39 71 -59 20 -30
23 -45 20 -106 -5 -102 -40 -157 -130 -203 -60 -30 -78 -35 -168 -39 -55 -2
-100 -2 -100 2 0 4 8 23 19 44 14 27 20 71 26 163 l7 125 -39 -4 -38 -4 60 56
60 57 82 -5 c61 -3 96 -10 130 -27z m568 9 c22 -10 25 -18 25 -66 0 -48 -2
-53 -17 -47 -74 32 -99 37 -125 26 -58 -22 -83 -105 -54 -176 23 -54 66 -65
154 -39 21 6 22 3 22 -39 0 -60 -20 -71 -121 -72 -68 0 -79 3 -113 29 -70 53
-101 156 -75 249 11 40 67 110 103 129 53 29 146 31 201 6z m211 -63 l-7 -85
50 0 c49 0 50 1 55 33 3 17 7 50 8 71 3 39 3 40 58 52 30 7 57 10 59 8 7 -6
-29 -398 -37 -405 -6 -6 -92 -29 -106 -29 -3 0 -3 36 1 80 l6 80 -51 0 -51 0
-5 -42 c-3 -24 -7 -54 -8 -67 -3 -21 -12 -27 -53 -38 -27 -7 -53 -13 -57 -13
-4 0 -5 36 -1 80 6 77 5 80 -16 80 -26 0 -26 2 3 49 18 28 27 61 33 122 l8 83
50 12 c28 6 54 12 59 13 5 0 6 -36 2 -84z m414 53 c-1 -80 -29 -371 -36 -377
-14 -12 -95 -33 -102 -27 -6 7 17 398 24 406 5 4 79 24 107 29 4 0 7 -14 7
-31z m356 10 c21 -10 24 -18 24 -65 0 -56 -4 -61 -35 -39 -104 72 -212 -35
-161 -159 23 -54 66 -65 154 -39 21 6 22 3 22 -39 0 -56 -16 -67 -105 -75
-115 -9 -195 60 -212 183 -14 103 56 214 152 241 52 14 120 11 161 -8z m204
-40 l0 -63 46 53 46 52 70 0 70 0 -85 -93 -85 -92 79 -90 c43 -49 79 -92 79
-95 0 -9 -80 -55 -88 -50 -4 3 -38 41 -77 84 l-70 80 -5 -65 c-5 -69 -14 -78
-87 -94 l-33 -7 1 44 c0 24 6 117 12 207 l12 165 50 12 c28 6 53 12 58 13 4 0
7 -27 7 -61z m596 10 l-23 -53 -71 -3 c-69 -3 -70 -3 -74 -32 l-5 -30 69 0
c37 0 68 -4 68 -10 0 -5 -10 -30 -22 -55 -22 -44 -23 -45 -70 -45 -32 0 -48
-4 -48 -12 0 -7 -3 -23 -6 -35 -6 -22 -4 -23 71 -23 42 0 75 -3 73 -7 -2 -5
-12 -25 -23 -47 l-20 -39 -123 6 c-68 3 -126 7 -129 10 -3 3 4 19 16 35 13 19
21 45 21 71 0 34 -3 41 -20 41 -26 0 -25 6 5 55 14 23 25 56 25 78 0 33 -3 37
-25 37 -31 0 -31 1 2 61 l26 49 153 0 153 0 -23 -52z m180 -83 l59 -99 3 105
3 106 38 12 c68 20 64 30 59 -184 -5 -213 -1 -199 -69 -239 l-25 -15 -67 102
-67 102 0 -45 c-1 -25 -4 -62 -8 -84 -6 -34 -12 -40 -55 -57 l-48 -19 8 133
c10 164 10 227 -1 249 -6 13 2 22 41 41 55 29 41 41 129 -108z"/>
<path d="M3207 5623 c-15 -14 -7 -62 12 -68 40 -12 70 20 51 56 -10 18 -50 26
-63 12z"/>
<path d="M1630 1933 c0 -10 -3 -35 -6 -55 -6 -33 -4 -38 13 -38 28 0 73 37 73
60 0 37 -12 50 -46 50 -26 0 -34 -4 -34 -17z"/>
<path d="M2576 1863 c-4 -49 -8 -107 -10 -130 -3 -39 -1 -43 19 -43 28 0 71
33 90 70 20 38 19 110 -1 139 -14 19 -69 51 -88 51 -2 0 -7 -39 -10 -87z"/>
</g>
</svg>
