<?xml version="1.0" standalone="no"?>
<!DOCTYPE svg PUBLIC "-//W3C//DTD SVG 20010904//EN"
 "http://www.w3.org/TR/2001/REC-SVG-20010904/DTD/svg10.dtd">
<svg version="1.0" xmlns="http://www.w3.org/2000/svg"
 width="55.000000pt" height="55.000000pt" viewBox="0 0 55.000000 55.000000"
 preserveAspectRatio="xMidYMid meet">

<g transform="translate(0.000000,55.000000) scale(0.100000,-0.100000)"
fill="#000000" stroke="none">
<path d="M0 275 l0 -275 275 0 275 0 0 275 0 275 -275 0 -275 0 0 -275z m265
149 c11 -12 13 -19 5 -24 -19 -12 1 -38 35 -44 20 -4 44 -19 59 -36 14 -17 31
-28 39 -24 10 3 16 -5 21 -28 l7 -33 14 32 c10 24 18 30 34 26 20 -5 19 -6 -5
-62 -14 -31 -28 -63 -31 -71 -20 -53 -53 -46 -46 9 3 23 1 41 -6 45 -6 4 -11
2 -11 -3 0 -6 -9 -11 -20 -11 -16 0 -20 7 -20 30 0 20 5 30 15 30 8 0 15 7 15
15 0 8 -4 15 -10 15 -5 0 -10 9 -10 20 0 11 -2 20 -4 20 -14 0 -36 -14 -36
-23 0 -6 -7 -19 -17 -29 -9 -11 -11 -18 -5 -18 7 0 12 -16 12 -40 0 -28 5 -43
16 -47 13 -5 13 -7 2 -14 -20 -13 -50 -11 -81 6 -15 8 -34 12 -42 8 -9 -3 -22
0 -29 6 -10 8 -16 9 -21 1 -3 -5 -19 -10 -35 -10 -31 0 -32 3 -43 73 -6 38 19
87 44 87 16 0 19 -5 14 -20 -5 -14 -2 -20 9 -20 9 0 16 -7 16 -15 0 -8 -7 -15
-15 -15 -10 0 -15 -10 -15 -30 0 -50 27 -37 36 18 l8 47 6 -50 c5 -49 5 -50
41 -51 20 -1 41 1 46 5 9 6 27 111 18 111 -22 0 -35 -17 -35 -45 0 -35 -23
-65 -35 -45 -4 6 -4 27 0 46 4 25 1 43 -9 59 -13 19 -13 25 -2 34 8 7 17 24
21 39 5 21 20 41 32 42 1 0 9 -7 18 -16z m-65 -293 c0 -17 -22 -24 -31 -10 -7
11 -9 11 -9 1 0 -9 -13 -12 -40 -10 -25 1 -40 7 -40 15 0 9 17 13 60 13 33 0
60 -4 60 -9z m121 -3 c0 -10 2 -10 6 0 7 18 53 15 53 -3 0 -12 -15 -15 -85
-13 -63 1 -85 5 -85 15 0 18 110 19 111 1z"/>
</g>
</svg>
